<?xml version="1.0" encoding="UTF-8" standalone="no"?>
<!-- Created with Inkscape (http://www.inkscape.org/) -->

<svg
   version="1.1"
   id="svg9"
   xml:space="preserve"
   width="275.35999"
   height="42.083229"
   viewBox="0 0 275.35999 42.083229"
   sodipodi:docname="full_data.svg"
   inkscape:version="1.1 (c68e22c387, 2021-05-23)"
   xmlns:inkscape="http://www.inkscape.org/namespaces/inkscape"
   xmlns:sodipodi="http://sodipodi.sourceforge.net/DTD/sodipodi-0.dtd"
   xmlns="http://www.w3.org/2000/svg"
   xmlns:svg="http://www.w3.org/2000/svg"><defs
     id="defs13"><clipPath
       clipPathUnits="userSpaceOnUse"
       id="clipPath111"><path
         d="M 1.0729e-5,0 H 720.00001 V 540 H 1.0729e-5 Z"
         clip-rule="evenodd"
         id="path109" /></clipPath><clipPath
       clipPathUnits="userSpaceOnUse"
       id="clipPath123"><path
         d="M 1.0729e-5,0 H 720.00001 V 540 H 1.0729e-5 Z"
         clip-rule="evenodd"
         id="path121" /></clipPath><clipPath
       clipPathUnits="userSpaceOnUse"
       id="clipPath135"><path
         d="M 1.0729e-5,0 H 720.00001 V 540 H 1.0729e-5 Z"
         clip-rule="evenodd"
         id="path133" /></clipPath><clipPath
       clipPathUnits="userSpaceOnUse"
       id="clipPath147"><path
         d="M 1.0729e-5,0 H 720.00001 V 540 H 1.0729e-5 Z"
         clip-rule="evenodd"
         id="path145" /></clipPath><clipPath
       clipPathUnits="userSpaceOnUse"
       id="clipPath159"><path
         d="M 1.0729e-5,0 H 720.00001 V 540 H 1.0729e-5 Z"
         clip-rule="evenodd"
         id="path157" /></clipPath><clipPath
       clipPathUnits="userSpaceOnUse"
       id="clipPath171"><path
         d="M 1.0729e-5,0 H 720.00001 V 540 H 1.0729e-5 Z"
         clip-rule="evenodd"
         id="path169" /></clipPath><clipPath
       clipPathUnits="userSpaceOnUse"
       id="clipPath183"><path
         d="M 1.0729e-5,0 H 720.00001 V 540 H 1.0729e-5 Z"
         clip-rule="evenodd"
         id="path181" /></clipPath></defs><sodipodi:namedview
     id="namedview11"
     pagecolor="#ffffff"
     bordercolor="#666666"
     borderopacity="1.0"
     inkscape:pageshadow="2"
     inkscape:pageopacity="0.0"
     inkscape:pagecheckerboard="0"
     showgrid="false"
     inkscape:zoom="1.1236111"
     inkscape:cx="-182.00247"
     inkscape:cy="318.17058"
     inkscape:window-width="1920"
     inkscape:window-height="1017"
     inkscape:window-x="-8"
     inkscape:window-y="-8"
     inkscape:window-maximized="1"
     inkscape:current-layer="g15"
     fit-margin-top="0"
     fit-margin-left="0"
     fit-margin-right="0"
     fit-margin-bottom="0" /><g
     id="g15"
     inkscape:groupmode="layer"
     inkscape:label="to_convert"
     transform="matrix(1.3333333,0,0,-1.3333333,-359.67999,677.91998)"><path
       d="m 269.76,490.8 h 17.04 v 16.92 h -17.04 z"
       style="fill:#c0392b;fill-opacity:1;fill-rule:evenodd;stroke:none"
       id="path39" /><path
       d="m 364.56,490.8 h 17.04 v 16.92 h -17.04 z"
       style="fill:#27ae60;fill-opacity:1;fill-rule:evenodd;stroke:none"
       id="path41" /><path
       d="m 427.68,490.8 h 17.04 v 16.92 h -17.04 z"
       style="fill:#8e44ad;fill-opacity:1;fill-rule:evenodd;stroke:none"
       id="path43" /><path
       d="m 333.06,490.74 h 16.92 v 16.92 h -16.92 z"
       style="fill:none;stroke:#f1c40f;stroke-width:1.56;stroke-linecap:butt;stroke-linejoin:round;stroke-miterlimit:10;stroke-dasharray:none;stroke-opacity:1"
       id="path45" /><path
       d="m 396.18,499.2 c 0,4.67 3.81,8.46 8.52,8.46 4.71,0 8.52,-3.79 8.52,-8.46 0,-4.67 -3.81,-8.46 -8.52,-8.46 -4.71,0 -8.52,3.79 -8.52,8.46 z"
       style="fill:none;stroke:#3498db;stroke-width:1.56;stroke-linecap:butt;stroke-linejoin:round;stroke-miterlimit:10;stroke-dasharray:none;stroke-opacity:1"
       id="path47" /><path
       d="m 459.24,499.26 c 0,4.67 3.81,8.46 8.52,8.46 4.71,0 8.52,-3.79 8.52,-8.46 0,-4.67 -3.81,-8.46 -8.52,-8.46 -4.71,0 -8.52,3.79 -8.52,8.46 z"
       style="fill:#343e50;fill-opacity:1;fill-rule:evenodd;stroke:none"
       id="path49" /><path
       d="m 301.44,499.26 c 0,4.67 3.79,8.46 8.46,8.46 4.67,0 8.46,-3.79 8.46,-8.46 0,-4.67 -3.79,-8.46 -8.46,-8.46 -4.67,0 -8.46,3.79 -8.46,8.46 z"
       style="fill:#e67e22;fill-opacity:1;fill-rule:evenodd;stroke:none"
       id="path51" /><g
       id="g105"><g
         id="g107"
         clip-path="url(#clipPath111)"><text
           transform="matrix(1,0,0,-1,275.54,476.98)"
           style="font-variant:normal;font-weight:normal;font-size:11.04px;font-family:Calibri;-inkscape-font-specification:Calibri;writing-mode:lr-tb;fill:#a6a6a6;fill-opacity:1;fill-rule:nonzero;stroke:none"
           id="text115"><tspan
             x="0"
             y="0"
             id="tspan113">1</tspan></text></g></g><g
       id="g117"><g
         id="g119"
         clip-path="url(#clipPath123)"><text
           transform="matrix(1,0,0,-1,306.82,476.98)"
           style="font-variant:normal;font-weight:normal;font-size:11.04px;font-family:Calibri;-inkscape-font-specification:Calibri;writing-mode:lr-tb;fill:#a6a6a6;fill-opacity:1;fill-rule:nonzero;stroke:none"
           id="text127"><tspan
             x="0"
             y="0"
             id="tspan125">2</tspan></text></g></g><g
       id="g129"><g
         id="g131"
         clip-path="url(#clipPath135)"><text
           transform="matrix(1,0,0,-1,338.71,476.98)"
           style="font-variant:normal;font-weight:normal;font-size:11.04px;font-family:Calibri;-inkscape-font-specification:Calibri;writing-mode:lr-tb;fill:#a6a6a6;fill-opacity:1;fill-rule:nonzero;stroke:none"
           id="text139"><tspan
             x="0"
             y="0"
             id="tspan137">3</tspan></text></g></g><g
       id="g141"><g
         id="g143"
         clip-path="url(#clipPath147)"><text
           transform="matrix(1,0,0,-1,370.3,476.98)"
           style="font-variant:normal;font-weight:normal;font-size:11.04px;font-family:Calibri;-inkscape-font-specification:Calibri;writing-mode:lr-tb;fill:#a6a6a6;fill-opacity:1;fill-rule:nonzero;stroke:none"
           id="text151"><tspan
             x="0"
             y="0"
             id="tspan149">4</tspan></text></g></g><g
       id="g153"><g
         id="g155"
         clip-path="url(#clipPath159)"><text
           transform="matrix(1,0,0,-1,402.05,476.98)"
           style="font-variant:normal;font-weight:normal;font-size:11.04px;font-family:Calibri;-inkscape-font-specification:Calibri;writing-mode:lr-tb;fill:#a6a6a6;fill-opacity:1;fill-rule:nonzero;stroke:none"
           id="text163"><tspan
             x="0"
             y="0"
             id="tspan161">5</tspan></text></g></g><g
       id="g165"><g
         id="g167"
         clip-path="url(#clipPath171)"><text
           transform="matrix(1,0,0,-1,433.46,476.98)"
           style="font-variant:normal;font-weight:normal;font-size:11.04px;font-family:Calibri;-inkscape-font-specification:Calibri;writing-mode:lr-tb;fill:#a6a6a6;fill-opacity:1;fill-rule:nonzero;stroke:none"
           id="text175"><tspan
             x="0"
             y="0"
             id="tspan173">6</tspan></text></g></g><g
       id="g177"><g
         id="g179"
         clip-path="url(#clipPath183)"><text
           transform="matrix(1,0,0,-1,465.05,476.98)"
           style="font-variant:normal;font-weight:normal;font-size:11.04px;font-family:Calibri;-inkscape-font-specification:Calibri;writing-mode:lr-tb;fill:#a6a6a6;fill-opacity:1;fill-rule:nonzero;stroke:none"
           id="text187"><tspan
             x="0"
             y="0"
             id="tspan185">7</tspan></text></g></g></g></svg>
