<?xml version="1.0" encoding="UTF-8" standalone="no"?>
<!-- Created with Inkscape (http://www.inkscape.org/) -->

<svg
   version="1.1"
   id="svg3039"
   xml:space="preserve"
   width="602.65039"
   height="67.593491"
   viewBox="0 0 602.65039 67.593491"
   sodipodi:docname="data_part_gnum.svg"
   inkscape:version="1.1 (c68e22c387, 2021-05-23)"
   xmlns:inkscape="http://www.inkscape.org/namespaces/inkscape"
   xmlns:sodipodi="http://sodipodi.sourceforge.net/DTD/sodipodi-0.dtd"
   xmlns="http://www.w3.org/2000/svg"
   xmlns:svg="http://www.w3.org/2000/svg"><defs
     id="defs3043"><clipPath
       clipPathUnits="userSpaceOnUse"
       id="clipPath3053"><path
         d="M 0,1.2207e-4 H 720 V 540.00012 H 0 Z"
         clip-rule="evenodd"
         id="path3051" /></clipPath><clipPath
       clipPathUnits="userSpaceOnUse"
       id="clipPath3063"><path
         d="M 1.0729e-5,0 H 720.00001 V 540 H 1.0729e-5 Z"
         clip-rule="evenodd"
         id="path3061" /></clipPath><clipPath
       clipPathUnits="userSpaceOnUse"
       id="clipPath3103"><path
         d="M 1.0729e-5,0 H 720.00001 V 540 H 1.0729e-5 Z"
         clip-rule="evenodd"
         id="path3101" /></clipPath><clipPath
       clipPathUnits="userSpaceOnUse"
       id="clipPath3115"><path
         d="M 1.0729e-5,0 H 720.00001 V 540 H 1.0729e-5 Z"
         clip-rule="evenodd"
         id="path3113" /></clipPath><clipPath
       clipPathUnits="userSpaceOnUse"
       id="clipPath3127"><path
         d="M 1.0729e-5,0 H 720.00001 V 540 H 1.0729e-5 Z"
         clip-rule="evenodd"
         id="path3125" /></clipPath><clipPath
       clipPathUnits="userSpaceOnUse"
       id="clipPath3139"><path
         d="M 1.0729e-5,0 H 720.00001 V 540 H 1.0729e-5 Z"
         clip-rule="evenodd"
         id="path3137" /></clipPath><clipPath
       clipPathUnits="userSpaceOnUse"
       id="clipPath3151"><path
         d="M 1.0729e-5,0 H 720.00001 V 540 H 1.0729e-5 Z"
         clip-rule="evenodd"
         id="path3149" /></clipPath><clipPath
       clipPathUnits="userSpaceOnUse"
       id="clipPath3163"><path
         d="M 1.0729e-5,0 H 720.00001 V 540 H 1.0729e-5 Z"
         clip-rule="evenodd"
         id="path3161" /></clipPath><clipPath
       clipPathUnits="userSpaceOnUse"
       id="clipPath3175"><path
         d="M 1.0729e-5,0 H 720.00001 V 540 H 1.0729e-5 Z"
         clip-rule="evenodd"
         id="path3173" /></clipPath><clipPath
       clipPathUnits="userSpaceOnUse"
       id="clipPath3187"><path
         d="M 1.0729e-5,0 H 720.00001 V 540 H 1.0729e-5 Z"
         clip-rule="evenodd"
         id="path3185" /></clipPath><clipPath
       clipPathUnits="userSpaceOnUse"
       id="clipPath3199"><path
         d="M 1.0729e-5,0 H 720.00001 V 540 H 1.0729e-5 Z"
         clip-rule="evenodd"
         id="path3197" /></clipPath><clipPath
       clipPathUnits="userSpaceOnUse"
       id="clipPath3245"><path
         d="M 1.0729e-5,0 H 720.00001 V 540 H 1.0729e-5 Z"
         clip-rule="evenodd"
         id="path3243" /></clipPath><clipPath
       clipPathUnits="userSpaceOnUse"
       id="clipPath3257"><path
         d="M 1.0729e-5,0 H 720.00001 V 540 H 1.0729e-5 Z"
         clip-rule="evenodd"
         id="path3255" /></clipPath><clipPath
       clipPathUnits="userSpaceOnUse"
       id="clipPath3291"><path
         d="M 1.0729e-5,0 H 720.00001 V 540 H 1.0729e-5 Z"
         clip-rule="evenodd"
         id="path3289" /></clipPath><clipPath
       clipPathUnits="userSpaceOnUse"
       id="clipPath3303"><path
         d="M 1.0729e-5,0 H 720.00001 V 540 H 1.0729e-5 Z"
         clip-rule="evenodd"
         id="path3301" /></clipPath><clipPath
       clipPathUnits="userSpaceOnUse"
       id="clipPath3315"><path
         d="M 1.0729e-5,0 H 720.00001 V 540 H 1.0729e-5 Z"
         clip-rule="evenodd"
         id="path3313" /></clipPath><clipPath
       clipPathUnits="userSpaceOnUse"
       id="clipPath3353"><path
         d="M 1.0729e-5,0 H 720.00001 V 540 H 1.0729e-5 Z"
         clip-rule="evenodd"
         id="path3351" /></clipPath><clipPath
       clipPathUnits="userSpaceOnUse"
       id="clipPath3365"><path
         d="M 1.0729e-5,0 H 720.00001 V 540 H 1.0729e-5 Z"
         clip-rule="evenodd"
         id="path3363" /></clipPath><clipPath
       clipPathUnits="userSpaceOnUse"
       id="clipPath3377"><path
         d="M 1.0729e-5,0 H 720.00001 V 540 H 1.0729e-5 Z"
         clip-rule="evenodd"
         id="path3375" /></clipPath><clipPath
       clipPathUnits="userSpaceOnUse"
       id="clipPath3389"><path
         d="M 1.0729e-5,0 H 720.00001 V 540 H 1.0729e-5 Z"
         clip-rule="evenodd"
         id="path3387" /></clipPath><clipPath
       clipPathUnits="userSpaceOnUse"
       id="clipPath3401"><path
         d="M 1.0729e-5,0 H 720.00001 V 540 H 1.0729e-5 Z"
         clip-rule="evenodd"
         id="path3399" /></clipPath><clipPath
       clipPathUnits="userSpaceOnUse"
       id="clipPath3413"><path
         d="M 1.0729e-5,0 H 720.00001 V 540 H 1.0729e-5 Z"
         clip-rule="evenodd"
         id="path3411" /></clipPath><clipPath
       clipPathUnits="userSpaceOnUse"
       id="clipPath3425"><path
         d="M 1.0729e-5,0 H 720.00001 V 540 H 1.0729e-5 Z"
         clip-rule="evenodd"
         id="path3423" /></clipPath></defs><sodipodi:namedview
     id="namedview3041"
     pagecolor="#ffffff"
     bordercolor="#666666"
     borderopacity="1.0"
     inkscape:pageshadow="2"
     inkscape:pageopacity="0.0"
     inkscape:pagecheckerboard="0"
     showgrid="false"
     fit-margin-top="0"
     fit-margin-left="0"
     fit-margin-right="0"
     fit-margin-bottom="0"
     inkscape:zoom="1.134375"
     inkscape:cx="-53.333333"
     inkscape:cy="3.9669421"
     inkscape:window-width="1920"
     inkscape:window-height="1017"
     inkscape:window-x="-8"
     inkscape:window-y="-8"
     inkscape:window-maximized="1"
     inkscape:current-layer="g3045" /><g
     id="g3045"
     inkscape:groupmode="layer"
     inkscape:label="to_convert"
     transform="matrix(1.3333333,0,0,-1.3333333,-233.30465,364.15999)"><path
       d="m 195.72,247.56 h 17.04 v 17.04 h -17.04 z"
       style="fill:#c0392b;fill-opacity:1;fill-rule:evenodd;stroke:none"
       id="path3321" /><path
       d="m 260.4,247.56 h 17.04 V 264.6 H 260.4 Z"
       style="fill:#27ae60;fill-opacity:1;fill-rule:evenodd;stroke:none"
       id="path3323" /><path
       d="m 228,247.56 h 17.04 V 264.6 H 228 Z"
       style="fill:#8e44ad;fill-opacity:1;fill-rule:evenodd;stroke:none"
       id="path3325" /><path
       d="m 292.74,247.5 h 17.04 v 17.04 h -17.04 z"
       style="fill:none;stroke:#f1c40f;stroke-width:1.56;stroke-linecap:butt;stroke-linejoin:round;stroke-miterlimit:10;stroke-dasharray:none;stroke-opacity:1"
       id="path3327" /><path
       d="m 442.26,256.02 c 0,4.71 3.79,8.52 8.46,8.52 4.67,0 8.46,-3.81 8.46,-8.52 0,-4.71 -3.79,-8.52 -8.46,-8.52 -4.67,0 -8.46,3.81 -8.46,8.52 z"
       style="fill:none;stroke:#3498db;stroke-width:1.56;stroke-linecap:butt;stroke-linejoin:round;stroke-miterlimit:10;stroke-dasharray:none;stroke-opacity:1"
       id="path3329" /><path
       d="m 413.64,256.08 c 0,4.71 3.81,8.52 8.52,8.52 4.71,0 8.52,-3.81 8.52,-8.52 0,-4.71 -3.81,-8.52 -8.52,-8.52 -4.71,0 -8.52,3.81 -8.52,8.52 z"
       style="fill:#343e50;fill-opacity:1;fill-rule:evenodd;stroke:none"
       id="path3331" /><path
       d="m 385.08,256.08 c 0,4.71 3.81,8.52 8.52,8.52 4.71,0 8.52,-3.81 8.52,-8.52 0,-4.71 -3.81,-8.52 -8.52,-8.52 -4.71,0 -8.52,3.81 -8.52,8.52 z"
       style="fill:#e67e22;fill-opacity:1;fill-rule:evenodd;stroke:none"
       id="path3333" /><g
       id="g3335"><path
         d="M 342,273.12 V 239.1"
         style="fill:none;stroke:#95a5a6;stroke-width:0.72;stroke-linecap:butt;stroke-linejoin:round;stroke-miterlimit:10;stroke-dasharray:2.16, 0.72;stroke-dashoffset:0;stroke-opacity:1"
         id="path3337" /></g><g
       id="g3339"><path
         d="M 498.36,273.12 V 239.1"
         style="fill:none;stroke:#95a5a6;stroke-width:0.72;stroke-linecap:butt;stroke-linejoin:round;stroke-miterlimit:10;stroke-dasharray:2.16, 0.72;stroke-dashoffset:0;stroke-opacity:1"
         id="path3341" /></g><path
       d="m 545.1,247.5 h 16.92 v 17.04 H 545.1 Z"
       style="fill:none;stroke:#f1c40f;stroke-width:1.56;stroke-linecap:butt;stroke-linejoin:round;stroke-miterlimit:10;stroke-dasharray:none;stroke-opacity:1"
       id="path3343" /><path
       d="m 575.46,256.02 c 0,4.71 3.81,8.52 8.52,8.52 4.71,0 8.52,-3.81 8.52,-8.52 0,-4.71 -3.81,-8.52 -8.52,-8.52 -4.71,0 -8.52,3.81 -8.52,8.52 z"
       style="fill:none;stroke:#3498db;stroke-width:1.56;stroke-linecap:butt;stroke-linejoin:round;stroke-miterlimit:10;stroke-dasharray:none;stroke-opacity:1"
       id="path3345" /><g
       id="g3359"><g
         id="g3361"
         clip-path="url(#clipPath3365)"><text
           transform="matrix(1,0,0,-1,173.16,225.91)"
           style="font-variant:normal;font-weight:normal;font-size:15.984px;font-family:Consolas;-inkscape-font-specification:Consolas;writing-mode:lr-tb;fill:#000000;fill-opacity:1;fill-rule:nonzero;stroke:none"
           id="text3369"><tspan
             x="0 8.7600002 17.52 26.280001 35.040001 43.799999 52.560001 61.32"
             y="0"
             sodipodi:role="line"
             id="tspan3367">LN_to_GN</tspan></text></g></g><g
       id="g3371"><g
         id="g3373"
         clip-path="url(#clipPath3377)"><text
           transform="matrix(1,0,0,-1,243.26,225.91)"
           style="font-variant:normal;font-weight:normal;font-size:15.984px;font-family:Consolas;-inkscape-font-specification:Consolas;writing-mode:lr-tb;fill:#000000;fill-opacity:1;fill-rule:nonzero;stroke:none"
           id="text3381"><tspan
             x="0 8.7911997 17.518463 26.309664 35.036926 43.828129 52.443504 61.234703 69.961967 78.753166"
             y="0"
             sodipodi:role="line"
             id="tspan3379">=[1,6,4,3]</tspan></text></g></g><g
       id="g3383"><g
         id="g3385"
         clip-path="url(#clipPath3389)"><text
           transform="matrix(1,0,0,-1,351.46,225.91)"
           style="font-variant:normal;font-weight:normal;font-size:15.984px;font-family:Consolas;-inkscape-font-specification:Consolas;writing-mode:lr-tb;fill:#000000;fill-opacity:1;fill-rule:nonzero;stroke:none"
           id="text3393"><tspan
             x="0 8.7600002 17.52 26.280001 35.040001 43.799999 52.560001 61.32"
             y="0"
             sodipodi:role="line"
             id="tspan3391">LN_to_GN</tspan></text></g></g><g
       id="g3395"><g
         id="g3397"
         clip-path="url(#clipPath3401)"><text
           transform="matrix(1,0,0,-1,421.54,225.91)"
           style="font-variant:normal;font-weight:normal;font-size:15.984px;font-family:Consolas;-inkscape-font-specification:Consolas;writing-mode:lr-tb;fill:#000000;fill-opacity:1;fill-rule:nonzero;stroke:none"
           id="text3405"><tspan
             x="0 8.7911997 17.518463 26.309664 35.036926 43.828129 52.443504 61.234703"
             y="0"
             sodipodi:role="line"
             id="tspan3403">=[2,7,5]</tspan></text></g></g><g
       id="g3407"><g
         id="g3409"
         clip-path="url(#clipPath3413)"><text
           transform="matrix(1,0,0,-1,506.88,225.62)"
           style="font-variant:normal;font-weight:normal;font-size:15.96px;font-family:Consolas;-inkscape-font-specification:Consolas;writing-mode:lr-tb;fill:#000000;fill-opacity:1;fill-rule:nonzero;stroke:none"
           id="text3417"><tspan
             x="0 8.7600002 17.52 26.280001 35.040001 43.799999 52.560001 61.32"
             y="0"
             sodipodi:role="line"
             id="tspan3415">LN_to_GN</tspan></text></g></g><g
       id="g3419"><g
         id="g3421"
         clip-path="url(#clipPath3425)"><text
           transform="matrix(1,0,0,-1,576.96,225.62)"
           style="font-variant:normal;font-weight:normal;font-size:15.96px;font-family:Consolas;-inkscape-font-specification:Consolas;writing-mode:lr-tb;fill:#000000;fill-opacity:1;fill-rule:nonzero;stroke:none"
           id="text3429"><tspan
             x="0 8.7840004 17.568001 26.351999 35.136002 43.919998"
             y="0"
             sodipodi:role="line"
             id="tspan3427">=[3,5]</tspan></text></g></g></g></svg>
