<?xml version="1.0" encoding="UTF-8" standalone="no"?>
<!-- Created with Inkscape (http://www.inkscape.org/) -->

<svg
   version="1.1"
   id="svg708"
   xml:space="preserve"
   width="349.60001"
   height="45.360001"
   viewBox="0 0 349.60001 45.360001"
   sodipodi:docname="data_dist.svg"
   inkscape:version="1.1 (c68e22c387, 2021-05-23)"
   xmlns:inkscape="http://www.inkscape.org/namespaces/inkscape"
   xmlns:sodipodi="http://sodipodi.sourceforge.net/DTD/sodipodi-0.dtd"
   xmlns="http://www.w3.org/2000/svg"
   xmlns:svg="http://www.w3.org/2000/svg"><defs
     id="defs712"><clipPath
       clipPathUnits="userSpaceOnUse"
       id="clipPath722"><path
         d="M 0,1.2207e-4 H 720 V 540.00012 H 0 Z"
         clip-rule="evenodd"
         id="path720" /></clipPath><clipPath
       clipPathUnits="userSpaceOnUse"
       id="clipPath732"><path
         d="M 1.0729e-5,0 H 720.00001 V 540 H 1.0729e-5 Z"
         clip-rule="evenodd"
         id="path730" /></clipPath><clipPath
       clipPathUnits="userSpaceOnUse"
       id="clipPath772"><path
         d="M 1.0729e-5,0 H 720.00001 V 540 H 1.0729e-5 Z"
         clip-rule="evenodd"
         id="path770" /></clipPath><clipPath
       clipPathUnits="userSpaceOnUse"
       id="clipPath784"><path
         d="M 1.0729e-5,0 H 720.00001 V 540 H 1.0729e-5 Z"
         clip-rule="evenodd"
         id="path782" /></clipPath><clipPath
       clipPathUnits="userSpaceOnUse"
       id="clipPath796"><path
         d="M 1.0729e-5,0 H 720.00001 V 540 H 1.0729e-5 Z"
         clip-rule="evenodd"
         id="path794" /></clipPath><clipPath
       clipPathUnits="userSpaceOnUse"
       id="clipPath808"><path
         d="M 1.0729e-5,0 H 720.00001 V 540 H 1.0729e-5 Z"
         clip-rule="evenodd"
         id="path806" /></clipPath><clipPath
       clipPathUnits="userSpaceOnUse"
       id="clipPath820"><path
         d="M 1.0729e-5,0 H 720.00001 V 540 H 1.0729e-5 Z"
         clip-rule="evenodd"
         id="path818" /></clipPath><clipPath
       clipPathUnits="userSpaceOnUse"
       id="clipPath832"><path
         d="M 1.0729e-5,0 H 720.00001 V 540 H 1.0729e-5 Z"
         clip-rule="evenodd"
         id="path830" /></clipPath><clipPath
       clipPathUnits="userSpaceOnUse"
       id="clipPath844"><path
         d="M 1.0729e-5,0 H 720.00001 V 540 H 1.0729e-5 Z"
         clip-rule="evenodd"
         id="path842" /></clipPath><clipPath
       clipPathUnits="userSpaceOnUse"
       id="clipPath856"><path
         d="M 1.0729e-5,0 H 720.00001 V 540 H 1.0729e-5 Z"
         clip-rule="evenodd"
         id="path854" /></clipPath><clipPath
       clipPathUnits="userSpaceOnUse"
       id="clipPath868"><path
         d="M 1.0729e-5,0 H 720.00001 V 540 H 1.0729e-5 Z"
         clip-rule="evenodd"
         id="path866" /></clipPath><clipPath
       clipPathUnits="userSpaceOnUse"
       id="clipPath914"><path
         d="M 1.0729e-5,0 H 720.00001 V 540 H 1.0729e-5 Z"
         clip-rule="evenodd"
         id="path912" /></clipPath></defs><sodipodi:namedview
     id="namedview710"
     pagecolor="#ffffff"
     bordercolor="#666666"
     borderopacity="1.0"
     inkscape:pageshadow="2"
     inkscape:pageopacity="0.0"
     inkscape:pagecheckerboard="0"
     showgrid="false"
     fit-margin-top="0"
     fit-margin-left="0"
     fit-margin-right="0"
     fit-margin-bottom="0"
     inkscape:zoom="1.134375"
     inkscape:cx="-18.071625"
     inkscape:cy="245.50964"
     inkscape:window-width="1920"
     inkscape:window-height="1017"
     inkscape:window-x="-8"
     inkscape:window-y="-8"
     inkscape:window-maximized="1"
     inkscape:current-layer="g714" /><g
     id="g714"
     inkscape:groupmode="layer"
     inkscape:label="to_convert"
     transform="matrix(1.3333333,0,0,-1.3333333,-198.4,605.75998)"><path
       d="m 148.8,428.76 h 16.92 V 445.8 H 148.8 Z"
       style="fill:#c0392b;fill-opacity:1;fill-rule:evenodd;stroke:none"
       id="path874" /><path
       d="m 271.68,428.76 h 17.04 v 17.04 h -17.04 z"
       style="fill:#27ae60;fill-opacity:1;fill-rule:evenodd;stroke:none"
       id="path876" /><path
       d="m 362.4,428.76 h 17.04 V 445.8 H 362.4 Z"
       style="fill:#8e44ad;fill-opacity:1;fill-rule:evenodd;stroke:none"
       id="path878" /><path
       d="m 211.98,428.7 h 17.04 v 17.04 h -17.04 z"
       style="fill:none;stroke:#f1c40f;stroke-width:1.56;stroke-linecap:butt;stroke-linejoin:round;stroke-miterlimit:10;stroke-dasharray:none;stroke-opacity:1"
       id="path880" /><path
       d="m 303.42,437.22 c 0,4.71 3.79,8.52 8.46,8.52 4.67,0 8.46,-3.81 8.46,-8.52 0,-4.71 -3.79,-8.52 -8.46,-8.52 -4.67,0 -8.46,3.81 -8.46,8.52 z"
       style="fill:none;stroke:#3498db;stroke-width:1.56;stroke-linecap:butt;stroke-linejoin:round;stroke-miterlimit:10;stroke-dasharray:none;stroke-opacity:1"
       id="path882" /><path
       d="m 393.96,437.28 c 0,4.71 3.81,8.52 8.52,8.52 4.71,0 8.52,-3.81 8.52,-8.52 0,-4.71 -3.81,-8.52 -8.52,-8.52 -4.71,0 -8.52,3.81 -8.52,8.52 z"
       style="fill:#343e50;fill-opacity:1;fill-rule:evenodd;stroke:none"
       id="path884" /><path
       d="m 180.36,437.28 c 0,4.71 3.79,8.52 8.46,8.52 4.67,0 8.46,-3.81 8.46,-8.52 0,-4.71 -3.79,-8.52 -8.46,-8.52 -4.67,0 -8.46,3.81 -8.46,8.52 z"
       style="fill:#e67e22;fill-opacity:1;fill-rule:evenodd;stroke:none"
       id="path886" /><g
       id="g888"><path
         d="M 251.16,454.32 V 420.3"
         style="fill:none;stroke:#95a5a6;stroke-width:0.72;stroke-linecap:butt;stroke-linejoin:round;stroke-miterlimit:10;stroke-dasharray:2.16, 0.72;stroke-dashoffset:0;stroke-opacity:1"
         id="path890" /></g><g
       id="g892"><path
         d="M 341.64,454.32 V 420.3"
         style="fill:none;stroke:#95a5a6;stroke-width:0.72;stroke-linecap:butt;stroke-linejoin:round;stroke-miterlimit:10;stroke-dasharray:2.16, 0.72;stroke-dashoffset:0;stroke-opacity:1"
         id="path894" /></g></g></svg>
