<?xml version="1.0" encoding="UTF-8" standalone="no"?>
<!-- Created with Inkscape (http://www.inkscape.org/) -->

<svg
   version="1.1"
   id="svg1361"
   xml:space="preserve"
   width="435.67999"
   height="45.360001"
   viewBox="0 0 435.67999 45.360001"
   sodipodi:docname="data_part.svg"
   inkscape:version="1.1 (c68e22c387, 2021-05-23)"
   xmlns:inkscape="http://www.inkscape.org/namespaces/inkscape"
   xmlns:sodipodi="http://sodipodi.sourceforge.net/DTD/sodipodi-0.dtd"
   xmlns="http://www.w3.org/2000/svg"
   xmlns:svg="http://www.w3.org/2000/svg"><defs
     id="defs1365"><clipPath
       clipPathUnits="userSpaceOnUse"
       id="clipPath1375"><path
         d="M 0,1.2207e-4 H 720 V 540.00012 H 0 Z"
         clip-rule="evenodd"
         id="path1373" /></clipPath><clipPath
       clipPathUnits="userSpaceOnUse"
       id="clipPath1385"><path
         d="M 1.0729e-5,0 H 720.00001 V 540 H 1.0729e-5 Z"
         clip-rule="evenodd"
         id="path1383" /></clipPath><clipPath
       clipPathUnits="userSpaceOnUse"
       id="clipPath1425"><path
         d="M 1.0729e-5,0 H 720.00001 V 540 H 1.0729e-5 Z"
         clip-rule="evenodd"
         id="path1423" /></clipPath><clipPath
       clipPathUnits="userSpaceOnUse"
       id="clipPath1437"><path
         d="M 1.0729e-5,0 H 720.00001 V 540 H 1.0729e-5 Z"
         clip-rule="evenodd"
         id="path1435" /></clipPath><clipPath
       clipPathUnits="userSpaceOnUse"
       id="clipPath1449"><path
         d="M 1.0729e-5,0 H 720.00001 V 540 H 1.0729e-5 Z"
         clip-rule="evenodd"
         id="path1447" /></clipPath><clipPath
       clipPathUnits="userSpaceOnUse"
       id="clipPath1461"><path
         d="M 1.0729e-5,0 H 720.00001 V 540 H 1.0729e-5 Z"
         clip-rule="evenodd"
         id="path1459" /></clipPath><clipPath
       clipPathUnits="userSpaceOnUse"
       id="clipPath1473"><path
         d="M 1.0729e-5,0 H 720.00001 V 540 H 1.0729e-5 Z"
         clip-rule="evenodd"
         id="path1471" /></clipPath><clipPath
       clipPathUnits="userSpaceOnUse"
       id="clipPath1485"><path
         d="M 1.0729e-5,0 H 720.00001 V 540 H 1.0729e-5 Z"
         clip-rule="evenodd"
         id="path1483" /></clipPath><clipPath
       clipPathUnits="userSpaceOnUse"
       id="clipPath1497"><path
         d="M 1.0729e-5,0 H 720.00001 V 540 H 1.0729e-5 Z"
         clip-rule="evenodd"
         id="path1495" /></clipPath><clipPath
       clipPathUnits="userSpaceOnUse"
       id="clipPath1509"><path
         d="M 1.0729e-5,0 H 720.00001 V 540 H 1.0729e-5 Z"
         clip-rule="evenodd"
         id="path1507" /></clipPath><clipPath
       clipPathUnits="userSpaceOnUse"
       id="clipPath1521"><path
         d="M 1.0729e-5,0 H 720.00001 V 540 H 1.0729e-5 Z"
         clip-rule="evenodd"
         id="path1519" /></clipPath><clipPath
       clipPathUnits="userSpaceOnUse"
       id="clipPath1567"><path
         d="M 1.0729e-5,0 H 720.00001 V 540 H 1.0729e-5 Z"
         clip-rule="evenodd"
         id="path1565" /></clipPath></defs><sodipodi:namedview
     id="namedview1363"
     pagecolor="#ffffff"
     bordercolor="#666666"
     borderopacity="1.0"
     inkscape:pageshadow="2"
     inkscape:pageopacity="0.0"
     inkscape:pagecheckerboard="0"
     showgrid="false"
     fit-margin-top="0"
     fit-margin-left="0"
     fit-margin-right="0"
     fit-margin-bottom="0"
     inkscape:zoom="1.134375"
     inkscape:cx="-48.92562"
     inkscape:cy="-137.07989"
     inkscape:window-width="1920"
     inkscape:window-height="1017"
     inkscape:window-x="-8"
     inkscape:window-y="-8"
     inkscape:window-maximized="1"
     inkscape:current-layer="g1367" /><g
     id="g1367"
     inkscape:groupmode="layer"
     inkscape:label="to_convert"
     transform="matrix(1.3333333,0,0,-1.3333333,-228.79999,532.47999)"><path
       d="m 171.6,373.8 h 17.04 v 17.04 H 171.6 Z"
       style="fill:#c0392b;fill-opacity:1;fill-rule:evenodd;stroke:none"
       id="path1405" /><path
       d="m 236.28,373.8 h 17.04 v 17.04 h -17.04 z"
       style="fill:#27ae60;fill-opacity:1;fill-rule:evenodd;stroke:none"
       id="path1407" /><path
       d="m 204,373.8 h 17.04 v 17.04 H 204 Z"
       style="fill:#8e44ad;fill-opacity:1;fill-rule:evenodd;stroke:none"
       id="path1409" /><path
       d="m 268.74,373.74 h 16.92 v 17.04 h -16.92 z"
       style="fill:none;stroke:#f1c40f;stroke-width:1.56;stroke-linecap:butt;stroke-linejoin:round;stroke-miterlimit:10;stroke-dasharray:none;stroke-opacity:1"
       id="path1411" /><path
       d="m 389.58,382.26 c 0,4.71 3.81,8.52 8.52,8.52 4.71,0 8.52,-3.81 8.52,-8.52 0,-4.71 -3.81,-8.52 -8.52,-8.52 -4.71,0 -8.52,3.81 -8.52,8.52 z"
       style="fill:none;stroke:#3498db;stroke-width:1.56;stroke-linecap:butt;stroke-linejoin:round;stroke-miterlimit:10;stroke-dasharray:none;stroke-opacity:1"
       id="path1413" /><path
       d="m 360.96,382.32 c 0,4.71 3.81,8.52 8.52,8.52 4.71,0 8.52,-3.81 8.52,-8.52 0,-4.71 -3.81,-8.52 -8.52,-8.52 -4.71,0 -8.52,3.81 -8.52,8.52 z"
       style="fill:#343e50;fill-opacity:1;fill-rule:evenodd;stroke:none"
       id="path1415" /><path
       d="m 332.52,382.32 c 0,4.71 3.79,8.52 8.46,8.52 4.67,0 8.46,-3.81 8.46,-8.52 0,-4.71 -3.79,-8.52 -8.46,-8.52 -4.67,0 -8.46,3.81 -8.46,8.52 z"
       style="fill:#e67e22;fill-opacity:1;fill-rule:evenodd;stroke:none"
       id="path1417" /><g
       id="g1549"><path
         d="M 309.24,399.36 V 365.34"
         style="fill:none;stroke:#95a5a6;stroke-width:0.72;stroke-linecap:butt;stroke-linejoin:round;stroke-miterlimit:10;stroke-dasharray:2.16, 0.72;stroke-dashoffset:0;stroke-opacity:1"
         id="path1551" /></g><g
       id="g1553"><path
         d="M 428.28,399.36 V 365.34"
         style="fill:none;stroke:#95a5a6;stroke-width:0.72;stroke-linecap:butt;stroke-linejoin:round;stroke-miterlimit:10;stroke-dasharray:2.16, 0.72;stroke-dashoffset:0;stroke-opacity:1"
         id="path1555" /></g><path
       d="m 450.18,373.74 h 16.92 v 17.04 h -16.92 z"
       style="fill:none;stroke:#f1c40f;stroke-width:1.56;stroke-linecap:butt;stroke-linejoin:round;stroke-miterlimit:10;stroke-dasharray:none;stroke-opacity:1"
       id="path1557" /><path
       d="m 480.54,382.26 c 0,4.71 3.81,8.52 8.52,8.52 4.71,0 8.52,-3.81 8.52,-8.52 0,-4.71 -3.81,-8.52 -8.52,-8.52 -4.71,0 -8.52,3.81 -8.52,8.52 z"
       style="fill:none;stroke:#3498db;stroke-width:1.56;stroke-linecap:butt;stroke-linejoin:round;stroke-miterlimit:10;stroke-dasharray:none;stroke-opacity:1"
       id="path1559" /></g></svg>
