<?xml version="1.0" encoding="UTF-8" standalone="no"?>
<!-- Created with Inkscape (http://www.inkscape.org/) -->

<svg
   version="1.1"
   id="svg3838"
   xml:space="preserve"
   width="595.05634"
   height="45.360001"
   viewBox="0 0 595.05634 45.360001"
   sodipodi:docname="data_dist_gnum.svg"
   inkscape:version="1.1 (c68e22c387, 2021-05-23)"
   xmlns:inkscape="http://www.inkscape.org/namespaces/inkscape"
   xmlns:sodipodi="http://sodipodi.sourceforge.net/DTD/sodipodi-0.dtd"
   xmlns="http://www.w3.org/2000/svg"
   xmlns:svg="http://www.w3.org/2000/svg"><defs
     id="defs3842"><clipPath
       clipPathUnits="userSpaceOnUse"
       id="clipPath3852"><path
         d="M 0,1.2207e-4 H 720 V 540.00012 H 0 Z"
         clip-rule="evenodd"
         id="path3850" /></clipPath><clipPath
       clipPathUnits="userSpaceOnUse"
       id="clipPath3862"><path
         d="M 1.0729e-5,0 H 720.00001 V 540 H 1.0729e-5 Z"
         clip-rule="evenodd"
         id="path3860" /></clipPath><clipPath
       clipPathUnits="userSpaceOnUse"
       id="clipPath3902"><path
         d="M 1.0729e-5,0 H 720.00001 V 540 H 1.0729e-5 Z"
         clip-rule="evenodd"
         id="path3900" /></clipPath><clipPath
       clipPathUnits="userSpaceOnUse"
       id="clipPath3914"><path
         d="M 1.0729e-5,0 H 720.00001 V 540 H 1.0729e-5 Z"
         clip-rule="evenodd"
         id="path3912" /></clipPath><clipPath
       clipPathUnits="userSpaceOnUse"
       id="clipPath3926"><path
         d="M 1.0729e-5,0 H 720.00001 V 540 H 1.0729e-5 Z"
         clip-rule="evenodd"
         id="path3924" /></clipPath><clipPath
       clipPathUnits="userSpaceOnUse"
       id="clipPath3938"><path
         d="M 1.0729e-5,0 H 720.00001 V 540 H 1.0729e-5 Z"
         clip-rule="evenodd"
         id="path3936" /></clipPath><clipPath
       clipPathUnits="userSpaceOnUse"
       id="clipPath3950"><path
         d="M 1.0729e-5,0 H 720.00001 V 540 H 1.0729e-5 Z"
         clip-rule="evenodd"
         id="path3948" /></clipPath><clipPath
       clipPathUnits="userSpaceOnUse"
       id="clipPath3962"><path
         d="M 1.0729e-5,0 H 720.00001 V 540 H 1.0729e-5 Z"
         clip-rule="evenodd"
         id="path3960" /></clipPath><clipPath
       clipPathUnits="userSpaceOnUse"
       id="clipPath3974"><path
         d="M 1.0729e-5,0 H 720.00001 V 540 H 1.0729e-5 Z"
         clip-rule="evenodd"
         id="path3972" /></clipPath><clipPath
       clipPathUnits="userSpaceOnUse"
       id="clipPath3986"><path
         d="M 1.0729e-5,0 H 720.00001 V 540 H 1.0729e-5 Z"
         clip-rule="evenodd"
         id="path3984" /></clipPath><clipPath
       clipPathUnits="userSpaceOnUse"
       id="clipPath3998"><path
         d="M 1.0729e-5,0 H 720.00001 V 540 H 1.0729e-5 Z"
         clip-rule="evenodd"
         id="path3996" /></clipPath><clipPath
       clipPathUnits="userSpaceOnUse"
       id="clipPath4044"><path
         d="M 1.0729e-5,0 H 720.00001 V 540 H 1.0729e-5 Z"
         clip-rule="evenodd"
         id="path4042" /></clipPath><clipPath
       clipPathUnits="userSpaceOnUse"
       id="clipPath4056"><path
         d="M 1.0729e-5,0 H 720.00001 V 540 H 1.0729e-5 Z"
         clip-rule="evenodd"
         id="path4054" /></clipPath><clipPath
       clipPathUnits="userSpaceOnUse"
       id="clipPath4090"><path
         d="M 1.0729e-5,0 H 720.00001 V 540 H 1.0729e-5 Z"
         clip-rule="evenodd"
         id="path4088" /></clipPath><clipPath
       clipPathUnits="userSpaceOnUse"
       id="clipPath4102"><path
         d="M 1.0729e-5,0 H 720.00001 V 540 H 1.0729e-5 Z"
         clip-rule="evenodd"
         id="path4100" /></clipPath><clipPath
       clipPathUnits="userSpaceOnUse"
       id="clipPath4114"><path
         d="M 1.0729e-5,0 H 720.00001 V 540 H 1.0729e-5 Z"
         clip-rule="evenodd"
         id="path4112" /></clipPath><clipPath
       clipPathUnits="userSpaceOnUse"
       id="clipPath4126"><path
         d="M 1.0729e-5,0 H 720.00001 V 540 H 1.0729e-5 Z"
         clip-rule="evenodd"
         id="path4124" /></clipPath><clipPath
       clipPathUnits="userSpaceOnUse"
       id="clipPath4164"><path
         d="M 1.0729e-5,0 H 720.00001 V 540 H 1.0729e-5 Z"
         clip-rule="evenodd"
         id="path4162" /></clipPath><clipPath
       clipPathUnits="userSpaceOnUse"
       id="clipPath4176"><path
         d="M 1.0729e-5,0 H 720.00001 V 540 H 1.0729e-5 Z"
         clip-rule="evenodd"
         id="path4174" /></clipPath><clipPath
       clipPathUnits="userSpaceOnUse"
       id="clipPath4188"><path
         d="M 1.0729e-5,0 H 720.00001 V 540 H 1.0729e-5 Z"
         clip-rule="evenodd"
         id="path4186" /></clipPath><clipPath
       clipPathUnits="userSpaceOnUse"
       id="clipPath4200"><path
         d="M 1.0729e-5,0 H 720.00001 V 540 H 1.0729e-5 Z"
         clip-rule="evenodd"
         id="path4198" /></clipPath><clipPath
       clipPathUnits="userSpaceOnUse"
       id="clipPath4212"><path
         d="M 1.0729e-5,0 H 720.00001 V 540 H 1.0729e-5 Z"
         clip-rule="evenodd"
         id="path4210" /></clipPath><clipPath
       clipPathUnits="userSpaceOnUse"
       id="clipPath4224"><path
         d="M 1.0729e-5,0 H 720.00001 V 540 H 1.0729e-5 Z"
         clip-rule="evenodd"
         id="path4222" /></clipPath><clipPath
       clipPathUnits="userSpaceOnUse"
       id="clipPath4236"><path
         d="M 1.0729e-5,0 H 720.00001 V 540 H 1.0729e-5 Z"
         clip-rule="evenodd"
         id="path4234" /></clipPath></defs><sodipodi:namedview
     id="namedview3840"
     pagecolor="#ffffff"
     bordercolor="#666666"
     borderopacity="1.0"
     inkscape:pageshadow="2"
     inkscape:pageopacity="0.0"
     inkscape:pagecheckerboard="0"
     showgrid="false"
     fit-margin-top="0"
     fit-margin-left="0"
     fit-margin-right="0"
     fit-margin-bottom="0"
     inkscape:zoom="1.134375"
     inkscape:cx="-18.071625"
     inkscape:cy="53.333333"
     inkscape:window-width="1920"
     inkscape:window-height="1017"
     inkscape:window-x="-8"
     inkscape:window-y="-8"
     inkscape:window-maximized="1"
     inkscape:current-layer="g3844" /><g
     id="g3844"
     inkscape:groupmode="layer"
     inkscape:label="to_convert"
     transform="matrix(1.3333333,0,0,-1.3333333,-198.4,462.23999)"><path
       d="m 148.8,321.12 h 16.92 v 17.04 H 148.8 Z"
       style="fill:#c0392b;fill-opacity:1;fill-rule:evenodd;stroke:none"
       id="path4062" /><path
       d="m 271.68,321.12 h 17.04 v 17.04 h -17.04 z"
       style="fill:#27ae60;fill-opacity:1;fill-rule:evenodd;stroke:none"
       id="path4064" /><path
       d="m 362.4,321.12 h 17.04 v 17.04 H 362.4 Z"
       style="fill:#8e44ad;fill-opacity:1;fill-rule:evenodd;stroke:none"
       id="path4066" /><path
       d="m 211.98,321.06 h 17.04 v 17.04 h -17.04 z"
       style="fill:none;stroke:#f1c40f;stroke-width:1.56;stroke-linecap:butt;stroke-linejoin:round;stroke-miterlimit:10;stroke-dasharray:none;stroke-opacity:1"
       id="path4068" /><path
       d="m 303.42,329.58 c 0,4.71 3.79,8.52 8.46,8.52 4.67,0 8.46,-3.81 8.46,-8.52 0,-4.71 -3.79,-8.52 -8.46,-8.52 -4.67,0 -8.46,3.81 -8.46,8.52 z"
       style="fill:none;stroke:#3498db;stroke-width:1.56;stroke-linecap:butt;stroke-linejoin:round;stroke-miterlimit:10;stroke-dasharray:none;stroke-opacity:1"
       id="path4070" /><path
       d="m 393.96,329.64 c 0,4.71 3.81,8.52 8.52,8.52 4.71,0 8.52,-3.81 8.52,-8.52 0,-4.71 -3.81,-8.52 -8.52,-8.52 -4.71,0 -8.52,3.81 -8.52,8.52 z"
       style="fill:#343e50;fill-opacity:1;fill-rule:evenodd;stroke:none"
       id="path4072" /><path
       d="m 180.36,329.64 c 0,4.71 3.79,8.52 8.46,8.52 4.67,0 8.46,-3.81 8.46,-8.52 0,-4.71 -3.79,-8.52 -8.46,-8.52 -4.67,0 -8.46,3.81 -8.46,8.52 z"
       style="fill:#e67e22;fill-opacity:1;fill-rule:evenodd;stroke:none"
       id="path4074" /><g
       id="g4076"><path
         d="M 251.16,346.68 V 312.66"
         style="fill:none;stroke:#95a5a6;stroke-width:0.72;stroke-linecap:butt;stroke-linejoin:round;stroke-miterlimit:10;stroke-dasharray:2.16, 0.72;stroke-dashoffset:0;stroke-opacity:1"
         id="path4078" /></g><g
       id="g4080"><path
         d="M 341.64,346.68 V 312.66"
         style="fill:none;stroke:#95a5a6;stroke-width:0.72;stroke-linecap:butt;stroke-linejoin:round;stroke-miterlimit:10;stroke-dasharray:2.16, 0.72;stroke-dashoffset:0;stroke-opacity:1"
         id="path4082" /></g><g
       id="g4084"><g
         id="g4086"
         clip-path="url(#clipPath4090)"><text
           transform="matrix(1,0,0,-1,459.96,323.64)"
           style="font-variant:normal;font-weight:normal;font-size:18px;font-family:Consolas;-inkscape-font-specification:Consolas;writing-mode:lr-tb;fill:#000000;fill-opacity:1;fill-rule:nonzero;stroke:none"
           id="text4094"><tspan
             x="0"
             y="0"
             id="tspan4092">d</tspan></text></g></g><g
       id="g4096"><g
         id="g4098"
         clip-path="url(#clipPath4102)"><text
           transform="matrix(1,0,0,-1,469.8,323.64)"
           style="font-variant:normal;font-weight:normal;font-size:18px;font-family:Consolas;-inkscape-font-specification:Consolas;writing-mode:lr-tb;fill:#000000;fill-opacity:1;fill-rule:nonzero;stroke:none"
           id="text4106"><tspan
             x="0 9.8400002 19.68"
             y="0"
             sodipodi:role="line"
             id="tspan4104">ist</tspan></text></g></g><g
       id="g4108"><g
         id="g4110"
         clip-path="url(#clipPath4114)"><text
           transform="matrix(1,0,0,-1,499.32,323.64)"
           style="font-variant:normal;font-weight:normal;font-size:18px;font-family:Consolas;-inkscape-font-specification:Consolas;writing-mode:lr-tb;fill:#000000;fill-opacity:1;fill-rule:nonzero;stroke:none"
           id="text4118"><tspan
             x="0"
             y="0"
             id="tspan4116">=</tspan></text></g></g><g
       id="g4120"><g
         id="g4122"
         clip-path="url(#clipPath4126)"><text
           transform="matrix(1,0,0,-1,509.28,323.64)"
           style="font-variant:normal;font-weight:normal;font-size:18px;font-family:Consolas;-inkscape-font-specification:Consolas;writing-mode:lr-tb;fill:#000000;fill-opacity:1;fill-rule:nonzero;stroke:none"
           id="text4130"><tspan
             x="0 9.8459997 19.691999 29.628 39.473999 49.32 59.166 69.101997 78.947998"
             y="0"
             sodipodi:role="line"
             id="tspan4128">[0,3,5,7]</tspan></text></g></g></g></svg>
