<?xml version="1.0" encoding="UTF-8" standalone="no"?>
<!-- Created with Inkscape (http://www.inkscape.org/) -->

<svg
   version="1.1"
   id="svg2"
   xml:space="preserve"
   width="808.30328"
   height="210.66731"
   viewBox="0 0 808.30329 210.66731"
   sodipodi:docname="part_mesh_arrays.svg"
   inkscape:version="1.1 (c68e22c387, 2021-05-23)"
   xmlns:inkscape="http://www.inkscape.org/namespaces/inkscape"
   xmlns:sodipodi="http://sodipodi.sourceforge.net/DTD/sodipodi-0.dtd"
   xmlns="http://www.w3.org/2000/svg"
   xmlns:svg="http://www.w3.org/2000/svg"
   xmlns:rdf="http://www.w3.org/1999/02/22-rdf-syntax-ns#"
   xmlns:cc="http://creativecommons.org/ns#"
   xmlns:dc="http://purl.org/dc/elements/1.1/"><metadata
     id="metadata8"><rdf:RDF><cc:Work
         rdf:about=""><dc:format>image/svg+xml</dc:format><dc:type
           rdf:resource="http://purl.org/dc/dcmitype/StillImage" /></cc:Work></rdf:RDF></metadata><defs
     id="defs6"><clipPath
       clipPathUnits="userSpaceOnUse"
       id="clipPath18"><path
         d="M 0,1.2207e-4 H 720 V 540.00012 H 0 Z"
         id="path16"
         inkscape:connector-curvature="0"
         style="clip-rule:evenodd" /></clipPath><clipPath
       clipPathUnits="userSpaceOnUse"
       id="clipPath74"><path
         d="M 1.0729e-5,0 H 720.00001 V 540 H 1.0729e-5 Z"
         id="path72"
         inkscape:connector-curvature="0"
         style="clip-rule:evenodd" /></clipPath><clipPath
       clipPathUnits="userSpaceOnUse"
       id="clipPath86"><path
         d="M 1.0729e-5,0 H 720.00001 V 540 H 1.0729e-5 Z"
         id="path84"
         inkscape:connector-curvature="0"
         style="clip-rule:evenodd" /></clipPath><clipPath
       clipPathUnits="userSpaceOnUse"
       id="clipPath98"><path
         d="M 1.0729e-5,0 H 720.00001 V 540 H 1.0729e-5 Z"
         id="path96"
         inkscape:connector-curvature="0"
         style="clip-rule:evenodd" /></clipPath><clipPath
       clipPathUnits="userSpaceOnUse"
       id="clipPath110"><path
         d="M 1.0729e-5,0 H 720.00001 V 540 H 1.0729e-5 Z"
         id="path108"
         inkscape:connector-curvature="0"
         style="clip-rule:evenodd" /></clipPath><clipPath
       clipPathUnits="userSpaceOnUse"
       id="clipPath248"><path
         d="M -3.49e-6,540 H 720 V 0 H -2.3175e-5"
         id="path246"
         inkscape:connector-curvature="0"
         style="clip-rule:evenodd" /></clipPath><clipPath
       clipPathUnits="userSpaceOnUse"
       id="clipPath258"><path
         d="M 6.741e-6,540 H 720 V 0 H -1.2944e-5"
         id="path256"
         inkscape:connector-curvature="0"
         style="clip-rule:evenodd" /></clipPath><clipPath
       clipPathUnits="userSpaceOnUse"
       id="clipPath268"><path
         d="M 6.587e-6,540 H 720 V 0 H -1.3098e-5"
         id="path266"
         inkscape:connector-curvature="0"
         style="clip-rule:evenodd" /></clipPath><clipPath
       clipPathUnits="userSpaceOnUse"
       id="clipPath278"><path
         d="M 1.0729e-5,0 H 720.00001 V 540 H 1.0729e-5 Z"
         id="path276"
         inkscape:connector-curvature="0"
         style="clip-rule:evenodd" /></clipPath><clipPath
       clipPathUnits="userSpaceOnUse"
       id="clipPath290"><path
         d="M 1.0729e-5,0 H 720.00001 V 540 H 1.0729e-5 Z"
         id="path288"
         inkscape:connector-curvature="0"
         style="clip-rule:evenodd" /></clipPath><clipPath
       clipPathUnits="userSpaceOnUse"
       id="clipPath302"><path
         d="M 1.0729e-5,0 H 720.00001 V 540 H 1.0729e-5 Z"
         id="path300"
         inkscape:connector-curvature="0"
         style="clip-rule:evenodd" /></clipPath><clipPath
       clipPathUnits="userSpaceOnUse"
       id="clipPath314"><path
         d="M 2.0787e-5,540 H 720 V 0 H -1.8583e-5"
         id="path312"
         inkscape:connector-curvature="0"
         style="clip-rule:evenodd" /></clipPath><clipPath
       clipPathUnits="userSpaceOnUse"
       id="clipPath324"><path
         d="M -3.0016e-5,540 H 720 V 0 H -6.9386e-5"
         id="path322"
         inkscape:connector-curvature="0"
         style="clip-rule:evenodd" /></clipPath><clipPath
       clipPathUnits="userSpaceOnUse"
       id="clipPath334"><path
         d="M -1.4912e-5,540 H 720 V 0 H -5.4282e-5"
         id="path332"
         inkscape:connector-curvature="0"
         style="clip-rule:evenodd" /></clipPath><clipPath
       clipPathUnits="userSpaceOnUse"
       id="clipPath344"><path
         d="M 1.0729e-5,0 H 720.00001 V 540 H 1.0729e-5 Z"
         id="path342"
         inkscape:connector-curvature="0"
         style="clip-rule:evenodd" /></clipPath><clipPath
       clipPathUnits="userSpaceOnUse"
       id="clipPath356"><path
         d="M 1.0729e-5,0 H 720.00001 V 540 H 1.0729e-5 Z"
         id="path354"
         inkscape:connector-curvature="0"
         style="clip-rule:evenodd" /></clipPath><clipPath
       clipPathUnits="userSpaceOnUse"
       id="clipPath368"><path
         d="M 1.0729e-5,0 H 720.00001 V 540 H 1.0729e-5 Z"
         id="path366"
         inkscape:connector-curvature="0"
         style="clip-rule:evenodd" /></clipPath><clipPath
       clipPathUnits="userSpaceOnUse"
       id="clipPath380"><path
         d="M 1.0729e-5,0 H 720.00001 V 540 H 1.0729e-5 Z"
         id="path378"
         inkscape:connector-curvature="0"
         style="clip-rule:evenodd" /></clipPath><clipPath
       clipPathUnits="userSpaceOnUse"
       id="clipPath392"><path
         d="M -5.405e-6,540 H 720 V 1.2207e-4 H -2.509e-5"
         id="path390"
         inkscape:connector-curvature="0"
         style="clip-rule:evenodd" /></clipPath><clipPath
       clipPathUnits="userSpaceOnUse"
       id="clipPath402"><path
         d="M -4.646e-6,540 H 720 V 1.2207e-4 H -2.4331e-5"
         id="path400"
         inkscape:connector-curvature="0"
         style="clip-rule:evenodd" /></clipPath><clipPath
       clipPathUnits="userSpaceOnUse"
       id="clipPath412"><path
         d="M 5.86e-6,540 H 720 V 1.2207e-4 H -1.3825e-5"
         id="path410"
         inkscape:connector-curvature="0"
         style="clip-rule:evenodd" /></clipPath><clipPath
       clipPathUnits="userSpaceOnUse"
       id="clipPath422"><path
         d="M 1.0855e-5,540 H 720 V 1.2207e-4 H -8.83e-6"
         id="path420"
         inkscape:connector-curvature="0"
         style="clip-rule:evenodd" /></clipPath><clipPath
       clipPathUnits="userSpaceOnUse"
       id="clipPath432"><path
         d="M 5.91e-7,540 H 720 V 1.2207e-4 H -1.9094e-5"
         id="path430"
         inkscape:connector-curvature="0"
         style="clip-rule:evenodd" /></clipPath><clipPath
       clipPathUnits="userSpaceOnUse"
       id="clipPath442"><path
         d="M 9.821e-6,540 H 720 V 1.2207e-4 H -9.864e-6"
         id="path440"
         inkscape:connector-curvature="0"
         style="clip-rule:evenodd" /></clipPath><clipPath
       clipPathUnits="userSpaceOnUse"
       id="clipPath452"><path
         d="M 3.792e-6,540 H 720 V 1.2207e-4 H -1.5894e-5"
         id="path450"
         inkscape:connector-curvature="0"
         style="clip-rule:evenodd" /></clipPath><clipPath
       clipPathUnits="userSpaceOnUse"
       id="clipPath462"><path
         d="M 3.913e-6,540 H 720 V 1.2207e-4 H -1.5772e-5"
         id="path460"
         inkscape:connector-curvature="0"
         style="clip-rule:evenodd" /></clipPath><clipPath
       clipPathUnits="userSpaceOnUse"
       id="clipPath472"><path
         d="M 2.2064e-5,540 H 720 V 1.2207e-4 H -1.7306e-5"
         id="path470"
         inkscape:connector-curvature="0"
         style="clip-rule:evenodd" /></clipPath><clipPath
       clipPathUnits="userSpaceOnUse"
       id="clipPath482"><path
         d="M 7.565e-6,540 H 720 V 1.2207e-4 H -3.1805e-5"
         id="path480"
         inkscape:connector-curvature="0"
         style="clip-rule:evenodd" /></clipPath><clipPath
       clipPathUnits="userSpaceOnUse"
       id="clipPath492"><path
         d="M 2.812e-6,540 H 720 V 1.2207e-4 H -3.6558e-5"
         id="path490"
         inkscape:connector-curvature="0"
         style="clip-rule:evenodd" /></clipPath><clipPath
       clipPathUnits="userSpaceOnUse"
       id="clipPath502"><path
         d="M 7.807e-6,540 H 720 V 1.2207e-4 H -3.1563e-5"
         id="path500"
         inkscape:connector-curvature="0"
         style="clip-rule:evenodd" /></clipPath><clipPath
       clipPathUnits="userSpaceOnUse"
       id="clipPath512"><path
         d="M -1.7716e-5,540 H 720 V 1.2207e-4 H -5.7086e-5"
         id="path510"
         inkscape:connector-curvature="0"
         style="clip-rule:evenodd" /></clipPath><clipPath
       clipPathUnits="userSpaceOnUse"
       id="clipPath522"><path
         d="M -2.3745e-5,540 H 720 V 1.2207e-4 H -6.3115e-5"
         id="path520"
         inkscape:connector-curvature="0"
         style="clip-rule:evenodd" /></clipPath><clipPath
       clipPathUnits="userSpaceOnUse"
       id="clipPath532"><path
         d="M -2.9774e-5,540 H 720 V 1.2207e-4 H -6.9144e-5"
         id="path530"
         inkscape:connector-curvature="0"
         style="clip-rule:evenodd" /></clipPath><clipPath
       clipPathUnits="userSpaceOnUse"
       id="clipPath542"><path
         d="M 8.64e-7,540 H 720 V 1.2207e-4 H -3.8506e-5"
         id="path540"
         inkscape:connector-curvature="0"
         style="clip-rule:evenodd" /></clipPath><clipPath
       clipPathUnits="userSpaceOnUse"
       id="clipPath552"><path
         d="M 1.0729e-5,0 H 720.00001 V 540 H 1.0729e-5 Z"
         id="path550"
         inkscape:connector-curvature="0"
         style="clip-rule:evenodd" /></clipPath><clipPath
       clipPathUnits="userSpaceOnUse"
       id="clipPath564"><path
         d="M 1.0729e-5,0 H 720.00001 V 540 H 1.0729e-5 Z"
         id="path562"
         inkscape:connector-curvature="0"
         style="clip-rule:evenodd" /></clipPath><clipPath
       clipPathUnits="userSpaceOnUse"
       id="clipPath576"><path
         d="M 1.0729e-5,0 H 720.00001 V 540 H 1.0729e-5 Z"
         id="path574"
         inkscape:connector-curvature="0"
         style="clip-rule:evenodd" /></clipPath><clipPath
       clipPathUnits="userSpaceOnUse"
       id="clipPath588"><path
         d="M 1.0729e-5,0 H 720.00001 V 540 H 1.0729e-5 Z"
         id="path586"
         inkscape:connector-curvature="0"
         style="clip-rule:evenodd" /></clipPath><clipPath
       clipPathUnits="userSpaceOnUse"
       id="clipPath600"><path
         d="M 1.0729e-5,0 H 720.00001 V 540 H 1.0729e-5 Z"
         id="path598"
         inkscape:connector-curvature="0"
         style="clip-rule:evenodd" /></clipPath></defs><sodipodi:namedview
     pagecolor="#ffffff"
     bordercolor="#666666"
     borderopacity="1"
     objecttolerance="10"
     gridtolerance="10"
     guidetolerance="10"
     inkscape:pageopacity="0"
     inkscape:pageshadow="2"
     inkscape:window-width="1920"
     inkscape:window-height="1017"
     id="namedview4"
     showgrid="false"
     fit-margin-top="0"
     fit-margin-left="0"
     fit-margin-right="0"
     fit-margin-bottom="0"
     inkscape:zoom="0.92709556"
     inkscape:cx="339.23148"
     inkscape:cy="284.22097"
     inkscape:window-x="-8"
     inkscape:window-y="-8"
     inkscape:window-maximized="1"
     inkscape:current-layer="g10"
     inkscape:pagecheckerboard="0" /><g
     id="g10"
     inkscape:groupmode="layer"
     inkscape:label="dist_part_2"
     transform="matrix(1.3333333,0,0,-1.3333333,-71.376717,369.05236)"><path
       d="M 166.26,225.78 H 302.34 V 254.1 H 166.26 Z"
       style="fill:#bfbfbf;fill-opacity:1;fill-rule:evenodd;stroke:none"
       id="path22"
       inkscape:connector-curvature="0" /><path
       d="M 166.26,225.78 H 302.34 V 254.1 H 166.26 Z"
       style="fill:none;stroke:#000000;stroke-width:2.04;stroke-linecap:butt;stroke-linejoin:round;stroke-miterlimit:10;stroke-dasharray:none;stroke-opacity:1"
       id="path24"
       inkscape:connector-curvature="0" /><path
       d="M 183.24,254.16 V 225.81"
       style="fill:none;stroke:#000000;stroke-width:0.72;stroke-linecap:butt;stroke-linejoin:round;stroke-miterlimit:10;stroke-dasharray:none;stroke-opacity:1"
       id="path26"
       inkscape:connector-curvature="0" /><path
       d="M 200.28,254.16 V 225.81"
       style="fill:none;stroke:#000000;stroke-width:0.72;stroke-linecap:butt;stroke-linejoin:round;stroke-miterlimit:10;stroke-dasharray:none;stroke-opacity:1"
       id="path28"
       inkscape:connector-curvature="0" /><path
       d="M 217.2,254.16 V 225.81"
       style="fill:none;stroke:#000000;stroke-width:0.72;stroke-linecap:butt;stroke-linejoin:round;stroke-miterlimit:10;stroke-dasharray:none;stroke-opacity:1"
       id="path30"
       inkscape:connector-curvature="0" /><path
       d="M 234.24,254.16 V 225.81"
       style="fill:none;stroke:#000000;stroke-width:0.72;stroke-linecap:butt;stroke-linejoin:round;stroke-miterlimit:10;stroke-dasharray:none;stroke-opacity:1"
       id="path32"
       inkscape:connector-curvature="0" /><path
       d="M 251.28,254.16 V 225.81"
       style="fill:none;stroke:#000000;stroke-width:0.72;stroke-linecap:butt;stroke-linejoin:round;stroke-miterlimit:10;stroke-dasharray:none;stroke-opacity:1"
       id="path34"
       inkscape:connector-curvature="0" /><path
       d="M 268.32,254.16 V 225.81"
       style="fill:none;stroke:#000000;stroke-width:0.72;stroke-linecap:butt;stroke-linejoin:round;stroke-miterlimit:10;stroke-dasharray:none;stroke-opacity:1"
       id="path36"
       inkscape:connector-curvature="0" /><path
       d="M 285.24,254.16 V 225.81"
       style="fill:none;stroke:#000000;stroke-width:0.72;stroke-linecap:butt;stroke-linejoin:round;stroke-miterlimit:10;stroke-dasharray:none;stroke-opacity:1"
       id="path38"
       inkscape:connector-curvature="0" /><path
       d="M 302.28,254.16 V 225.81"
       style="fill:none;stroke:#000000;stroke-width:0.72;stroke-linecap:butt;stroke-linejoin:round;stroke-miterlimit:10;stroke-dasharray:none;stroke-opacity:1"
       id="path40"
       inkscape:connector-curvature="0" /><path
       d="M 164.58,144.36 H 366.9 v 28.32 H 164.58 Z"
       style="fill:#bfbfbf;fill-opacity:1;fill-rule:evenodd;stroke:none"
       id="path42"
       inkscape:connector-curvature="0" /><path
       d="M 164.58,144.36 H 366.9 v 28.32 H 164.58 Z"
       style="fill:none;stroke:#000000;stroke-width:2.04;stroke-linecap:butt;stroke-linejoin:round;stroke-miterlimit:10;stroke-dasharray:none;stroke-opacity:1"
       id="path44"
       inkscape:connector-curvature="0" /><path
       d="M 181.56,172.74 V 144.39"
       style="fill:none;stroke:#000000;stroke-width:0.72;stroke-linecap:butt;stroke-linejoin:round;stroke-miterlimit:10;stroke-dasharray:none;stroke-opacity:1"
       id="path46"
       inkscape:connector-curvature="0" /><path
       d="M 198.6,172.74 V 144.39"
       style="fill:none;stroke:#000000;stroke-width:0.72;stroke-linecap:butt;stroke-linejoin:round;stroke-miterlimit:10;stroke-dasharray:none;stroke-opacity:1"
       id="path48"
       inkscape:connector-curvature="0" /><path
       d="M 215.64,172.74 V 144.39"
       style="fill:none;stroke:#000000;stroke-width:0.72;stroke-linecap:butt;stroke-linejoin:round;stroke-miterlimit:10;stroke-dasharray:none;stroke-opacity:1"
       id="path50"
       inkscape:connector-curvature="0" /><path
       d="M 232.62,172.68 V 144.33"
       style="fill:none;stroke:#000000;stroke-width:1.56;stroke-linecap:butt;stroke-linejoin:round;stroke-miterlimit:10;stroke-dasharray:none;stroke-opacity:1"
       id="path52"
       inkscape:connector-curvature="0" /><path
       d="M 249.6,172.74 V 144.39"
       style="fill:none;stroke:#000000;stroke-width:0.72;stroke-linecap:butt;stroke-linejoin:round;stroke-miterlimit:10;stroke-dasharray:none;stroke-opacity:1"
       id="path54"
       inkscape:connector-curvature="0" /><path
       d="M 266.64,172.74 V 144.39"
       style="fill:none;stroke:#000000;stroke-width:0.72;stroke-linecap:butt;stroke-linejoin:round;stroke-miterlimit:10;stroke-dasharray:none;stroke-opacity:1"
       id="path56"
       inkscape:connector-curvature="0" /><path
       d="M 283.68,172.74 V 144.39"
       style="fill:none;stroke:#000000;stroke-width:0.72;stroke-linecap:butt;stroke-linejoin:round;stroke-miterlimit:10;stroke-dasharray:none;stroke-opacity:1"
       id="path58"
       inkscape:connector-curvature="0" /><path
       d="M 300.66,172.68 V 144.33"
       style="fill:none;stroke:#000000;stroke-width:1.56;stroke-linecap:butt;stroke-linejoin:round;stroke-miterlimit:10;stroke-dasharray:none;stroke-opacity:1"
       id="path60"
       inkscape:connector-curvature="0" /><path
       d="M 317.64,172.74 V 144.39"
       style="fill:none;stroke:#000000;stroke-width:0.72;stroke-linecap:butt;stroke-linejoin:round;stroke-miterlimit:10;stroke-dasharray:none;stroke-opacity:1"
       id="path62"
       inkscape:connector-curvature="0" /><path
       d="M 334.68,172.74 V 144.39"
       style="fill:none;stroke:#000000;stroke-width:0.72;stroke-linecap:butt;stroke-linejoin:round;stroke-miterlimit:10;stroke-dasharray:none;stroke-opacity:1"
       id="path64"
       inkscape:connector-curvature="0" /><path
       d="M 351.72,172.74 V 144.39"
       style="fill:none;stroke:#000000;stroke-width:0.72;stroke-linecap:butt;stroke-linejoin:round;stroke-miterlimit:10;stroke-dasharray:none;stroke-opacity:1"
       id="path66"
       inkscape:connector-curvature="0" /><g
       id="g68"><g
         id="g70"
         clip-path="url(#clipPath74)"><text
   transform="matrix(1,0,0,-1,52.68,233.16)"
   style="font-variant:normal;font-weight:normal;font-size:18px;font-family:Calibri;-inkscape-font-specification:Calibri;writing-mode:lr-tb;fill:#000000;fill-opacity:1;fill-rule:nonzero;stroke:none"
   id="text78"
   y="0"><tspan
     x="0 9.5939999 19.08 28.566 34.560001 44.009998 48.150002 57.599998 66.113998 71.874001 80.837997"
     y="0"
     sodipodi:role="line"
     id="tspan76">CoordinateX</tspan></text>
</g></g><g
       id="g80"><g
         id="g82"
         clip-path="url(#clipPath86)"><text
   transform="matrix(1,0,0,-1,52.776,193.56)"
   style="font-variant:normal;font-weight:normal;font-size:18px;font-family:Calibri;-inkscape-font-specification:Calibri;writing-mode:lr-tb;fill:#000000;fill-opacity:1;fill-rule:nonzero;stroke:none"
   id="text90"
   y="0"><tspan
     x="0 9.5939999 19.08 28.566 34.560001 44.009998 48.150002 57.599998 66.113998 71.874001 80.837997"
     y="0"
     sodipodi:role="line"
     id="tspan88">CoordinateY</tspan></text>
</g></g><g
       id="g104"
       transform="translate(0,61.5)"><g
         id="g106"
         clip-path="url(#clipPath110)"><text
   transform="matrix(1,0,0,-1,56.4,91.464)"
   style="font-variant:normal;font-weight:normal;font-size:18px;font-family:Calibri;-inkscape-font-specification:Calibri;writing-mode:lr-tb;fill:#000000;fill-opacity:1;fill-rule:nonzero;stroke:none"
   id="text114"
   y="0"><tspan
     x="0 9.5939999 19.08 28.620001 38.105999 47.105999 54.666 60.695999 64.746002 72.882004 77.022003 82.980003"
     y="0"
     sodipodi:role="line"
     id="tspan112">Connectivity</tspan></text>
</g></g><path
       d="m 456.06,225.18 h 136.08 v 28.44 H 456.06 Z"
       style="fill:#bfbfbf;fill-opacity:1;fill-rule:evenodd;stroke:none"
       id="path116"
       inkscape:connector-curvature="0" /><path
       d="m 456.06,225.18 h 136.08 v 28.44 H 456.06 Z"
       style="fill:none;stroke:#000000;stroke-width:2.04;stroke-linecap:butt;stroke-linejoin:round;stroke-miterlimit:10;stroke-dasharray:none;stroke-opacity:1"
       id="path118"
       inkscape:connector-curvature="0" /><path
       d="M 472.92,253.68 V 225.33"
       style="fill:none;stroke:#000000;stroke-width:0.72;stroke-linecap:butt;stroke-linejoin:round;stroke-miterlimit:10;stroke-dasharray:none;stroke-opacity:1"
       id="path120"
       inkscape:connector-curvature="0" /><path
       d="M 489.96,253.68 V 225.33"
       style="fill:none;stroke:#000000;stroke-width:0.72;stroke-linecap:butt;stroke-linejoin:round;stroke-miterlimit:10;stroke-dasharray:none;stroke-opacity:1"
       id="path122"
       inkscape:connector-curvature="0" /><path
       d="M 507,253.68 V 225.33"
       style="fill:none;stroke:#000000;stroke-width:0.72;stroke-linecap:butt;stroke-linejoin:round;stroke-miterlimit:10;stroke-dasharray:none;stroke-opacity:1"
       id="path124"
       inkscape:connector-curvature="0" /><path
       d="M 524.04,253.68 V 225.33"
       style="fill:none;stroke:#000000;stroke-width:0.72;stroke-linecap:butt;stroke-linejoin:round;stroke-miterlimit:10;stroke-dasharray:none;stroke-opacity:1"
       id="path126"
       inkscape:connector-curvature="0" /><path
       d="M 540.96,253.68 V 225.33"
       style="fill:none;stroke:#000000;stroke-width:0.72;stroke-linecap:butt;stroke-linejoin:round;stroke-miterlimit:10;stroke-dasharray:none;stroke-opacity:1"
       id="path128"
       inkscape:connector-curvature="0" /><path
       d="M 558,253.68 V 225.33"
       style="fill:none;stroke:#000000;stroke-width:0.72;stroke-linecap:butt;stroke-linejoin:round;stroke-miterlimit:10;stroke-dasharray:none;stroke-opacity:1"
       id="path130"
       inkscape:connector-curvature="0" /><path
       d="M 575.04,253.68 V 225.33"
       style="fill:none;stroke:#000000;stroke-width:0.72;stroke-linecap:butt;stroke-linejoin:round;stroke-miterlimit:10;stroke-dasharray:none;stroke-opacity:1"
       id="path132"
       inkscape:connector-curvature="0" /><path
       d="M 592.08,253.68 V 225.33"
       style="fill:none;stroke:#000000;stroke-width:0.72;stroke-linecap:butt;stroke-linejoin:round;stroke-miterlimit:10;stroke-dasharray:none;stroke-opacity:1"
       id="path134"
       inkscape:connector-curvature="0" /><path
       d="m 166.74,185.46 h 136.08 v 28.32 H 166.74 Z"
       style="fill:#bfbfbf;fill-opacity:1;fill-rule:evenodd;stroke:none"
       id="path136"
       inkscape:connector-curvature="0" /><path
       d="m 166.74,185.46 h 136.08 v 28.32 H 166.74 Z"
       style="fill:none;stroke:#000000;stroke-width:2.04;stroke-linecap:butt;stroke-linejoin:round;stroke-miterlimit:10;stroke-dasharray:none;stroke-opacity:1"
       id="path138"
       inkscape:connector-curvature="0" /><path
       d="M 183.72,213.84 V 185.49"
       style="fill:none;stroke:#000000;stroke-width:0.72;stroke-linecap:butt;stroke-linejoin:round;stroke-miterlimit:10;stroke-dasharray:none;stroke-opacity:1"
       id="path140"
       inkscape:connector-curvature="0" /><path
       d="M 200.64,213.84 V 185.49"
       style="fill:none;stroke:#000000;stroke-width:0.72;stroke-linecap:butt;stroke-linejoin:round;stroke-miterlimit:10;stroke-dasharray:none;stroke-opacity:1"
       id="path142"
       inkscape:connector-curvature="0" /><path
       d="M 217.68,213.84 V 185.49"
       style="fill:none;stroke:#000000;stroke-width:0.72;stroke-linecap:butt;stroke-linejoin:round;stroke-miterlimit:10;stroke-dasharray:none;stroke-opacity:1"
       id="path144"
       inkscape:connector-curvature="0" /><path
       d="M 234.72,213.84 V 185.49"
       style="fill:none;stroke:#000000;stroke-width:0.72;stroke-linecap:butt;stroke-linejoin:round;stroke-miterlimit:10;stroke-dasharray:none;stroke-opacity:1"
       id="path146"
       inkscape:connector-curvature="0" /><path
       d="M 251.76,213.84 V 185.49"
       style="fill:none;stroke:#000000;stroke-width:0.72;stroke-linecap:butt;stroke-linejoin:round;stroke-miterlimit:10;stroke-dasharray:none;stroke-opacity:1"
       id="path148"
       inkscape:connector-curvature="0" /><path
       d="M 268.68,213.84 V 185.49"
       style="fill:none;stroke:#000000;stroke-width:0.72;stroke-linecap:butt;stroke-linejoin:round;stroke-miterlimit:10;stroke-dasharray:none;stroke-opacity:1"
       id="path150"
       inkscape:connector-curvature="0" /><path
       d="M 285.72,213.84 V 185.49"
       style="fill:none;stroke:#000000;stroke-width:0.72;stroke-linecap:butt;stroke-linejoin:round;stroke-miterlimit:10;stroke-dasharray:none;stroke-opacity:1"
       id="path152"
       inkscape:connector-curvature="0" /><path
       d="M 302.76,213.84 V 185.49"
       style="fill:none;stroke:#000000;stroke-width:0.72;stroke-linecap:butt;stroke-linejoin:round;stroke-miterlimit:10;stroke-dasharray:none;stroke-opacity:1"
       id="path154"
       inkscape:connector-curvature="0" /><path
       d="M 456.42,184.86 H 592.5 V 213.3 H 456.42 Z"
       style="fill:#bfbfbf;fill-opacity:1;fill-rule:evenodd;stroke:none"
       id="path156"
       inkscape:connector-curvature="0" /><path
       d="M 456.42,184.86 H 592.5 V 213.3 H 456.42 Z"
       style="fill:none;stroke:#000000;stroke-width:2.04;stroke-linecap:butt;stroke-linejoin:round;stroke-miterlimit:10;stroke-dasharray:none;stroke-opacity:1"
       id="path158"
       inkscape:connector-curvature="0" /><path
       d="M 473.4,213.36 V 185.01"
       style="fill:none;stroke:#000000;stroke-width:0.72;stroke-linecap:butt;stroke-linejoin:round;stroke-miterlimit:10;stroke-dasharray:none;stroke-opacity:1"
       id="path160"
       inkscape:connector-curvature="0" /><path
       d="M 490.44,213.36 V 185.01"
       style="fill:none;stroke:#000000;stroke-width:0.72;stroke-linecap:butt;stroke-linejoin:round;stroke-miterlimit:10;stroke-dasharray:none;stroke-opacity:1"
       id="path162"
       inkscape:connector-curvature="0" /><path
       d="M 507.36,213.36 V 185.01"
       style="fill:none;stroke:#000000;stroke-width:0.72;stroke-linecap:butt;stroke-linejoin:round;stroke-miterlimit:10;stroke-dasharray:none;stroke-opacity:1"
       id="path164"
       inkscape:connector-curvature="0" /><path
       d="M 524.4,213.36 V 185.01"
       style="fill:none;stroke:#000000;stroke-width:0.72;stroke-linecap:butt;stroke-linejoin:round;stroke-miterlimit:10;stroke-dasharray:none;stroke-opacity:1"
       id="path166"
       inkscape:connector-curvature="0" /><path
       d="M 541.44,213.36 V 185.01"
       style="fill:none;stroke:#000000;stroke-width:0.72;stroke-linecap:butt;stroke-linejoin:round;stroke-miterlimit:10;stroke-dasharray:none;stroke-opacity:1"
       id="path168"
       inkscape:connector-curvature="0" /><path
       d="M 558.48,213.36 V 185.01"
       style="fill:none;stroke:#000000;stroke-width:0.72;stroke-linecap:butt;stroke-linejoin:round;stroke-miterlimit:10;stroke-dasharray:none;stroke-opacity:1"
       id="path170"
       inkscape:connector-curvature="0" /><path
       d="M 575.4,213.36 V 185.01"
       style="fill:none;stroke:#000000;stroke-width:0.72;stroke-linecap:butt;stroke-linejoin:round;stroke-miterlimit:10;stroke-dasharray:none;stroke-opacity:1"
       id="path172"
       inkscape:connector-curvature="0" /><path
       d="M 592.44,213.36 V 185.01"
       style="fill:none;stroke:#000000;stroke-width:0.72;stroke-linecap:butt;stroke-linejoin:round;stroke-miterlimit:10;stroke-dasharray:none;stroke-opacity:1"
       id="path174"
       inkscape:connector-curvature="0" /><path
       d="M 456.42,143.88 H 658.74 V 172.2 H 456.42 Z"
       style="fill:#bfbfbf;fill-opacity:1;fill-rule:evenodd;stroke:none"
       id="path216"
       inkscape:connector-curvature="0" /><path
       d="M 456.42,143.88 H 658.74 V 172.2 H 456.42 Z"
       style="fill:none;stroke:#000000;stroke-width:2.04;stroke-linecap:butt;stroke-linejoin:round;stroke-miterlimit:10;stroke-dasharray:none;stroke-opacity:1"
       id="path218"
       inkscape:connector-curvature="0" /><path
       d="M 473.4,172.26 V 143.91"
       style="fill:none;stroke:#000000;stroke-width:0.72;stroke-linecap:butt;stroke-linejoin:round;stroke-miterlimit:10;stroke-dasharray:none;stroke-opacity:1"
       id="path220"
       inkscape:connector-curvature="0" /><path
       d="M 490.44,172.26 V 143.91"
       style="fill:none;stroke:#000000;stroke-width:0.72;stroke-linecap:butt;stroke-linejoin:round;stroke-miterlimit:10;stroke-dasharray:none;stroke-opacity:1"
       id="path222"
       inkscape:connector-curvature="0" /><path
       d="M 507.36,172.26 V 143.91"
       style="fill:none;stroke:#000000;stroke-width:0.72;stroke-linecap:butt;stroke-linejoin:round;stroke-miterlimit:10;stroke-dasharray:none;stroke-opacity:1"
       id="path224"
       inkscape:connector-curvature="0" /><path
       d="M 524.46,172.2 V 143.85"
       style="fill:none;stroke:#000000;stroke-width:1.56;stroke-linecap:butt;stroke-linejoin:round;stroke-miterlimit:10;stroke-dasharray:none;stroke-opacity:1"
       id="path226"
       inkscape:connector-curvature="0" /><path
       d="M 541.44,172.26 V 143.91"
       style="fill:none;stroke:#000000;stroke-width:0.72;stroke-linecap:butt;stroke-linejoin:round;stroke-miterlimit:10;stroke-dasharray:none;stroke-opacity:1"
       id="path228"
       inkscape:connector-curvature="0" /><path
       d="M 558.48,172.26 V 143.91"
       style="fill:none;stroke:#000000;stroke-width:0.72;stroke-linecap:butt;stroke-linejoin:round;stroke-miterlimit:10;stroke-dasharray:none;stroke-opacity:1"
       id="path230"
       inkscape:connector-curvature="0" /><path
       d="M 575.4,172.26 V 143.91"
       style="fill:none;stroke:#000000;stroke-width:0.72;stroke-linecap:butt;stroke-linejoin:round;stroke-miterlimit:10;stroke-dasharray:none;stroke-opacity:1"
       id="path232"
       inkscape:connector-curvature="0" /><path
       d="M 592.5,172.2 V 143.85"
       style="fill:none;stroke:#000000;stroke-width:1.56;stroke-linecap:butt;stroke-linejoin:round;stroke-miterlimit:10;stroke-dasharray:none;stroke-opacity:1"
       id="path234"
       inkscape:connector-curvature="0" /><path
       d="M 609.48,172.26 V 143.91"
       style="fill:none;stroke:#000000;stroke-width:0.72;stroke-linecap:butt;stroke-linejoin:round;stroke-miterlimit:10;stroke-dasharray:none;stroke-opacity:1"
       id="path236"
       inkscape:connector-curvature="0" /><path
       d="M 626.52,172.26 V 143.91"
       style="fill:none;stroke:#000000;stroke-width:0.72;stroke-linecap:butt;stroke-linejoin:round;stroke-miterlimit:10;stroke-dasharray:none;stroke-opacity:1"
       id="path238"
       inkscape:connector-curvature="0" /><path
       d="M 643.44,172.26 V 143.91"
       style="fill:none;stroke:#000000;stroke-width:0.72;stroke-linecap:butt;stroke-linejoin:round;stroke-miterlimit:10;stroke-dasharray:none;stroke-opacity:1"
       id="path240"
       inkscape:connector-curvature="0" /><g
       id="g242"
       transform="translate(0,61.5)"><g
         id="g244"
         clip-path="url(#clipPath248)"><path
           d="m 228.48,82.68 c 0,-2.618 -0.35,-4.74 -0.79,-4.74 h -29.02 c -0.44,0 -0.79,-2.122 -0.79,-4.74 0,2.618 -0.35,4.74 -0.79,4.74 h -29.02 c -0.44,0 -0.79,2.122 -0.79,4.74"
           style="fill:none;stroke:#000000;stroke-width:0.96;stroke-linecap:butt;stroke-linejoin:round;stroke-miterlimit:10;stroke-dasharray:none;stroke-opacity:1"
           id="path250"
           inkscape:connector-curvature="0" /></g></g><g
       id="g252"
       transform="translate(0,61.5)"><g
         id="g254"
         clip-path="url(#clipPath258)"><path
           d="m 297.36,82.68 c 0,-2.618 -0.35,-4.74 -0.79,-4.74 h -29.02 c -0.44,0 -0.79,-2.122 -0.79,-4.74 0,2.618 -0.35,4.74 -0.79,4.74 h -29.02 c -0.44,0 -0.79,2.122 -0.79,4.74"
           style="fill:none;stroke:#000000;stroke-width:0.96;stroke-linecap:butt;stroke-linejoin:round;stroke-miterlimit:10;stroke-dasharray:none;stroke-opacity:1"
           id="path260"
           inkscape:connector-curvature="0" /></g></g><g
       id="g262"
       transform="translate(0,61.5)"><g
         id="g264"
         clip-path="url(#clipPath268)"><path
           d="m 366.12,82.68 c 0,-2.618 -0.35,-4.74 -0.79,-4.74 h -29.02 c -0.44,0 -0.79,-2.122 -0.79,-4.74 0,2.618 -0.35,4.74 -0.79,4.74 h -29.02 c -0.44,0 -0.79,2.122 -0.79,4.74"
           style="fill:none;stroke:#000000;stroke-width:0.96;stroke-linecap:butt;stroke-linejoin:round;stroke-miterlimit:10;stroke-dasharray:none;stroke-opacity:1"
           id="path270"
           inkscape:connector-curvature="0" /></g></g><g
       id="g272"
       transform="translate(0,61.5)"><g
         id="g274"
         clip-path="url(#clipPath278)"><text
   transform="matrix(1,0,0,-1,192.31,57.456)"
   style="font-variant:normal;font-weight:normal;font-size:18.024px;font-family:Calibri;-inkscape-font-specification:Calibri;writing-mode:lr-tb;fill:#8064a2;fill-opacity:1;fill-rule:nonzero;stroke:none"
   id="text282"><tspan
     x="0"
     y="0"
     id="tspan280">1</tspan></text>
</g></g><g
       id="g284"
       transform="translate(0,61.5)"><g
         id="g286"
         clip-path="url(#clipPath290)"><text
   transform="matrix(1,0,0,-1,261.17,57.456)"
   style="font-variant:normal;font-weight:normal;font-size:18.024px;font-family:Calibri;-inkscape-font-specification:Calibri;writing-mode:lr-tb;fill:#8064a2;fill-opacity:1;fill-rule:nonzero;stroke:none"
   id="text294"><tspan
     x="0"
     y="0"
     id="tspan292">2</tspan></text>
</g></g><g
       id="g296"
       transform="translate(0,61.5)"><g
         id="g298"
         clip-path="url(#clipPath302)"><text
   transform="matrix(1,0,0,-1,330,57.456)"
   style="font-variant:normal;font-weight:normal;font-size:18.024px;font-family:Calibri;-inkscape-font-specification:Calibri;writing-mode:lr-tb;fill:#8064a2;fill-opacity:1;fill-rule:nonzero;stroke:none"
   id="text306"><tspan
     x="0"
     y="0"
     id="tspan304">3</tspan></text>
</g></g><g
       id="g308"
       transform="translate(0,61.5)"><g
         id="g310"
         clip-path="url(#clipPath314)"><path
           d="m 517.56,82.92 c 0,-2.618 -0.35,-4.74 -0.79,-4.74 h -29.02 c -0.44,0 -0.79,-2.122 -0.79,-4.74 0,2.618 -0.35,4.74 -0.79,4.74 h -29.02 c -0.44,0 -0.79,2.122 -0.79,4.74"
           style="fill:none;stroke:#000000;stroke-width:0.96;stroke-linecap:butt;stroke-linejoin:round;stroke-miterlimit:10;stroke-dasharray:none;stroke-opacity:1"
           id="path316"
           inkscape:connector-curvature="0" /></g></g><g
       id="g318"
       transform="translate(0,61.5)"><g
         id="g320"
         clip-path="url(#clipPath324)"><path
           d="m 586.44,82.92 c 0,-2.618 -0.35,-4.74 -0.79,-4.74 h -29.02 c -0.44,0 -0.79,-2.122 -0.79,-4.74 0,2.618 -0.35,4.74 -0.79,4.74 h -29.02 c -0.44,0 -0.79,2.122 -0.79,4.74"
           style="fill:none;stroke:#000000;stroke-width:0.96;stroke-linecap:butt;stroke-linejoin:round;stroke-miterlimit:10;stroke-dasharray:none;stroke-opacity:1"
           id="path326"
           inkscape:connector-curvature="0" /></g></g><g
       id="g328"
       transform="translate(0,61.5)"><g
         id="g330"
         clip-path="url(#clipPath334)"><path
           d="m 655.2,82.92 c 0,-2.618 -0.35,-4.74 -0.79,-4.74 h -29.02 c -0.44,0 -0.79,-2.122 -0.79,-4.74 0,2.618 -0.35,4.74 -0.79,4.74 h -29.02 c -0.44,0 -0.79,2.122 -0.79,4.74"
           style="fill:none;stroke:#000000;stroke-width:0.96;stroke-linecap:butt;stroke-linejoin:round;stroke-miterlimit:10;stroke-dasharray:none;stroke-opacity:1"
           id="path336"
           inkscape:connector-curvature="0" /></g></g><g
       id="g338"
       transform="translate(0,61.5)"><g
         id="g340"
         clip-path="url(#clipPath344)"><text
   transform="matrix(1,0,0,-1,481.49,57.672)"
   style="font-variant:normal;font-weight:normal;font-size:18.024px;font-family:Calibri;-inkscape-font-specification:Calibri;writing-mode:lr-tb;fill:#1f497d;fill-opacity:1;fill-rule:nonzero;stroke:none"
   id="text348"><tspan
     x="0"
     y="0"
     id="tspan346">1</tspan></text>
</g></g><g
       id="g350"
       transform="translate(0,61.5)"><g
         id="g352"
         clip-path="url(#clipPath356)"><text
   transform="matrix(1,0,0,-1,550.32,57.672)"
   style="font-variant:normal;font-weight:normal;font-size:18.024px;font-family:Calibri;-inkscape-font-specification:Calibri;writing-mode:lr-tb;fill:#1f497d;fill-opacity:1;fill-rule:nonzero;stroke:none"
   id="text360"><tspan
     x="0"
     y="0"
     id="tspan358">2</tspan></text>
</g></g><g
       id="g362"
       transform="translate(0,61.5)"><g
         id="g364"
         clip-path="url(#clipPath368)"><text
   transform="matrix(1,0,0,-1,619.18,57.672)"
   style="font-variant:normal;font-weight:normal;font-size:18.024px;font-family:Calibri;-inkscape-font-specification:Calibri;writing-mode:lr-tb;fill:#1f497d;fill-opacity:1;fill-rule:nonzero;stroke:none"
   id="text372"><tspan
     x="0"
     y="0"
     id="tspan370">3</tspan></text>
</g></g><g
       id="g374"><g
         id="g376"
         clip-path="url(#clipPath380)"><text
   transform="matrix(1,0,0,-1,170.54,267.98)"
   style="font-variant:normal;font-weight:normal;font-size:14.04px;font-family:'Courier New';-inkscape-font-specification:CourierNewPSMT;writing-mode:lr-tb;fill:#00b050;fill-opacity:1;fill-rule:nonzero;stroke:none"
   id="text384"
   y="0"><tspan
     x="0 8.4239998 16.80588 25.229879 33.611759 42.035759 50.417641 58.701241 67.125237 75.507118 83.931122 92.186638 100.61064 108.99252 117.27612 125.70012"
     y="0"
     sodipodi:role="line"
     id="tspan382">1 2 3 4 5 6 7 8 </tspan></text>
</g></g><g
       id="g386"><g
         id="g388"
         clip-path="url(#clipPath392)"><path
           d="m 181.56,257.88 c 0,2.19 -0.79,3.96 -1.77,3.96 h -4.14 c -0.98,0 -1.77,1.77 -1.77,3.96 0,-2.19 -0.79,-3.96 -1.77,-3.96 h -4.14 c -0.98,0 -1.77,-1.77 -1.77,-3.96"
           style="fill:none;stroke:#000000;stroke-width:0.96;stroke-linecap:butt;stroke-linejoin:round;stroke-miterlimit:10;stroke-dasharray:none;stroke-opacity:1"
           id="path394"
           inkscape:connector-curvature="0" /></g></g><g
       id="g396"><g
         id="g398"
         clip-path="url(#clipPath402)"><path
           d="m 199.2,257.88 c 0,2.19 -0.79,3.96 -1.77,3.96 h -4.14 c -0.98,0 -1.77,1.77 -1.77,3.96 0,-2.19 -0.79,-3.96 -1.77,-3.96 h -4.14 c -0.98,0 -1.77,-1.77 -1.77,-3.96"
           style="fill:none;stroke:#000000;stroke-width:0.96;stroke-linecap:butt;stroke-linejoin:round;stroke-miterlimit:10;stroke-dasharray:none;stroke-opacity:1"
           id="path404"
           inkscape:connector-curvature="0" /></g></g><g
       id="g406"><g
         id="g408"
         clip-path="url(#clipPath412)"><path
           d="m 216.6,257.88 c 0,2.19 -0.79,3.96 -1.77,3.96 h -4.14 c -0.98,0 -1.77,1.77 -1.77,3.96 0,-2.19 -0.79,-3.96 -1.77,-3.96 h -4.14 c -0.98,0 -1.77,-1.77 -1.77,-3.96"
           style="fill:none;stroke:#000000;stroke-width:0.96;stroke-linecap:butt;stroke-linejoin:round;stroke-miterlimit:10;stroke-dasharray:none;stroke-opacity:1"
           id="path414"
           inkscape:connector-curvature="0" /></g></g><g
       id="g416"><g
         id="g418"
         clip-path="url(#clipPath422)"><path
           d="m 233.76,257.76 c 0,2.19 -0.79,3.96 -1.77,3.96 h -4.14 c -0.98,0 -1.77,1.77 -1.77,3.96 0,-2.19 -0.79,-3.96 -1.77,-3.96 h -4.14 c -0.98,0 -1.77,-1.77 -1.77,-3.96"
           style="fill:none;stroke:#000000;stroke-width:0.96;stroke-linecap:butt;stroke-linejoin:round;stroke-miterlimit:10;stroke-dasharray:none;stroke-opacity:1"
           id="path424"
           inkscape:connector-curvature="0" /></g></g><g
       id="g426"><g
         id="g428"
         clip-path="url(#clipPath432)"><path
           d="m 250.92,257.76 c 0,2.19 -0.79,3.96 -1.77,3.96 h -4.14 c -0.98,0 -1.77,1.77 -1.77,3.96 0,-2.19 -0.79,-3.96 -1.77,-3.96 h -4.14 c -0.98,0 -1.77,-1.77 -1.77,-3.96"
           style="fill:none;stroke:#000000;stroke-width:0.96;stroke-linecap:butt;stroke-linejoin:round;stroke-miterlimit:10;stroke-dasharray:none;stroke-opacity:1"
           id="path434"
           inkscape:connector-curvature="0" /></g></g><g
       id="g436"><g
         id="g438"
         clip-path="url(#clipPath442)"><path
           d="m 267.6,257.64 c 0,2.19 -0.79,3.96 -1.77,3.96 h -4.14 c -0.98,0 -1.77,1.77 -1.77,3.96 0,-2.19 -0.79,-3.96 -1.77,-3.96 h -4.14 c -0.98,0 -1.77,-1.77 -1.77,-3.96"
           style="fill:none;stroke:#000000;stroke-width:0.96;stroke-linecap:butt;stroke-linejoin:round;stroke-miterlimit:10;stroke-dasharray:none;stroke-opacity:1"
           id="path444"
           inkscape:connector-curvature="0" /></g></g><g
       id="g446"><g
         id="g448"
         clip-path="url(#clipPath452)"><path
           d="m 284.28,257.64 c 0,2.19 -0.79,3.96 -1.77,3.96 h -4.14 c -0.98,0 -1.77,1.77 -1.77,3.96 0,-2.19 -0.79,-3.96 -1.77,-3.96 h -4.14 c -0.98,0 -1.77,-1.77 -1.77,-3.96"
           style="fill:none;stroke:#000000;stroke-width:0.96;stroke-linecap:butt;stroke-linejoin:round;stroke-miterlimit:10;stroke-dasharray:none;stroke-opacity:1"
           id="path454"
           inkscape:connector-curvature="0" /></g></g><g
       id="g456"><g
         id="g458"
         clip-path="url(#clipPath462)"><path
           d="m 301.56,257.88 c 0,2.19 -0.79,3.96 -1.77,3.96 h -4.14 c -0.98,0 -1.77,1.77 -1.77,3.96 0,-2.19 -0.79,-3.96 -1.77,-3.96 h -4.14 c -0.98,0 -1.77,-1.77 -1.77,-3.96"
           style="fill:none;stroke:#000000;stroke-width:0.96;stroke-linecap:butt;stroke-linejoin:round;stroke-miterlimit:10;stroke-dasharray:none;stroke-opacity:1"
           id="path464"
           inkscape:connector-curvature="0" /></g></g><g
       id="g466"><g
         id="g468"
         clip-path="url(#clipPath472)"><path
           d="m 472.44,258 c 0,2.19 -0.79,3.96 -1.77,3.96 h -4.14 c -0.98,0 -1.77,1.77 -1.77,3.96 0,-2.19 -0.79,-3.96 -1.77,-3.96 h -4.14 c -0.98,0 -1.77,-1.77 -1.77,-3.96"
           style="fill:none;stroke:#000000;stroke-width:0.96;stroke-linecap:butt;stroke-linejoin:round;stroke-miterlimit:10;stroke-dasharray:none;stroke-opacity:1"
           id="path474"
           inkscape:connector-curvature="0" /></g></g><g
       id="g476"><g
         id="g478"
         clip-path="url(#clipPath482)"><path
           d="m 490.08,258 c 0,2.19 -0.79,3.96 -1.77,3.96 h -4.14 c -0.98,0 -1.77,1.77 -1.77,3.96 0,-2.19 -0.79,-3.96 -1.77,-3.96 h -4.14 c -0.98,0 -1.77,-1.77 -1.77,-3.96"
           style="fill:none;stroke:#000000;stroke-width:0.96;stroke-linecap:butt;stroke-linejoin:round;stroke-miterlimit:10;stroke-dasharray:none;stroke-opacity:1"
           id="path484"
           inkscape:connector-curvature="0" /></g></g><g
       id="g486"><g
         id="g488"
         clip-path="url(#clipPath492)"><path
           d="m 507.36,258 c 0,2.19 -0.79,3.96 -1.77,3.96 h -4.08 c -0.98,0 -1.77,1.77 -1.77,3.96 0,-2.19 -0.79,-3.96 -1.77,-3.96 h -4.08 c -0.98,0 -1.77,-1.77 -1.77,-3.96"
           style="fill:none;stroke:#000000;stroke-width:0.96;stroke-linecap:butt;stroke-linejoin:round;stroke-miterlimit:10;stroke-dasharray:none;stroke-opacity:1"
           id="path494"
           inkscape:connector-curvature="0" /></g></g><g
       id="g496"><g
         id="g498"
         clip-path="url(#clipPath502)"><path
           d="m 524.64,258 c 0,2.19 -0.79,3.96 -1.77,3.96 h -4.14 c -0.98,0 -1.77,1.77 -1.77,3.96 0,-2.19 -0.79,-3.96 -1.77,-3.96 h -4.14 c -0.98,0 -1.77,-1.77 -1.77,-3.96"
           style="fill:none;stroke:#000000;stroke-width:0.96;stroke-linecap:butt;stroke-linejoin:round;stroke-miterlimit:10;stroke-dasharray:none;stroke-opacity:1"
           id="path504"
           inkscape:connector-curvature="0" /></g></g><g
       id="g506"><g
         id="g508"
         clip-path="url(#clipPath512)"><path
           d="m 541.8,258 c 0,2.19 -0.79,3.96 -1.77,3.96 h -4.14 c -0.98,0 -1.77,1.77 -1.77,3.96 0,-2.19 -0.79,-3.96 -1.77,-3.96 h -4.14 c -0.98,0 -1.77,-1.77 -1.77,-3.96"
           style="fill:none;stroke:#000000;stroke-width:0.96;stroke-linecap:butt;stroke-linejoin:round;stroke-miterlimit:10;stroke-dasharray:none;stroke-opacity:1"
           id="path514"
           inkscape:connector-curvature="0" /></g></g><g
       id="g516"><g
         id="g518"
         clip-path="url(#clipPath522)"><path
           d="m 558.48,257.76 c 0,2.19 -0.79,3.96 -1.77,3.96 h -4.14 c -0.98,0 -1.77,1.77 -1.77,3.96 0,-2.19 -0.79,-3.96 -1.77,-3.96 h -4.14 c -0.98,0 -1.77,-1.77 -1.77,-3.96"
           style="fill:none;stroke:#000000;stroke-width:0.96;stroke-linecap:butt;stroke-linejoin:round;stroke-miterlimit:10;stroke-dasharray:none;stroke-opacity:1"
           id="path524"
           inkscape:connector-curvature="0" /></g></g><g
       id="g526"><g
         id="g528"
         clip-path="url(#clipPath532)"><path
           d="m 575.16,257.76 c 0,2.19 -0.79,3.96 -1.77,3.96 h -4.14 c -0.98,0 -1.77,1.77 -1.77,3.96 0,-2.19 -0.79,-3.96 -1.77,-3.96 h -4.14 c -0.98,0 -1.77,-1.77 -1.77,-3.96"
           style="fill:none;stroke:#000000;stroke-width:0.96;stroke-linecap:butt;stroke-linejoin:round;stroke-miterlimit:10;stroke-dasharray:none;stroke-opacity:1"
           id="path534"
           inkscape:connector-curvature="0" /></g></g><g
       id="g536"><g
         id="g538"
         clip-path="url(#clipPath542)"><path
           d="m 592.44,258 c 0,2.19 -0.79,3.96 -1.77,3.96 h -4.14 c -0.98,0 -1.77,1.77 -1.77,3.96 0,-2.19 -0.79,-3.96 -1.77,-3.96 h -4.14 c -0.98,0 -1.77,-1.77 -1.77,-3.96"
           style="fill:none;stroke:#000000;stroke-width:0.96;stroke-linecap:butt;stroke-linejoin:round;stroke-miterlimit:10;stroke-dasharray:none;stroke-opacity:1"
           id="path544"
           inkscape:connector-curvature="0" /></g></g><g
       id="g546"><g
         id="g548"
         clip-path="url(#clipPath552)"><text
   transform="matrix(1,0,0,-1,461.23,267.43)"
   style="font-variant:normal;font-weight:normal;font-size:14.04px;font-family:'Courier New';-inkscape-font-specification:CourierNewPSMT;writing-mode:lr-tb;fill:#f79646;fill-opacity:1;fill-rule:nonzero;stroke:none"
   id="text556"
   y="0"><tspan
     x="0 8.4239998 16.80588 25.229879 33.611759 42.035759 50.417641 58.701241 67.125237 75.507118 83.931122 92.186638 100.61064 108.99252 117.27612 125.70012"
     y="0"
     sodipodi:role="line"
     id="tspan554">1 2 3 4 5 6 7 8 </tspan></text>
</g></g><g
       id="g558"
       transform="translate(0,61.5)"><g
         id="g560"
         clip-path="url(#clipPath564)"><text
   transform="matrix(1,0,0,-1,169.68,91.68)"
   style="font-variant:normal;font-weight:normal;font-size:14.04px;font-family:'Courier New';-inkscape-font-specification:CourierNewPSMT;writing-mode:lr-tb;fill:#00b050;fill-opacity:1;fill-rule:nonzero;stroke:none"
   id="text568"
   y="0"><tspan
     x="0 8.4239998 16.80588 25.229879 33.611759 42.035759 50.417641 58.701241 67.125237 75.507118 83.931122 92.186638 100.61064 108.99252 117.27612"
     y="0"
     sodipodi:role="line"
     id="tspan566">6 5 2 1 8 7 5 6</tspan></text>
</g></g><g
       id="g570"
       transform="translate(0,61.5)"><g
         id="g572"
         clip-path="url(#clipPath576)"><text
   transform="matrix(1,0,0,-1,304.94,91.68)"
   style="font-variant:normal;font-weight:normal;font-size:14.04px;font-family:'Courier New';-inkscape-font-specification:CourierNewPSMT;writing-mode:lr-tb;fill:#00b050;fill-opacity:1;fill-rule:nonzero;stroke:none"
   id="text580"
   y="0"><tspan
     x="0 8.3999996 16.799999 25.200001 33.599998 42 50.400002"
     y="0"
     sodipodi:role="line"
     id="tspan578">5 4 3 2</tspan></text>
</g></g><g
       id="g582"
       transform="translate(0,61.5)"><g
         id="g584"
         clip-path="url(#clipPath588)"><text
   transform="matrix(1,0,0,-1,460.75,91.176)"
   style="font-variant:normal;font-weight:normal;font-size:14.04px;font-family:'Courier New';-inkscape-font-specification:CourierNewPSMT;writing-mode:lr-tb;fill:#f79646;fill-opacity:1;fill-rule:nonzero;stroke:none"
   id="text592"
   y="0"><tspan
     x="0 8.4239998 16.80588 25.229879 33.611759 42.035759 50.417641 58.701241 67.125237 75.507118 83.931122 92.186638 100.61064 108.99252 117.27612"
     y="0"
     sodipodi:role="line"
     id="tspan590">6 7 4 3 7 8 5 4</tspan></text>
</g></g><g
       id="g594"
       transform="translate(0,61.5)"><g
         id="g596"
         clip-path="url(#clipPath600)"><text
   transform="matrix(1,0,0,-1,596.02,91.176)"
   style="font-variant:normal;font-weight:normal;font-size:14.04px;font-family:'Courier New';-inkscape-font-specification:CourierNewPSMT;writing-mode:lr-tb;fill:#f79646;fill-opacity:1;fill-rule:nonzero;stroke:none"
   id="text604"
   y="0"><tspan
     x="0 8.3999996 16.799999 25.200001 33.599998 42 50.400002"
     y="0"
     sodipodi:role="line"
     id="tspan602">4 5 2 1</tspan></text>
</g></g></g></svg>
