<?xml version="1.0" encoding="UTF-8" standalone="no"?>
<!-- Created with Inkscape (http://www.inkscape.org/) -->

<svg
   xmlns:dc="http://purl.org/dc/elements/1.1/"
   xmlns:cc="http://creativecommons.org/ns#"
   xmlns:rdf="http://www.w3.org/1999/02/22-rdf-syntax-ns#"
   xmlns:svg="http://www.w3.org/2000/svg"
   xmlns="http://www.w3.org/2000/svg"
   xmlns:sodipodi="http://sodipodi.sourceforge.net/DTD/sodipodi-0.dtd"
   xmlns:inkscape="http://www.inkscape.org/namespaces/inkscape"
   version="1.1"
   id="svg2"
   xml:space="preserve"
   width="685.85364"
   height="332.44394"
   viewBox="0 0 685.85364 332.44394"
   sodipodi:docname="workflow.svg"
   inkscape:version="0.92.3 (2405546, 2018-03-11)"><metadata
     id="metadata8"><rdf:RDF><cc:Work
         rdf:about=""><dc:format>image/svg+xml</dc:format><dc:type
           rdf:resource="http://purl.org/dc/dcmitype/StillImage" /><dc:title></dc:title></cc:Work></rdf:RDF></metadata><defs
     id="defs6"><clipPath
       clipPathUnits="userSpaceOnUse"
       id="clipPath18"><path
         d="M 0,1.2207e-4 H 720 V 540.00012 H 0 Z"
         id="path16"
         inkscape:connector-curvature="0"
         style="clip-rule:evenodd" /></clipPath><clipPath
       clipPathUnits="userSpaceOnUse"
       id="clipPath30"><path
         d="M 1.0729e-5,0 H 720.00001 V 540 H 1.0729e-5 Z"
         id="path28"
         inkscape:connector-curvature="0"
         style="clip-rule:evenodd" /></clipPath><clipPath
       clipPathUnits="userSpaceOnUse"
       id="clipPath42"><path
         d="M -3.3575e-5,540 H 720 V -1.2207e-4 L -7.498e-6,-6.1035e-5"
         id="path40"
         inkscape:connector-curvature="0"
         style="clip-rule:evenodd" /></clipPath><clipPath
       clipPathUnits="userSpaceOnUse"
       id="clipPath52"><path
         d="M -3.229e-5,540 H 720 V 1.2207e-4 L -4.8242e-5,6.1035e-5"
         id="path50"
         inkscape:connector-curvature="0"
         style="clip-rule:evenodd" /></clipPath><clipPath
       clipPathUnits="userSpaceOnUse"
       id="clipPath66"><path
         d="M 1.0729e-5,0 H 720.00001 V 540 H 1.0729e-5 Z"
         id="path64"
         inkscape:connector-curvature="0"
         style="clip-rule:evenodd" /></clipPath><clipPath
       clipPathUnits="userSpaceOnUse"
       id="clipPath78"><path
         d="M 1.0729e-5,0 H 720.00001 V 540 H 1.0729e-5 Z"
         id="path76"
         inkscape:connector-curvature="0"
         style="clip-rule:evenodd" /></clipPath><clipPath
       clipPathUnits="userSpaceOnUse"
       id="clipPath90"><path
         d="M 1.0729e-5,0 H 720.00001 V 540 H 1.0729e-5 Z"
         id="path88"
         inkscape:connector-curvature="0"
         style="clip-rule:evenodd" /></clipPath><clipPath
       clipPathUnits="userSpaceOnUse"
       id="clipPath102"><path
         d="M 1.0729e-5,0 H 720.00001 V 540 H 1.0729e-5 Z"
         id="path100"
         inkscape:connector-curvature="0"
         style="clip-rule:evenodd" /></clipPath><clipPath
       clipPathUnits="userSpaceOnUse"
       id="clipPath114"><path
         d="M 1.0729e-5,0 H 720.00001 V 540 H 1.0729e-5 Z"
         id="path112"
         inkscape:connector-curvature="0"
         style="clip-rule:evenodd" /></clipPath><clipPath
       clipPathUnits="userSpaceOnUse"
       id="clipPath126"><path
         d="M 1.0729e-5,0 H 720.00001 V 540 H 1.0729e-5 Z"
         id="path124"
         inkscape:connector-curvature="0"
         style="clip-rule:evenodd" /></clipPath><clipPath
       clipPathUnits="userSpaceOnUse"
       id="clipPath138"><path
         d="M 1.0729e-5,0 H 720.00001 V 540 H 1.0729e-5 Z"
         id="path136"
         inkscape:connector-curvature="0"
         style="clip-rule:evenodd" /></clipPath><clipPath
       clipPathUnits="userSpaceOnUse"
       id="clipPath150"><path
         d="M 1.0729e-5,0 H 720.00001 V 540 H 1.0729e-5 Z"
         id="path148"
         inkscape:connector-curvature="0"
         style="clip-rule:evenodd" /></clipPath><clipPath
       clipPathUnits="userSpaceOnUse"
       id="clipPath162"><path
         d="M 1.0729e-5,0 H 720.00001 V 540 H 1.0729e-5 Z"
         id="path160"
         inkscape:connector-curvature="0"
         style="clip-rule:evenodd" /></clipPath><clipPath
       clipPathUnits="userSpaceOnUse"
       id="clipPath174"><path
         d="M 1.0729e-5,0 H 720.00001 V 540 H 1.0729e-5 Z"
         id="path172"
         inkscape:connector-curvature="0"
         style="clip-rule:evenodd" /></clipPath><clipPath
       clipPathUnits="userSpaceOnUse"
       id="clipPath186"><path
         d="M 1.0729e-5,0 H 720.00001 V 540 H 1.0729e-5 Z"
         id="path184"
         inkscape:connector-curvature="0"
         style="clip-rule:evenodd" /></clipPath><clipPath
       clipPathUnits="userSpaceOnUse"
       id="clipPath198"><path
         d="M 1.0729e-5,0 H 720.00001 V 540 H 1.0729e-5 Z"
         id="path196"
         inkscape:connector-curvature="0"
         style="clip-rule:evenodd" /></clipPath><clipPath
       clipPathUnits="userSpaceOnUse"
       id="clipPath210"><path
         d="M 1.0729e-5,0 H 720.00001 V 540 H 1.0729e-5 Z"
         id="path208"
         inkscape:connector-curvature="0"
         style="clip-rule:evenodd" /></clipPath><clipPath
       clipPathUnits="userSpaceOnUse"
       id="clipPath222"><path
         d="M 1.0729e-5,0 H 720.00001 V 540 H 1.0729e-5 Z"
         id="path220"
         inkscape:connector-curvature="0"
         style="clip-rule:evenodd" /></clipPath><clipPath
       clipPathUnits="userSpaceOnUse"
       id="clipPath234"><path
         d="M 1.0729e-5,0 H 720.00001 V 540 H 1.0729e-5 Z"
         id="path232"
         inkscape:connector-curvature="0"
         style="clip-rule:evenodd" /></clipPath><clipPath
       clipPathUnits="userSpaceOnUse"
       id="clipPath246"><path
         d="M 1.0729e-5,0 H 720.00001 V 540 H 1.0729e-5 Z"
         id="path244"
         inkscape:connector-curvature="0"
         style="clip-rule:evenodd" /></clipPath><clipPath
       clipPathUnits="userSpaceOnUse"
       id="clipPath258"><path
         d="M 1.0729e-5,0 H 720.00001 V 540 H 1.0729e-5 Z"
         id="path256"
         inkscape:connector-curvature="0"
         style="clip-rule:evenodd" /></clipPath><clipPath
       clipPathUnits="userSpaceOnUse"
       id="clipPath270"><path
         d="M 1.0729e-5,0 H 720.00001 V 540 H 1.0729e-5 Z"
         id="path268"
         inkscape:connector-curvature="0"
         style="clip-rule:evenodd" /></clipPath><clipPath
       clipPathUnits="userSpaceOnUse"
       id="clipPath284"><path
         d="M 3.862e-6,540 H 720 V 1.2207e-4 L -3.877e-6,6.1035e-5"
         id="path282"
         inkscape:connector-curvature="0"
         style="clip-rule:evenodd" /></clipPath><clipPath
       clipPathUnits="userSpaceOnUse"
       id="clipPath294"><path
         d="M -1.0689e-5,540 H 720 V 1.2207e-4 H -2.5642e-5"
         id="path292"
         inkscape:connector-curvature="0"
         style="clip-rule:evenodd" /></clipPath><clipPath
       clipPathUnits="userSpaceOnUse"
       id="clipPath304"><path
         d="M -8.189e-6,540 H 720 V 1.2207e-4 H -2.3142e-5"
         id="path302"
         inkscape:connector-curvature="0"
         style="clip-rule:evenodd" /></clipPath><clipPath
       clipPathUnits="userSpaceOnUse"
       id="clipPath316"><path
         d="M 1.0729e-5,0 H 720.00001 V 540 H 1.0729e-5 Z"
         id="path314"
         inkscape:connector-curvature="0"
         style="clip-rule:evenodd" /></clipPath><clipPath
       clipPathUnits="userSpaceOnUse"
       id="clipPath332"><path
         d="M 1.0729e-5,0 H 720.00001 V 540 H 1.0729e-5 Z"
         id="path330"
         inkscape:connector-curvature="0"
         style="clip-rule:evenodd" /></clipPath><clipPath
       clipPathUnits="userSpaceOnUse"
       id="clipPath348"><path
         d="M 1.0729e-5,0 H 720.00001 V 540 H 1.0729e-5 Z"
         id="path346"
         inkscape:connector-curvature="0"
         style="clip-rule:evenodd" /></clipPath><clipPath
       clipPathUnits="userSpaceOnUse"
       id="clipPath360"><path
         d="M -1.1988e-5,540 H 720 V 6.1035e-5 H -2.2441e-5"
         id="path358"
         inkscape:connector-curvature="0"
         style="clip-rule:evenodd" /></clipPath><clipPath
       clipPathUnits="userSpaceOnUse"
       id="clipPath370"><path
         d="M -1.2089e-5,540 H 720 V 6.1035e-5 L -2.8405e-5,1.2207e-4"
         id="path368"
         inkscape:connector-curvature="0"
         style="clip-rule:evenodd" /></clipPath><clipPath
       clipPathUnits="userSpaceOnUse"
       id="clipPath380"><path
         d="M -2.8206e-5,540 H 720 V 6.1035e-5 L -4.5192e-5,1.2207e-4"
         id="path378"
         inkscape:connector-curvature="0"
         style="clip-rule:evenodd" /></clipPath><clipPath
       clipPathUnits="userSpaceOnUse"
       id="clipPath390"><path
         d="M 1.0729e-5,0 H 720.00001 V 540 H 1.0729e-5 Z"
         id="path388"
         inkscape:connector-curvature="0"
         style="clip-rule:evenodd" /></clipPath><clipPath
       clipPathUnits="userSpaceOnUse"
       id="clipPath402"><path
         d="M 1.0729e-5,0 H 720.00001 V 540 H 1.0729e-5 Z"
         id="path400"
         inkscape:connector-curvature="0"
         style="clip-rule:evenodd" /></clipPath><clipPath
       clipPathUnits="userSpaceOnUse"
       id="clipPath414"><path
         d="M 1.0729e-5,0 H 720.00001 V 540 H 1.0729e-5 Z"
         id="path412"
         inkscape:connector-curvature="0"
         style="clip-rule:evenodd" /></clipPath><clipPath
       clipPathUnits="userSpaceOnUse"
       id="clipPath434"><path
         d="M 1.0729e-5,0 H 720.00001 V 540 H 1.0729e-5 Z"
         id="path432"
         inkscape:connector-curvature="0"
         style="clip-rule:evenodd" /></clipPath><clipPath
       clipPathUnits="userSpaceOnUse"
       id="clipPath446"><path
         d="M 1.0729e-5,0 H 720.00001 V 540 H 1.0729e-5 Z"
         id="path444"
         inkscape:connector-curvature="0"
         style="clip-rule:evenodd" /></clipPath></defs><sodipodi:namedview
     pagecolor="#ffffff"
     bordercolor="#666666"
     borderopacity="1"
     objecttolerance="10"
     gridtolerance="10"
     guidetolerance="10"
     inkscape:pageopacity="0"
     inkscape:pageshadow="2"
     inkscape:window-width="725"
     inkscape:window-height="480"
     id="namedview4"
     showgrid="false"
     fit-margin-top="0"
     fit-margin-left="0"
     fit-margin-right="0"
     fit-margin-bottom="0"
     inkscape:zoom="0.32777778"
     inkscape:cx="417.76"
     inkscape:cy="16.710627"
     inkscape:window-x="0"
     inkscape:window-y="0"
     inkscape:window-maximized="0"
     inkscape:current-layer="g10" /><g
     id="g10"
     inkscape:groupmode="layer"
     inkscape:label="workflow"
     transform="matrix(1.3333333,0,0,-1.3333333,-62.239998,675.73332)"><path
       d="m 318.18,436.92 c 0,3.74 3.04,6.78 6.78,6.78 h 100.32 c 3.74,0 6.78,-3.04 6.78,-6.78 V 409.8 c 0,-3.74 -3.04,-6.78 -6.78,-6.78 H 324.96 c -3.74,0 -6.78,3.04 -6.78,6.78 z"
       style="fill:none;stroke:#00b050;stroke-width:3;stroke-linecap:butt;stroke-linejoin:round;stroke-miterlimit:10;stroke-dasharray:none;stroke-opacity:1"
       id="path22"
       inkscape:connector-curvature="0" /><g
       id="g24"><g
         id="g26"
         clip-path="url(#clipPath30)"><text
           transform="matrix(1,0,0,-1,336.67,416.57)"
           style="font-variant:normal;font-weight:normal;font-size:20.06399918px;font-family:Arial;-inkscape-font-specification:ArialMT;writing-mode:lr-tb;fill:#000000;fill-opacity:1;fill-rule:nonzero;stroke:none"
           id="text34"><tspan
             x="0 11.155584 15.609792 25.641792 31.219584 42.375168 47.872704 54.554016 65.709602"
             y="0"
             sodipodi:role="line"
             id="tspan32">dist_tree</tspan></text>
</g></g><g
       id="g36"><g
         id="g38"
         clip-path="url(#clipPath42)"><path
           d="m 350.4,450.9 -2,2.36 -1.05,1.56 -0.92,1.53 -0.84,1.54 -0.76,1.57 -0.69,1.61 -0.6,1.62 -0.53,1.63 -0.45,1.66 -0.37,1.67 -0.28,1.68 -0.21,1.68 -0.12,1.68 -0.05,1.68 0.04,1.68 0.12,1.68 0.2,1.67 0.29,1.65 0.37,1.63 0.45,1.62 0.55,1.6 0.63,1.57 0.71,1.54 0.8,1.51 0.89,1.48 0.98,1.43 1.07,1.4 1.13,1.33 1.2,1.25 1.26,1.18 1.3,1.1 1.36,1.02 1.4,0.95 1.46,0.86 1.48,0.79 1.52,0.71 1.56,0.62 1.58,0.55 1.62,0.47 1.63,0.38 1.67,0.31 1.67,0.23 1.68,0.15 1.71,0.07 1.69,-0.01 1.72,-0.09 1.72,-0.18 1.7,-0.25 1.72,-0.33 1.7,-0.42 1.69,-0.5 1.67,-0.58 1.66,-0.66 1.64,-0.74 1.62,-0.82 1.58,-0.91 1.57,-0.99 1.52,-1.06 1.5,-1.15 1.44,-1.23 1.36,-1.26 1.3,-1.33 1.21,-1.36 1.14,-1.41 1.07,-1.45 0.99,-1.48 0.92,-1.53 0.83,-1.54 0.77,-1.57 0.68,-1.61 0.61,-1.62 0.53,-1.63 0.45,-1.66 0.36,-1.67 0.3,-1.67 0.2,-1.69 0.13,-1.68 0.04,-1.69 -0.04,-1.67 -0.11,-1.68 -0.21,-1.67 -0.29,-1.65 -0.37,-1.64 -0.45,-1.61 -0.54,-1.6 -0.63,-1.57 -0.72,-1.54 -0.8,-1.51 -0.9,-1.48 -0.97,-1.43 -1.06,-1.39 -1.42,-1.64 -1.54,-1.54 -2.12,2.12 1.4,1.39 1.3,1.49 0.96,1.26 0.89,1.3 0.81,1.33 0.73,1.36 0.65,1.4 0.57,1.42 0.5,1.45 0.42,1.46 0.34,1.49 0.27,1.5 0.18,1.51 0.11,1.54 0.04,1.53 -0.03,1.54 -0.12,1.54 -0.18,1.54 -0.26,1.54 -0.34,1.53 -0.41,1.52 -0.48,1.5 -0.56,1.5 -0.62,1.47 -0.7,1.45 -0.77,1.43 -0.84,1.4 -0.92,1.37 -0.98,1.34 -1.05,1.3 -1.13,1.27 -1.18,1.22 -1.27,1.18 -1.32,1.13 -1.39,1.07 -1.41,0.99 -1.44,0.92 -1.47,0.83 -1.49,0.77 -1.51,0.69 -1.52,0.61 -1.55,0.53 -1.56,0.46 -1.56,0.39 -1.57,0.31 -1.58,0.24 -1.57,0.16 -1.57,0.09 -1.57,0.01 -1.55,-0.06 -1.55,-0.13 -1.53,-0.21 -1.52,-0.28 -1.49,-0.34 -1.47,-0.42 -1.45,-0.5 -1.41,-0.56 -1.38,-0.64 -1.36,-0.72 -1.3,-0.77 -1.27,-0.85 -1.24,-0.93 -1.18,-0.99 -1.14,-1.06 -1.09,-1.14 -1.04,-1.2 -0.97,-1.26 -0.88,-1.3 -0.81,-1.33 -0.73,-1.36 -0.65,-1.4 -0.57,-1.42 -0.5,-1.45 -0.42,-1.45 -0.34,-1.5 -0.26,-1.5 -0.19,-1.52 -0.12,-1.53 -0.03,-1.53 0.04,-1.54 0.11,-1.54 0.19,-1.55 0.25,-1.53 0.34,-1.53 0.4,-1.51 0.49,-1.51 0.56,-1.5 0.62,-1.47 0.7,-1.45 0.77,-1.43 0.84,-1.4 0.85,-1.29 2,-2.37 z m 3.32,5.18 3.06,-9.59 -9.51,3.31 z"
           style="fill:#b3a2c7;fill-opacity:1;fill-rule:nonzero;stroke:none"
           id="path44"
           inkscape:connector-curvature="0" /></g></g><g
       id="g46"><g
         id="g48"
         clip-path="url(#clipPath52)"><path
           d="m 400.35,309.16 1.53,-1.76 1,-1.47 0.85,-1.43 0.78,-1.43 0.71,-1.48 0.63,-1.48 0.57,-1.51 0.49,-1.53 0.42,-1.54 0.34,-1.56 0.27,-1.55 0.2,-1.56 0.12,-1.58 0.04,-1.56 -0.04,-1.57 -0.11,-1.56 -0.19,-1.56 -0.27,-1.53 -0.34,-1.52 -0.43,-1.51 -0.5,-1.48 -0.59,-1.48 -0.66,-1.42 -0.75,-1.41 -0.83,-1.38 -0.9,-1.33 -1,-1.3 -1.07,-1.25 -1.1,-1.16 -1.18,-1.1 -1.22,-1.03 -1.26,-0.95 -1.31,-0.88 -1.34,-0.8 -1.4,-0.73 -1.41,-0.66 -1.45,-0.59 -1.48,-0.51 -1.5,-0.43 -1.53,-0.37 -1.54,-0.28 -1.55,-0.22 -1.59,-0.13 -1.57,-0.07 -1.59,0.01 -1.61,0.09 -1.58,0.16 -1.6,0.24 -1.58,0.31 -1.58,0.38 -1.59,0.47 -1.56,0.54 -1.54,0.61 -1.53,0.7 -1.5,0.76 -1.48,0.84 -1.45,0.91 -1.43,1.01 -1.38,1.06 -1.34,1.13 -1.28,1.19 -1.2,1.23 -1.13,1.27 -1.07,1.31 -0.99,1.35 -0.93,1.38 -0.85,1.42 -0.78,1.44 -0.7,1.46 -0.64,1.49 -0.57,1.51 -0.49,1.53 -0.42,1.54 -0.34,1.56 -0.27,1.55 -0.19,1.56 -0.12,1.58 -0.04,1.56 0.03,1.57 0.11,1.56 0.2,1.56 0.26,1.54 0.35,1.52 0.42,1.51 0.51,1.48 0.59,1.47 0.66,1.43 0.75,1.41 0.82,1.38 0.91,1.33 1,1.3 1.32,1.52 1.43,1.44 2.12,-2.12 -1.29,-1.29 -1.21,-1.38 -0.89,-1.16 -0.82,-1.19 -0.75,-1.24 -0.67,-1.26 -0.6,-1.29 -0.54,-1.32 -0.45,-1.33 -0.39,-1.36 -0.31,-1.37 -0.25,-1.39 -0.18,-1.4 -0.1,-1.42 -0.04,-1.42 0.04,-1.42 0.1,-1.42 0.18,-1.43 0.24,-1.43 0.31,-1.41 0.37,-1.4 0.46,-1.4 0.51,-1.38 0.58,-1.36 0.64,-1.34 0.72,-1.33 0.77,-1.29 0.84,-1.27 0.92,-1.24 0.97,-1.21 1.04,-1.17 1.1,-1.13 1.17,-1.09 1.22,-1.04 1.29,-0.99 1.3,-0.92 1.34,-0.84 1.35,-0.78 1.39,-0.71 1.39,-0.63 1.41,-0.56 1.44,-0.5 1.43,-0.43 1.45,-0.36 1.46,-0.28 1.45,-0.23 1.46,-0.14 1.44,-0.09 1.46,-0.01 1.44,0.06 1.43,0.12 1.42,0.19 1.39,0.25 1.39,0.33 1.36,0.39 1.33,0.45 1.3,0.52 1.29,0.6 1.25,0.65 1.21,0.73 1.18,0.78 1.13,0.85 1.11,0.92 1.04,0.98 1.01,1.05 0.96,1.11 0.89,1.16 0.82,1.2 0.75,1.24 0.68,1.26 0.6,1.29 0.53,1.31 0.46,1.34 0.38,1.36 0.32,1.37 0.24,1.39 0.18,1.4 0.1,1.41 0.04,1.42 -0.03,1.42 -0.11,1.42 -0.18,1.43 -0.24,1.43 -0.3,1.41 -0.38,1.4 -0.45,1.4 -0.51,1.38 -0.59,1.37 -0.64,1.34 -0.72,1.33 -0.76,1.29 -0.77,1.17 -1.54,1.76 z m -3.35,-5.18 -2.97,9.62 9.48,-3.4 z"
           style="fill:#b3a2c7;fill-opacity:1;fill-rule:nonzero;stroke:none"
           id="path54"
           inkscape:connector-curvature="0" /></g></g><path
       d="m 148.51,464.86 161.54,-27.14 -0.5,-2.96 -161.54,27.14 z m 160.55,-23.93 8.13,-5.93 -9.62,-2.95 z"
       style="fill:#d99694;fill-opacity:1;fill-rule:nonzero;stroke:none"
       id="path56"
       inkscape:connector-curvature="0" /><path
       d="m 364.68,400.86 v -25.15 h -3 v 25.15 z m 3,-23.65 -4.5,-9 -4.5,9 z"
       style="fill:#d99694;fill-opacity:1;fill-rule:nonzero;stroke:none"
       id="path58"
       inkscape:connector-curvature="0" /><g
       id="g60"><g
         id="g62"
         clip-path="url(#clipPath66)"><text
           transform="matrix(1,0,0,-1,404.06,381.12)"
           style="font-variant:normal;font-weight:normal;font-size:14.03999996px;font-family:Calibri;-inkscape-font-specification:Calibri;writing-mode:lr-tb;fill:#7030a0;fill-opacity:1;fill-rule:nonzero;stroke:none"
           id="text70"><tspan
             x="0 6.4443598 9.7016401 16.69356 19.92276 27.22356"
             y="0"
             sodipodi:role="line"
             id="tspan68">Field </tspan></text>
</g></g><g
       id="g72"><g
         id="g74"
         clip-path="url(#clipPath78)"><text
           transform="matrix(1,0,0,-1,434.42,381.12)"
           style="font-variant:normal;font-weight:normal;font-size:14.03999996px;font-family:Calibri;-inkscape-font-specification:Calibri;writing-mode:lr-tb;fill:#7030a0;fill-opacity:1;fill-rule:nonzero;stroke:none"
           id="text82"><tspan
             x="0 4.7034001 9.3646803 16.08984 23.40468 28.81008 32.76936 39.76128 44.40852"
             y="0"
             sodipodi:role="line"
             id="tspan80">transfers</tspan></text>
</g></g><g
       id="g84"><g
         id="g86"
         clip-path="url(#clipPath90)"><text
           transform="matrix(1,0,0,-1,413.54,495.19)"
           style="font-variant:normal;font-weight:normal;font-size:15.96000004px;font-family:Calibri;-inkscape-font-specification:Calibri;writing-mode:lr-tb;fill:#7030a0;fill-opacity:1;fill-rule:nonzero;stroke:none"
           id="text94"><tspan
             x="0 9.8154001 13.55004 19.66272 25.041241 30.5634 34.266121 42.645119 51.02412 56.37072 64.27092"
             y="0"
             sodipodi:role="line"
             id="tspan92">Distributed</tspan></text>
</g></g><g
       id="g96"><g
         id="g98"
         clip-path="url(#clipPath102)"><text
           transform="matrix(1,0,0,-1,489.74,495.19)"
           style="font-variant:normal;font-weight:normal;font-size:15.96000004px;font-family:Calibri;-inkscape-font-specification:Calibri;writing-mode:lr-tb;fill:#7030a0;fill-opacity:1;fill-rule:nonzero;stroke:none"
           id="text106"><tspan
             x="0 7.6448398 11.37948 18.816839 27.22776 32.733959 36.43668 41.815201 50.194199 62.946239"
             y="0"
             sodipodi:role="line"
             id="tspan104">algorithms</tspan></text>
</g></g><g
       id="g108"><g
         id="g110"
         clip-path="url(#clipPath114)"><text
           transform="matrix(1,0,0,-1,413.54,479.71)"
           style="font-variant:normal;font-weight:normal;font-size:12px;font-family:Calibri;-inkscape-font-specification:Calibri;writing-mode:lr-tb;fill:#7030a0;fill-opacity:1;fill-rule:nonzero;stroke:none"
           id="text118"><tspan
             x="0 4.5599999 10.884 17.268 23.243999"
             y="0"
             sodipodi:role="line"
             id="tspan116">zone </tspan></text>
</g></g><g
       id="g120"><g
         id="g122"
         clip-path="url(#clipPath126)"><text
           transform="matrix(1,0,0,-1,439.34,479.71)"
           style="font-variant:normal;font-weight:normal;font-size:12px;font-family:Calibri;-inkscape-font-specification:Calibri;writing-mode:lr-tb;fill:#7030a0;fill-opacity:1;fill-rule:nonzero;stroke:none"
           id="text130"><tspan
             x="0 9.5880003 15.564 19.68 25.200001 31.176001"
             y="0"
             sodipodi:role="line"
             id="tspan128">merges</tspan></text>
</g></g><g
       id="g132"><g
         id="g134"
         clip-path="url(#clipPath138)"><text
           transform="matrix(1,0,0,-1,475.22,479.71)"
           style="font-variant:normal;font-weight:normal;font-size:12px;font-family:Calibri;-inkscape-font-specification:Calibri;writing-mode:lr-tb;fill:#7030a0;fill-opacity:1;fill-rule:nonzero;stroke:none"
           id="text142"><tspan
             x="0"
             y="0"
             id="tspan140">,</tspan></text>
</g></g><g
       id="g144"><g
         id="g146"
         clip-path="url(#clipPath150)"><text
           transform="matrix(1,0,0,-1,413.54,465.31)"
           style="font-variant:normal;font-weight:normal;font-size:12px;font-family:Calibri;-inkscape-font-specification:Calibri;writing-mode:lr-tb;fill:#7030a0;fill-opacity:1;fill-rule:nonzero;stroke:none"
           id="text154"><tspan
             x="0 4.9200001 11.244 17.628 23.976 29.952 35.028 39.084 41.844002 47.268002 50.028 54.071999"
             y="0"
             sodipodi:role="line"
             id="tspan152">connectivity</tspan></text>
</g></g><g
       id="g156"><g
         id="g158"
         clip-path="url(#clipPath162)"><text
           transform="matrix(1,0,0,-1,475.58,465.31)"
           style="font-variant:normal;font-weight:normal;font-size:12px;font-family:Calibri;-inkscape-font-specification:Calibri;writing-mode:lr-tb;fill:#7030a0;fill-opacity:1;fill-rule:nonzero;stroke:none"
           id="text166"><tspan
             x="0 4.0679998 8.0279999 13.776 20.136 24.695999 28.176001 34.5 38.723999 48.312 53.964001 57.924 60.683998 67.008003 73.391998 78.084"
             y="0"
             sodipodi:role="line"
             id="tspan164">transformations…</tspan></text>
</g></g><g
       id="g168"><g
         id="g170"
         clip-path="url(#clipPath174)"><text
           transform="matrix(1,0,0,-1,410.95,289.49)"
           style="font-variant:normal;font-weight:normal;font-size:15.96000004px;font-family:Calibri;-inkscape-font-specification:Calibri;writing-mode:lr-tb;fill:#7030a0;fill-opacity:1;fill-rule:nonzero;stroke:none"
           id="text178"><tspan
             x="0 7.9161601 15.561 21.131041 26.47764 30.21228 35.590801 39.293522 47.704441 56.083439 64.031517"
             y="0"
             sodipodi:role="line"
             id="tspan176">Partitioned</tspan></text>
</g></g><g
       id="g180"><g
         id="g182"
         clip-path="url(#clipPath186)"><text
           transform="matrix(1,0,0,-1,487.03,289.49)"
           style="font-variant:normal;font-weight:normal;font-size:15.96000004px;font-family:Calibri;-inkscape-font-specification:Calibri;writing-mode:lr-tb;fill:#7030a0;fill-opacity:1;fill-rule:nonzero;stroke:none"
           id="text190"><tspan
             x="0 7.6448398 11.37948 18.816839 27.22776 32.733959 36.43668 41.815201 50.194199 62.946239"
             y="0"
             sodipodi:role="line"
             id="tspan188">algorithms</tspan></text>
</g></g><g
       id="g192"><g
         id="g194"
         clip-path="url(#clipPath198)"><text
           transform="matrix(1,0,0,-1,410.95,274.01)"
           style="font-variant:normal;font-weight:normal;font-size:12px;font-family:Calibri;-inkscape-font-specification:Calibri;writing-mode:lr-tb;fill:#7030a0;fill-opacity:1;fill-rule:nonzero;stroke:none"
           id="text202"><tspan
             x="0 5.5079999 11.868 14.628 19.908001 25.884001"
             y="0"
             sodipodi:role="line"
             id="tspan200">Solver</tspan></text>
</g></g><g
       id="g204"><g
         id="g206"
         clip-path="url(#clipPath210)"><text
           transform="matrix(1,0,0,-1,439.99,274.01)"
           style="font-variant:normal;font-weight:normal;font-size:12px;font-family:Calibri;-inkscape-font-specification:Calibri;writing-mode:lr-tb;fill:#7030a0;fill-opacity:1;fill-rule:nonzero;stroke:none"
           id="text214"><tspan
             x="0 3"
             y="0"
             sodipodi:role="line"
             id="tspan212">, </tspan></text>
</g></g><g
       id="g216"><g
         id="g218"
         clip-path="url(#clipPath222)"><text
           transform="matrix(1,0,0,-1,445.63,274.01)"
           style="font-variant:normal;font-weight:normal;font-size:12px;font-family:Calibri;-inkscape-font-specification:Calibri;writing-mode:lr-tb;fill:#7030a0;fill-opacity:1;fill-rule:nonzero;stroke:none"
           id="text226"><tspan
             x="0 8.3999996 14.148 16.908001"
             y="0"
             sodipodi:role="line"
             id="tspan224">wall</tspan></text>
</g></g><g
       id="g228"><g
         id="g230"
         clip-path="url(#clipPath234)"><text
           transform="matrix(1,0,0,-1,468.19,274.01)"
           style="font-variant:normal;font-weight:normal;font-size:12px;font-family:Calibri;-inkscape-font-specification:Calibri;writing-mode:lr-tb;fill:#7030a0;fill-opacity:1;fill-rule:nonzero;stroke:none"
           id="text238"><tspan
             x="0 6.348 9.1079998 13.668 17.628 23.375999 29.736 34.776001 40.751999 45.444"
             y="0"
             sodipodi:role="line"
             id="tspan236">distances,</tspan></text>
</g></g><g
       id="g240"><g
         id="g242"
         clip-path="url(#clipPath246)"><text
           transform="matrix(1,0,0,-1,410.95,259.61)"
           style="font-variant:normal;font-weight:normal;font-size:12.02400017px;font-family:Calibri;-inkscape-font-specification:Calibri;writing-mode:lr-tb;fill:#7030a0;fill-opacity:1;fill-rule:nonzero;stroke:none"
           id="text250"><tspan
             x="0 7.4428558 13.659264 20.068056"
             y="0"
             sodipodi:role="line"
             id="tspan248">HPC </tspan></text>
</g></g><g
       id="g252"><g
         id="g254"
         clip-path="url(#clipPath258)"><text
           transform="matrix(1,0,0,-1,433.87,259.61)"
           style="font-variant:normal;font-weight:normal;font-size:12.02400017px;font-family:Calibri;-inkscape-font-specification:Calibri;writing-mode:lr-tb;fill:#7030a0;fill-opacity:1;fill-rule:nonzero;stroke:none"
           id="text262"><tspan
             x="0 4.0761361 10.064088 16.424784 22.773457 32.38063 38.609062 44.597015 48.685177 51.450695 57.691151"
             y="0"
             sodipodi:role="line"
             id="tspan260">renumbering</tspan></text>
</g></g><g
       id="g264"><g
         id="g266"
         clip-path="url(#clipPath270)"><text
           transform="matrix(1,0,0,-1,497.23,259.61)"
           style="font-variant:normal;font-weight:normal;font-size:12.02400017px;font-family:Calibri;-inkscape-font-specification:Calibri;writing-mode:lr-tb;fill:#7030a0;fill-opacity:1;fill-rule:nonzero;stroke:none"
           id="text274"><tspan
             x="0"
             y="0"
             id="tspan272">…</tspan></text>
</g></g><path
       d="m 318.03,421.9 -162.62,27.24 0.49,2.96 162.62,-27.24 z m -161.64,24.04 -8.13,5.92 9.62,2.95 z"
       style="fill:#95b3d7;fill-opacity:1;fill-rule:nonzero;stroke:none"
       id="path276"
       inkscape:connector-curvature="0" /><g
       id="g278"><g
         id="g280"
         clip-path="url(#clipPath284)"><path
           d="m 162.63,440.86 c -0.1,-0.56 -0.28,-1.05 -0.54,-1.47 -0.27,-0.42 -0.6,-0.75 -1,-1.01 -0.39,-0.26 -0.86,-0.43 -1.39,-0.51 -0.53,-0.09 -1.14,-0.07 -1.83,0.05 l -1.27,0.22 -0.71,-4.03 c -0.01,-0.05 -0.03,-0.08 -0.06,-0.11 -0.04,-0.03 -0.08,-0.05 -0.14,-0.07 -0.06,-0.01 -0.14,-0.01 -0.23,-0.01 -0.1,0 -0.22,0.02 -0.37,0.04 -0.14,0.03 -0.26,0.06 -0.35,0.09 -0.09,0.03 -0.17,0.06 -0.22,0.09 -0.06,0.03 -0.09,0.07 -0.11,0.1 -0.02,0.04 -0.02,0.09 -0.01,0.13 l 1.81,10.34 c 0.04,0.23 0.13,0.38 0.27,0.46 0.14,0.08 0.28,0.1 0.43,0.07 l 2.4,-0.42 c 0.24,-0.04 0.48,-0.09 0.69,-0.15 0.22,-0.06 0.48,-0.15 0.77,-0.27 0.29,-0.12 0.58,-0.29 0.86,-0.53 0.28,-0.24 0.51,-0.51 0.68,-0.81 0.18,-0.31 0.29,-0.64 0.35,-1.01 0.05,-0.37 0.05,-0.77 -0.03,-1.19 z m -1.59,0.15 c 0.08,0.46 0.07,0.85 -0.05,1.19 -0.12,0.34 -0.29,0.6 -0.51,0.8 -0.23,0.19 -0.47,0.33 -0.73,0.42 -0.26,0.09 -0.52,0.15 -0.77,0.2 l -1.38,0.24 -0.79,-4.5 1.34,-0.23 c 0.45,-0.08 0.84,-0.09 1.15,-0.02 0.32,0.06 0.6,0.17 0.84,0.34 0.23,0.17 0.43,0.39 0.58,0.66 0.16,0.27 0.26,0.57 0.32,0.9 z m 7.81,-9.19 c -0.02,-0.07 -0.05,-0.12 -0.1,-0.15 -0.05,-0.02 -0.12,-0.04 -0.2,-0.04 -0.09,0 -0.21,0.01 -0.36,0.03 -0.15,0.03 -0.27,0.06 -0.36,0.09 -0.09,0.04 -0.15,0.07 -0.18,0.12 -0.03,0.04 -0.05,0.09 -0.03,0.16 l 0.13,0.78 c -0.4,-0.3 -0.83,-0.52 -1.28,-0.65 -0.46,-0.13 -0.92,-0.15 -1.39,-0.07 -0.41,0.08 -0.77,0.19 -1.08,0.36 -0.31,0.16 -0.57,0.37 -0.77,0.61 -0.2,0.24 -0.33,0.52 -0.41,0.84 -0.08,0.32 -0.09,0.66 -0.02,1.04 0.08,0.44 0.23,0.8 0.47,1.1 0.23,0.29 0.54,0.51 0.91,0.67 0.37,0.15 0.81,0.24 1.31,0.26 0.51,0.02 1.06,-0.02 1.67,-0.13 l 1.07,-0.19 0.11,0.61 c 0.05,0.3 0.07,0.57 0.04,0.81 -0.02,0.25 -0.09,0.45 -0.2,0.63 -0.12,0.18 -0.28,0.33 -0.49,0.45 -0.21,0.11 -0.48,0.2 -0.81,0.26 -0.35,0.06 -0.68,0.07 -0.97,0.04 -0.3,-0.04 -0.56,-0.08 -0.79,-0.15 -0.23,-0.06 -0.42,-0.12 -0.57,-0.18 -0.16,-0.06 -0.27,-0.09 -0.34,-0.07 -0.05,0.01 -0.09,0.02 -0.12,0.05 -0.03,0.03 -0.05,0.07 -0.07,0.12 -0.02,0.05 -0.03,0.12 -0.02,0.19 0,0.07 0,0.15 0.02,0.24 0.03,0.15 0.06,0.26 0.09,0.34 0.04,0.08 0.1,0.15 0.19,0.21 0.09,0.06 0.24,0.13 0.45,0.19 0.21,0.07 0.44,0.12 0.7,0.16 0.27,0.05 0.55,0.07 0.85,0.07 0.31,0 0.61,-0.02 0.91,-0.07 0.56,-0.1 1.03,-0.25 1.4,-0.45 0.37,-0.19 0.65,-0.43 0.85,-0.72 0.2,-0.29 0.32,-0.62 0.37,-1.01 0.04,-0.38 0.02,-0.81 -0.06,-1.3 z m -0.8,3.8 -1.22,0.22 c -0.39,0.07 -0.74,0.09 -1.04,0.08 -0.3,-0.02 -0.56,-0.07 -0.77,-0.17 -0.21,-0.1 -0.38,-0.23 -0.5,-0.39 -0.12,-0.17 -0.2,-0.37 -0.24,-0.61 -0.08,-0.4 0,-0.75 0.21,-1.03 0.22,-0.29 0.55,-0.47 1.02,-0.55 0.37,-0.07 0.74,-0.03 1.09,0.1 0.35,0.14 0.74,0.37 1.16,0.7 z m 9.27,2.22 c -0.02,-0.12 -0.04,-0.23 -0.06,-0.32 -0.03,-0.08 -0.05,-0.15 -0.08,-0.19 -0.02,-0.05 -0.05,-0.08 -0.08,-0.1 -0.03,-0.03 -0.07,-0.03 -0.12,-0.02 -0.04,0 -0.1,0.03 -0.16,0.06 -0.06,0.04 -0.13,0.08 -0.21,0.12 -0.08,0.04 -0.17,0.08 -0.27,0.12 -0.1,0.05 -0.21,0.08 -0.33,0.1 -0.14,0.02 -0.29,0.02 -0.44,-0.01 -0.15,-0.04 -0.31,-0.11 -0.49,-0.21 -0.17,-0.11 -0.36,-0.26 -0.57,-0.45 -0.2,-0.19 -0.44,-0.42 -0.69,-0.7 l -0.9,-5.13 c -0.01,-0.05 -0.03,-0.08 -0.06,-0.11 -0.03,-0.03 -0.07,-0.05 -0.13,-0.06 -0.05,-0.02 -0.13,-0.02 -0.22,-0.02 -0.1,0.01 -0.21,0.02 -0.36,0.05 -0.14,0.02 -0.25,0.05 -0.34,0.08 -0.09,0.02 -0.16,0.05 -0.21,0.09 -0.05,0.03 -0.09,0.06 -0.1,0.1 -0.02,0.03 -0.02,0.08 -0.01,0.12 l 1.37,7.79 c 0,0.05 0.02,0.09 0.04,0.11 0.03,0.03 0.07,0.06 0.12,0.07 0.06,0.02 0.13,0.03 0.21,0.02 0.08,-0.01 0.19,-0.02 0.32,-0.04 0.13,-0.03 0.23,-0.05 0.32,-0.07 0.08,-0.02 0.14,-0.05 0.18,-0.09 0.04,-0.03 0.07,-0.07 0.09,-0.1 0.01,-0.04 0.01,-0.08 0.01,-0.12 l -0.2,-1.14 c 0.27,0.28 0.51,0.5 0.73,0.66 0.22,0.16 0.43,0.28 0.62,0.37 0.18,0.08 0.36,0.13 0.53,0.14 0.18,0.02 0.35,0.01 0.51,-0.02 0.08,-0.01 0.16,-0.03 0.26,-0.06 0.09,-0.02 0.19,-0.05 0.29,-0.1 0.1,-0.04 0.19,-0.08 0.27,-0.12 0.07,-0.05 0.13,-0.09 0.16,-0.12 0.03,-0.04 0.05,-0.07 0.05,-0.1 0.01,-0.02 0.01,-0.06 0.01,-0.1 0.01,-0.04 0,-0.1 -0.01,-0.18 -0.01,-0.08 -0.03,-0.18 -0.05,-0.32 z m 5.83,-8.53 c -0.01,-0.07 -0.05,-0.12 -0.1,-0.15 -0.05,-0.02 -0.12,-0.04 -0.2,-0.04 -0.09,-0.01 -0.21,0.01 -0.36,0.03 -0.15,0.03 -0.27,0.06 -0.36,0.09 -0.08,0.04 -0.14,0.07 -0.18,0.11 -0.03,0.05 -0.04,0.1 -0.03,0.17 l 0.13,0.78 c -0.4,-0.3 -0.83,-0.52 -1.28,-0.65 -0.46,-0.13 -0.92,-0.15 -1.38,-0.07 -0.41,0.07 -0.78,0.19 -1.09,0.36 -0.31,0.16 -0.57,0.37 -0.77,0.61 -0.19,0.24 -0.33,0.52 -0.41,0.84 -0.08,0.32 -0.08,0.66 -0.02,1.04 0.08,0.44 0.23,0.8 0.47,1.09 0.24,0.3 0.54,0.52 0.91,0.67 0.37,0.16 0.81,0.25 1.32,0.27 0.5,0.02 1.05,-0.02 1.66,-0.13 l 1.07,-0.19 0.11,0.61 c 0.05,0.3 0.07,0.57 0.04,0.81 -0.02,0.24 -0.09,0.45 -0.2,0.63 -0.12,0.18 -0.28,0.33 -0.49,0.44 -0.21,0.12 -0.48,0.21 -0.81,0.27 -0.35,0.06 -0.68,0.07 -0.97,0.04 -0.3,-0.04 -0.56,-0.09 -0.79,-0.15 -0.22,-0.06 -0.42,-0.13 -0.57,-0.18 -0.16,-0.06 -0.27,-0.09 -0.34,-0.07 -0.05,0 -0.09,0.02 -0.12,0.05 -0.03,0.03 -0.05,0.07 -0.07,0.12 -0.02,0.05 -0.02,0.11 -0.02,0.19 0,0.07 0.01,0.15 0.02,0.24 0.03,0.14 0.06,0.26 0.09,0.34 0.04,0.08 0.1,0.15 0.19,0.21 0.09,0.06 0.24,0.12 0.45,0.19 0.21,0.07 0.44,0.12 0.71,0.16 0.26,0.04 0.54,0.07 0.85,0.07 0.3,0 0.6,-0.02 0.9,-0.08 0.56,-0.09 1.03,-0.24 1.4,-0.44 0.37,-0.19 0.65,-0.43 0.85,-0.72 0.2,-0.29 0.32,-0.63 0.37,-1.01 0.04,-0.38 0.03,-0.82 -0.06,-1.3 z m -0.8,3.8 -1.22,0.22 c -0.39,0.07 -0.74,0.09 -1.04,0.08 -0.3,-0.02 -0.55,-0.07 -0.77,-0.17 -0.21,-0.1 -0.38,-0.23 -0.5,-0.4 -0.12,-0.16 -0.2,-0.36 -0.24,-0.6 -0.07,-0.4 0,-0.75 0.21,-1.03 0.22,-0.29 0.55,-0.47 1.02,-0.55 0.37,-0.07 0.74,-0.03 1.09,0.1 0.35,0.14 0.74,0.37 1.16,0.7 z m 4.87,-4.51 c -0.01,-0.05 -0.03,-0.08 -0.06,-0.11 -0.03,-0.03 -0.07,-0.05 -0.12,-0.06 -0.06,-0.02 -0.14,-0.02 -0.23,-0.02 -0.09,0.01 -0.21,0.02 -0.36,0.05 -0.14,0.02 -0.25,0.05 -0.34,0.08 -0.09,0.02 -0.16,0.05 -0.21,0.09 -0.05,0.03 -0.09,0.06 -0.1,0.1 -0.02,0.03 -0.02,0.07 -0.01,0.12 l 2.03,11.57 c 0.01,0.04 0.03,0.08 0.05,0.11 0.03,0.03 0.07,0.05 0.13,0.07 0.06,0.01 0.13,0.02 0.23,0.01 0.09,0 0.21,-0.02 0.35,-0.04 0.14,-0.03 0.26,-0.05 0.35,-0.08 0.09,-0.03 0.16,-0.06 0.21,-0.09 0.05,-0.03 0.08,-0.07 0.1,-0.11 0.01,-0.04 0.02,-0.08 0.01,-0.13 z m 4.02,-0.71 c -0.01,-0.04 -0.03,-0.08 -0.06,-0.11 -0.03,-0.02 -0.07,-0.05 -0.13,-0.06 -0.05,-0.01 -0.13,-0.02 -0.22,-0.01 -0.1,0 -0.22,0.02 -0.36,0.04 -0.14,0.03 -0.25,0.05 -0.34,0.08 -0.09,0.03 -0.16,0.06 -0.21,0.09 -0.05,0.03 -0.09,0.07 -0.1,0.1 -0.02,0.04 -0.02,0.08 -0.01,0.12 l 2.03,11.57 c 0.01,0.05 0.02,0.08 0.05,0.12 0.03,0.03 0.07,0.05 0.13,0.06 0.06,0.02 0.13,0.02 0.23,0.02 0.09,-0.01 0.21,-0.02 0.35,-0.05 0.14,-0.02 0.26,-0.05 0.35,-0.08 0.09,-0.02 0.16,-0.05 0.21,-0.09 0.04,-0.03 0.08,-0.06 0.09,-0.1 0.02,-0.04 0.03,-0.08 0.02,-0.13 z m 9.98,2.61 c -0.04,-0.22 -0.13,-0.37 -0.26,-0.45 -0.13,-0.07 -0.26,-0.1 -0.41,-0.07 l -5.13,0.9 c -0.07,-0.43 -0.1,-0.83 -0.07,-1.19 0.02,-0.36 0.12,-0.69 0.27,-0.97 0.16,-0.28 0.39,-0.52 0.7,-0.71 0.3,-0.19 0.68,-0.33 1.15,-0.41 0.37,-0.06 0.71,-0.09 1.01,-0.08 0.3,0.01 0.56,0.03 0.79,0.07 0.22,0.04 0.41,0.08 0.56,0.11 0.14,0.04 0.25,0.05 0.32,0.04 0.04,-0.01 0.08,-0.02 0.1,-0.05 0.03,-0.03 0.05,-0.06 0.06,-0.1 0.01,-0.05 0.02,-0.11 0.01,-0.18 0,-0.07 -0.01,-0.16 -0.03,-0.27 -0.01,-0.07 -0.03,-0.14 -0.04,-0.19 -0.02,-0.05 -0.04,-0.1 -0.05,-0.14 -0.02,-0.05 -0.04,-0.08 -0.07,-0.11 -0.02,-0.03 -0.05,-0.06 -0.09,-0.09 -0.04,-0.02 -0.14,-0.06 -0.31,-0.1 -0.17,-0.05 -0.38,-0.08 -0.64,-0.11 -0.26,-0.03 -0.56,-0.04 -0.9,-0.04 -0.33,0.01 -0.69,0.04 -1.05,0.11 -0.64,0.11 -1.19,0.3 -1.64,0.56 -0.45,0.26 -0.81,0.6 -1.08,1.01 -0.26,0.41 -0.44,0.89 -0.51,1.45 -0.07,0.57 -0.05,1.2 0.07,1.9 0.12,0.67 0.31,1.26 0.58,1.76 0.27,0.5 0.6,0.91 0.99,1.23 0.39,0.31 0.83,0.53 1.33,0.65 0.5,0.12 1.03,0.12 1.6,0.02 0.61,-0.1 1.12,-0.29 1.51,-0.56 0.4,-0.28 0.71,-0.6 0.93,-0.98 0.21,-0.38 0.35,-0.81 0.4,-1.28 0.05,-0.47 0.03,-0.96 -0.06,-1.47 z m -1.36,0.68 c 0.14,0.75 0.08,1.37 -0.2,1.86 -0.27,0.48 -0.76,0.79 -1.45,0.91 -0.35,0.06 -0.67,0.05 -0.96,-0.03 -0.29,-0.09 -0.55,-0.23 -0.77,-0.42 -0.21,-0.18 -0.4,-0.41 -0.55,-0.69 -0.15,-0.27 -0.26,-0.57 -0.32,-0.88 z m 4.26,-5.55 c -0.01,-0.04 -0.03,-0.08 -0.06,-0.11 -0.02,-0.03 -0.07,-0.05 -0.12,-0.06 -0.06,-0.02 -0.13,-0.02 -0.23,-0.02 -0.09,0.01 -0.21,0.02 -0.36,0.05 -0.13,0.02 -0.25,0.05 -0.34,0.08 -0.09,0.03 -0.16,0.06 -0.21,0.09 -0.05,0.03 -0.08,0.07 -0.1,0.1 -0.01,0.04 -0.02,0.08 -0.01,0.12 l 2.03,11.57 c 0.01,0.04 0.03,0.08 0.05,0.11 0.03,0.03 0.07,0.06 0.13,0.07 0.06,0.01 0.14,0.02 0.23,0.01 0.1,0 0.21,-0.02 0.35,-0.04 0.14,-0.02 0.26,-0.05 0.35,-0.08 0.09,-0.03 0.16,-0.06 0.21,-0.09 0.05,-0.03 0.08,-0.07 0.1,-0.11 0.01,-0.03 0.02,-0.08 0.01,-0.12 z"
           style="fill:#005ccd;fill-opacity:1;fill-rule:nonzero;stroke:none"
           id="path286"
           inkscape:connector-curvature="0" /></g></g><g
       id="g288"><g
         id="g290"
         clip-path="url(#clipPath294)"><path
           d="m 217.04,434.7 c -0.02,-0.11 -0.04,-0.2 -0.06,-0.27 -0.02,-0.06 -0.05,-0.11 -0.07,-0.15 -0.02,-0.04 -0.04,-0.06 -0.07,-0.07 -0.02,-0.01 -0.05,-0.01 -0.09,-0.01 -0.04,0.01 -0.09,0.03 -0.14,0.07 -0.06,0.03 -0.13,0.08 -0.21,0.12 -0.08,0.05 -0.18,0.1 -0.29,0.14 -0.11,0.05 -0.25,0.09 -0.4,0.11 -0.22,0.04 -0.41,0.04 -0.57,0 -0.16,-0.05 -0.3,-0.13 -0.42,-0.26 -0.12,-0.14 -0.22,-0.31 -0.3,-0.54 -0.08,-0.23 -0.15,-0.51 -0.21,-0.84 l -0.15,-0.85 1.74,-0.31 c 0.05,0 0.09,-0.02 0.11,-0.05 0.03,-0.02 0.06,-0.06 0.07,-0.12 0.02,-0.05 0.03,-0.12 0.03,-0.19 0,-0.08 -0.01,-0.17 -0.03,-0.28 -0.03,-0.21 -0.09,-0.36 -0.15,-0.44 -0.07,-0.08 -0.15,-0.12 -0.24,-0.1 l -1.74,0.3 -1.19,-6.83 c -0.01,-0.04 -0.03,-0.08 -0.06,-0.11 -0.03,-0.03 -0.07,-0.05 -0.13,-0.06 -0.06,-0.01 -0.14,-0.02 -0.23,-0.01 -0.1,0 -0.21,0.02 -0.35,0.04 -0.14,0.03 -0.25,0.05 -0.34,0.08 -0.09,0.03 -0.16,0.06 -0.22,0.09 -0.05,0.03 -0.08,0.07 -0.1,0.1 -0.02,0.04 -0.02,0.08 -0.01,0.13 l 1.2,6.83 -1.1,0.19 c -0.09,0.01 -0.16,0.07 -0.19,0.17 -0.03,0.1 -0.02,0.26 0.01,0.47 0.02,0.11 0.05,0.2 0.07,0.27 0.03,0.07 0.05,0.13 0.09,0.18 0.03,0.04 0.06,0.07 0.1,0.09 0.04,0.01 0.08,0.01 0.13,0 l 1.1,-0.19 0.14,0.81 c 0.09,0.54 0.22,1 0.39,1.37 0.17,0.37 0.38,0.66 0.64,0.87 0.25,0.21 0.54,0.35 0.88,0.42 0.33,0.06 0.71,0.05 1.14,-0.02 0.2,-0.04 0.39,-0.09 0.58,-0.16 0.18,-0.07 0.32,-0.14 0.42,-0.2 0.09,-0.06 0.16,-0.11 0.18,-0.15 0.03,-0.04 0.05,-0.09 0.07,-0.15 0.01,-0.06 0.02,-0.13 0.01,-0.21 0,-0.08 -0.02,-0.18 -0.04,-0.28 z m 0.67,-11.45 c -0.01,-0.05 -0.03,-0.09 -0.05,-0.12 -0.03,-0.02 -0.07,-0.04 -0.13,-0.06 -0.06,-0.01 -0.13,-0.02 -0.23,-0.01 -0.09,0 -0.21,0.02 -0.35,0.04 -0.14,0.03 -0.26,0.05 -0.35,0.08 -0.09,0.03 -0.16,0.06 -0.21,0.09 -0.05,0.03 -0.08,0.07 -0.1,0.1 -0.01,0.04 -0.02,0.08 -0.01,0.13 l 1.37,7.79 c 0.01,0.04 0.02,0.07 0.05,0.1 0.03,0.04 0.07,0.06 0.13,0.07 0.06,0.01 0.13,0.02 0.23,0.01 0.09,0 0.21,-0.01 0.35,-0.04 0.14,-0.02 0.26,-0.05 0.35,-0.08 0.09,-0.03 0.16,-0.06 0.21,-0.09 0.04,-0.03 0.08,-0.07 0.09,-0.11 0.02,-0.03 0.03,-0.07 0.02,-0.11 z m 2,10.39 c -0.06,-0.34 -0.17,-0.55 -0.31,-0.65 -0.15,-0.1 -0.4,-0.12 -0.74,-0.06 -0.33,0.06 -0.55,0.16 -0.65,0.3 -0.11,0.14 -0.13,0.37 -0.07,0.7 0.06,0.34 0.16,0.55 0.31,0.65 0.15,0.1 0.39,0.12 0.73,0.06 0.34,-0.06 0.55,-0.16 0.66,-0.3 0.1,-0.14 0.12,-0.37 0.07,-0.7 z m 2.02,-11.1 c -0.01,-0.05 -0.03,-0.08 -0.06,-0.11 -0.02,-0.03 -0.07,-0.05 -0.12,-0.06 -0.06,-0.02 -0.13,-0.02 -0.23,-0.02 -0.09,0.01 -0.21,0.02 -0.36,0.05 -0.13,0.02 -0.25,0.05 -0.34,0.08 -0.09,0.02 -0.16,0.05 -0.21,0.09 -0.05,0.03 -0.08,0.06 -0.1,0.1 -0.01,0.03 -0.02,0.07 -0.01,0.12 l 2.03,11.57 c 0.01,0.04 0.03,0.08 0.05,0.11 0.03,0.03 0.07,0.05 0.13,0.07 0.06,0.01 0.14,0.02 0.23,0.01 0.1,0 0.21,-0.02 0.35,-0.04 0.14,-0.03 0.26,-0.05 0.35,-0.08 0.09,-0.03 0.16,-0.06 0.21,-0.09 0.05,-0.03 0.08,-0.07 0.1,-0.11 0.01,-0.04 0.02,-0.08 0.01,-0.13 z m 9.98,2.61 c -0.04,-0.22 -0.12,-0.37 -0.25,-0.45 -0.13,-0.08 -0.27,-0.1 -0.41,-0.08 l -5.14,0.91 c -0.07,-0.44 -0.1,-0.83 -0.07,-1.2 0.03,-0.36 0.12,-0.68 0.28,-0.96 0.16,-0.29 0.39,-0.52 0.69,-0.71 0.3,-0.19 0.69,-0.33 1.16,-0.41 0.37,-0.07 0.7,-0.1 1,-0.09 0.3,0.01 0.57,0.04 0.79,0.08 0.23,0.03 0.41,0.07 0.56,0.11 0.15,0.03 0.25,0.05 0.32,0.03 0.05,0 0.08,-0.02 0.11,-0.05 0.03,-0.02 0.05,-0.06 0.06,-0.1 0.01,-0.04 0.01,-0.1 0.01,-0.17 -0.01,-0.08 -0.02,-0.17 -0.04,-0.27 -0.01,-0.08 -0.03,-0.14 -0.04,-0.19 -0.02,-0.06 -0.03,-0.11 -0.05,-0.15 -0.01,-0.04 -0.04,-0.08 -0.06,-0.11 -0.03,-0.03 -0.06,-0.06 -0.1,-0.08 -0.03,-0.03 -0.14,-0.06 -0.31,-0.11 -0.16,-0.04 -0.38,-0.08 -0.64,-0.1 -0.26,-0.03 -0.56,-0.04 -0.89,-0.04 -0.34,0 -0.69,0.04 -1.06,0.1 -0.64,0.11 -1.19,0.3 -1.64,0.57 -0.45,0.26 -0.81,0.6 -1.07,1.01 -0.27,0.4 -0.44,0.89 -0.52,1.45 -0.07,0.56 -0.05,1.19 0.08,1.9 0.12,0.67 0.31,1.25 0.58,1.76 0.26,0.5 0.59,0.91 0.98,1.22 0.39,0.32 0.84,0.54 1.33,0.65 0.5,0.12 1.04,0.13 1.61,0.03 0.61,-0.11 1.11,-0.3 1.51,-0.57 0.39,-0.27 0.7,-0.6 0.92,-0.98 0.22,-0.38 0.35,-0.8 0.4,-1.27 0.06,-0.47 0.04,-0.96 -0.05,-1.47 z m -1.36,0.68 c 0.15,0.74 0.08,1.36 -0.19,1.85 -0.28,0.49 -0.76,0.79 -1.45,0.92 -0.36,0.06 -0.68,0.05 -0.97,-0.04 -0.29,-0.09 -0.54,-0.22 -0.76,-0.41 -0.22,-0.19 -0.41,-0.42 -0.56,-0.69 -0.15,-0.28 -0.25,-0.57 -0.32,-0.89 z"
           style="fill:#005ccd;fill-opacity:1;fill-rule:nonzero;stroke:none"
           id="path296"
           inkscape:connector-curvature="0" /></g></g><g
       id="g298"><g
         id="g300"
         clip-path="url(#clipPath304)"><path
           d="m 249.59,425.7 c -0.01,-0.04 -0.02,-0.09 -0.04,-0.15 -0.02,-0.05 -0.06,-0.12 -0.1,-0.2 l -3.59,-7 c -0.03,-0.06 -0.07,-0.11 -0.11,-0.14 -0.05,-0.04 -0.11,-0.06 -0.18,-0.07 -0.07,-0.01 -0.16,-0.01 -0.28,0 -0.11,0.01 -0.26,0.03 -0.43,0.06 -0.18,0.03 -0.33,0.07 -0.45,0.1 -0.12,0.03 -0.21,0.07 -0.28,0.1 -0.07,0.04 -0.12,0.08 -0.14,0.12 -0.03,0.05 -0.05,0.1 -0.06,0.17 l -0.64,5.94 v 0.08 l -0.03,-0.08 -2.51,-5.39 c -0.03,-0.06 -0.07,-0.1 -0.11,-0.14 -0.05,-0.03 -0.11,-0.05 -0.19,-0.06 -0.08,-0.01 -0.18,-0.01 -0.3,0 -0.12,0.01 -0.26,0.03 -0.43,0.06 -0.18,0.04 -0.33,0.07 -0.44,0.1 -0.11,0.03 -0.2,0.06 -0.27,0.1 -0.07,0.04 -0.11,0.08 -0.14,0.12 -0.03,0.05 -0.05,0.1 -0.05,0.16 l -0.98,7.8 c -0.01,0.1 -0.02,0.17 -0.02,0.23 0,0.06 0,0.11 0.01,0.15 0.01,0.05 0.02,0.09 0.05,0.12 0.03,0.03 0.08,0.05 0.13,0.06 0.06,0.01 0.14,0.01 0.23,0 0.09,-0.01 0.21,-0.03 0.34,-0.05 0.16,-0.03 0.29,-0.06 0.39,-0.08 0.09,-0.03 0.17,-0.06 0.22,-0.09 0.04,-0.02 0.08,-0.06 0.09,-0.1 0.02,-0.04 0.03,-0.09 0.04,-0.15 l 0.75,-6.75 v -0.08 l 0.03,0.07 2.86,6.12 c 0.02,0.05 0.04,0.1 0.08,0.13 0.03,0.03 0.07,0.05 0.13,0.07 0.05,0.01 0.13,0.01 0.22,0 0.09,-0.01 0.21,-0.02 0.35,-0.05 0.14,-0.02 0.25,-0.05 0.34,-0.07 0.09,-0.02 0.16,-0.05 0.2,-0.08 0.05,-0.03 0.08,-0.06 0.1,-0.1 0.02,-0.04 0.03,-0.09 0.03,-0.13 l 0.73,-6.77 0.01,-0.08 0.02,0.07 2.98,6.1 c 0.02,0.05 0.05,0.09 0.08,0.13 0.03,0.03 0.08,0.05 0.14,0.06 0.05,0.01 0.13,0.01 0.23,0.01 0.09,-0.01 0.22,-0.03 0.37,-0.06 0.14,-0.02 0.25,-0.04 0.33,-0.06 0.08,-0.02 0.15,-0.05 0.19,-0.08 0.05,-0.03 0.08,-0.06 0.09,-0.1 0.02,-0.03 0.02,-0.07 0.01,-0.12 z m 6.21,-1.64 c -0.02,-0.13 -0.04,-0.23 -0.07,-0.32 -0.02,-0.08 -0.04,-0.15 -0.07,-0.19 -0.02,-0.05 -0.05,-0.08 -0.08,-0.11 -0.03,-0.02 -0.07,-0.02 -0.12,-0.02 -0.04,0.01 -0.1,0.04 -0.16,0.07 -0.06,0.04 -0.13,0.08 -0.21,0.12 -0.08,0.04 -0.17,0.08 -0.27,0.12 -0.1,0.05 -0.21,0.08 -0.33,0.1 -0.14,0.02 -0.29,0.02 -0.44,-0.01 -0.15,-0.04 -0.31,-0.11 -0.49,-0.21 -0.17,-0.11 -0.36,-0.26 -0.57,-0.45 -0.2,-0.19 -0.44,-0.42 -0.69,-0.7 l -0.9,-5.13 c -0.01,-0.05 -0.03,-0.08 -0.06,-0.11 -0.03,-0.03 -0.07,-0.05 -0.13,-0.06 -0.05,-0.02 -0.13,-0.02 -0.22,-0.02 -0.1,0.01 -0.22,0.02 -0.36,0.05 -0.14,0.02 -0.25,0.05 -0.34,0.08 -0.09,0.02 -0.16,0.05 -0.21,0.09 -0.06,0.03 -0.09,0.06 -0.1,0.1 -0.02,0.03 -0.02,0.08 -0.01,0.12 l 1.37,7.79 c 0,0.05 0.02,0.09 0.04,0.11 0.02,0.03 0.06,0.06 0.12,0.07 0.06,0.02 0.13,0.03 0.21,0.02 0.08,-0.01 0.19,-0.02 0.32,-0.04 0.13,-0.03 0.23,-0.05 0.32,-0.07 0.08,-0.03 0.14,-0.05 0.18,-0.09 0.04,-0.03 0.07,-0.07 0.09,-0.1 0.01,-0.04 0.01,-0.08 0.01,-0.12 l -0.2,-1.14 c 0.26,0.28 0.51,0.49 0.73,0.66 0.22,0.16 0.43,0.28 0.62,0.37 0.18,0.08 0.36,0.13 0.53,0.14 0.18,0.02 0.35,0.01 0.51,-0.02 0.08,-0.01 0.16,-0.03 0.26,-0.06 0.09,-0.02 0.19,-0.06 0.29,-0.1 0.1,-0.04 0.19,-0.08 0.26,-0.12 0.08,-0.05 0.14,-0.09 0.17,-0.12 0.03,-0.04 0.04,-0.07 0.05,-0.1 0.01,-0.02 0.01,-0.06 0.01,-0.1 0.01,-0.04 0,-0.1 -0.01,-0.18 -0.01,-0.08 -0.03,-0.19 -0.05,-0.32 z m 1.74,-7.81 c -0.01,-0.04 -0.02,-0.08 -0.05,-0.11 -0.03,-0.03 -0.07,-0.05 -0.13,-0.06 -0.06,-0.02 -0.13,-0.02 -0.23,-0.02 -0.09,0.01 -0.21,0.02 -0.35,0.05 -0.14,0.02 -0.26,0.05 -0.35,0.08 -0.09,0.02 -0.16,0.06 -0.21,0.09 -0.05,0.03 -0.08,0.06 -0.1,0.1 -0.01,0.04 -0.01,0.08 -0.01,0.12 l 1.37,7.79 c 0.01,0.04 0.03,0.08 0.05,0.11 0.03,0.03 0.07,0.05 0.13,0.07 0.06,0.01 0.13,0.01 0.23,0.01 0.09,0 0.21,-0.02 0.35,-0.04 0.14,-0.03 0.26,-0.06 0.35,-0.08 0.09,-0.03 0.16,-0.06 0.21,-0.09 0.05,-0.04 0.08,-0.07 0.09,-0.11 0.02,-0.04 0.03,-0.08 0.02,-0.12 z m 2,10.39 c -0.06,-0.33 -0.17,-0.55 -0.31,-0.65 -0.15,-0.09 -0.4,-0.11 -0.74,-0.05 -0.33,0.05 -0.55,0.15 -0.65,0.29 -0.11,0.14 -0.13,0.38 -0.07,0.71 0.06,0.33 0.16,0.55 0.31,0.65 0.15,0.1 0.39,0.12 0.73,0.06 0.34,-0.06 0.55,-0.16 0.66,-0.3 0.1,-0.14 0.12,-0.38 0.07,-0.71 z m 4.74,-10.98 c -0.03,-0.17 -0.06,-0.3 -0.1,-0.4 -0.04,-0.09 -0.09,-0.16 -0.14,-0.19 -0.06,-0.04 -0.13,-0.07 -0.23,-0.1 -0.1,-0.02 -0.21,-0.04 -0.34,-0.04 -0.12,-0.01 -0.25,-0.01 -0.38,0 -0.14,0.01 -0.27,0.02 -0.41,0.04 -0.4,0.07 -0.74,0.19 -1.01,0.35 -0.27,0.15 -0.48,0.36 -0.62,0.61 -0.15,0.24 -0.24,0.54 -0.26,0.89 -0.03,0.35 0,0.74 0.08,1.19 l 0.8,4.56 -1.09,0.19 c -0.09,0.01 -0.15,0.07 -0.19,0.17 -0.03,0.11 -0.03,0.26 0.01,0.47 0.02,0.11 0.04,0.2 0.07,0.27 0.02,0.07 0.05,0.13 0.09,0.18 0.03,0.04 0.06,0.07 0.1,0.08 0.05,0.02 0.09,0.02 0.14,0.01 l 1.08,-0.19 0.32,1.86 c 0.01,0.04 0.03,0.07 0.05,0.1 0.03,0.03 0.07,0.06 0.13,0.07 0.06,0.02 0.14,0.03 0.23,0.02 0.1,0 0.21,-0.02 0.35,-0.04 0.15,-0.03 0.26,-0.05 0.35,-0.08 0.09,-0.03 0.16,-0.06 0.21,-0.1 0.05,-0.03 0.08,-0.07 0.1,-0.11 0.01,-0.04 0.02,-0.07 0.01,-0.12 l -0.32,-1.85 2,-0.35 c 0.04,-0.01 0.08,-0.02 0.11,-0.05 0.03,-0.03 0.06,-0.07 0.07,-0.12 0.02,-0.05 0.03,-0.12 0.03,-0.2 0,-0.07 -0.01,-0.17 -0.03,-0.28 -0.04,-0.2 -0.09,-0.35 -0.16,-0.43 -0.07,-0.09 -0.15,-0.12 -0.23,-0.1 l -2,0.35 -0.77,-4.35 c -0.09,-0.54 -0.08,-0.96 0.03,-1.26 0.11,-0.3 0.37,-0.49 0.78,-0.56 0.13,-0.02 0.25,-0.03 0.36,-0.02 0.11,0.01 0.21,0.02 0.29,0.03 0.09,0.02 0.16,0.03 0.22,0.05 0.07,0.01 0.12,0.02 0.17,0.01 0.03,-0.01 0.05,-0.02 0.08,-0.04 0.02,-0.02 0.03,-0.05 0.04,-0.09 0.01,-0.04 0.01,-0.1 0.01,-0.17 0,-0.07 -0.01,-0.16 -0.03,-0.26 z m 3.19,-1.15 c -0.01,-0.05 -0.03,-0.09 -0.06,-0.11 -0.02,-0.03 -0.07,-0.05 -0.12,-0.07 -0.06,-0.01 -0.13,-0.01 -0.23,-0.01 -0.09,0.01 -0.21,0.02 -0.36,0.05 -0.13,0.02 -0.25,0.05 -0.34,0.07 -0.09,0.03 -0.16,0.06 -0.21,0.09 -0.05,0.04 -0.08,0.07 -0.1,0.11 -0.01,0.03 -0.02,0.07 -0.01,0.12 l 1.37,7.79 c 0.01,0.04 0.02,0.08 0.05,0.11 0.03,0.03 0.07,0.05 0.13,0.06 0.06,0.02 0.13,0.02 0.23,0.02 0.09,-0.01 0.21,-0.02 0.35,-0.05 0.14,-0.02 0.26,-0.05 0.35,-0.08 0.09,-0.02 0.16,-0.05 0.21,-0.09 0.04,-0.03 0.08,-0.06 0.09,-0.1 0.02,-0.04 0.03,-0.08 0.02,-0.12 z m 1.99,10.39 c -0.05,-0.33 -0.16,-0.55 -0.31,-0.65 -0.14,-0.1 -0.39,-0.12 -0.73,-0.06 -0.33,0.06 -0.55,0.16 -0.66,0.3 -0.1,0.14 -0.12,0.38 -0.06,0.7 0.05,0.34 0.16,0.56 0.31,0.65 0.14,0.1 0.39,0.12 0.73,0.06 0.33,-0.06 0.55,-0.15 0.66,-0.29 0.1,-0.14 0.12,-0.38 0.06,-0.71 z m 7.31,-12.02 c -0.01,-0.05 -0.03,-0.09 -0.06,-0.12 -0.02,-0.02 -0.07,-0.04 -0.12,-0.06 -0.06,-0.01 -0.13,-0.02 -0.23,-0.01 -0.09,0 -0.21,0.02 -0.35,0.04 -0.14,0.03 -0.26,0.05 -0.35,0.08 -0.09,0.03 -0.16,0.06 -0.21,0.09 -0.05,0.03 -0.08,0.07 -0.1,0.1 -0.01,0.04 -0.02,0.08 -0.01,0.13 l 0.8,4.56 c 0.08,0.44 0.11,0.81 0.09,1.09 -0.03,0.28 -0.09,0.53 -0.18,0.75 -0.1,0.22 -0.25,0.4 -0.44,0.54 -0.19,0.15 -0.43,0.24 -0.7,0.29 -0.36,0.06 -0.74,0 -1.14,-0.19 -0.41,-0.19 -0.85,-0.5 -1.33,-0.92 l -0.95,-5.45 c -0.01,-0.04 -0.03,-0.08 -0.06,-0.11 -0.03,-0.03 -0.07,-0.05 -0.12,-0.06 -0.06,-0.01 -0.13,-0.02 -0.23,-0.01 -0.09,0 -0.21,0.01 -0.36,0.04 -0.14,0.02 -0.25,0.05 -0.34,0.08 -0.09,0.03 -0.16,0.06 -0.21,0.09 -0.05,0.03 -0.09,0.07 -0.1,0.1 -0.01,0.04 -0.02,0.08 -0.01,0.12 l 1.37,7.79 c 0.01,0.05 0.02,0.09 0.04,0.12 0.03,0.03 0.07,0.05 0.12,0.06 0.06,0.02 0.13,0.03 0.21,0.02 0.08,0 0.19,-0.02 0.32,-0.04 0.13,-0.02 0.24,-0.05 0.32,-0.07 0.08,-0.02 0.14,-0.05 0.18,-0.09 0.05,-0.03 0.07,-0.06 0.09,-0.1 0.01,-0.04 0.02,-0.08 0.01,-0.12 l -0.18,-1.03 c 0.52,0.41 1.02,0.69 1.5,0.84 0.47,0.16 0.93,0.19 1.38,0.12 0.52,-0.1 0.94,-0.26 1.26,-0.5 0.33,-0.24 0.57,-0.52 0.74,-0.86 0.17,-0.33 0.26,-0.7 0.29,-1.11 0.03,-0.42 -0.01,-0.9 -0.11,-1.45 z m 10.44,5.83 c -0.03,-0.21 -0.09,-0.35 -0.16,-0.43 -0.07,-0.08 -0.15,-0.11 -0.23,-0.09 l -1.12,0.19 c 0.17,-0.24 0.27,-0.49 0.3,-0.76 0.04,-0.26 0.04,-0.53 -0.01,-0.8 -0.08,-0.45 -0.22,-0.84 -0.43,-1.16 -0.2,-0.32 -0.46,-0.58 -0.77,-0.77 -0.31,-0.19 -0.66,-0.32 -1.05,-0.38 -0.4,-0.06 -0.82,-0.06 -1.27,0.02 -0.31,0.06 -0.61,0.15 -0.88,0.29 -0.27,0.13 -0.47,0.27 -0.61,0.43 -0.12,-0.09 -0.22,-0.19 -0.31,-0.31 -0.09,-0.12 -0.15,-0.27 -0.18,-0.44 -0.04,-0.2 0.02,-0.39 0.19,-0.55 0.16,-0.17 0.4,-0.29 0.71,-0.35 l 2.02,-0.45 c 0.38,-0.07 0.73,-0.19 1.04,-0.34 0.3,-0.15 0.56,-0.34 0.76,-0.56 0.21,-0.21 0.36,-0.46 0.44,-0.74 0.09,-0.28 0.11,-0.59 0.05,-0.93 -0.07,-0.36 -0.2,-0.69 -0.41,-0.99 -0.21,-0.29 -0.48,-0.54 -0.84,-0.73 -0.35,-0.19 -0.78,-0.31 -1.28,-0.37 -0.5,-0.06 -1.08,-0.03 -1.73,0.09 -0.63,0.11 -1.16,0.25 -1.58,0.44 -0.42,0.18 -0.76,0.39 -1.01,0.63 -0.25,0.23 -0.42,0.49 -0.5,0.77 -0.08,0.27 -0.1,0.56 -0.04,0.86 0.03,0.19 0.09,0.38 0.16,0.55 0.08,0.17 0.18,0.32 0.3,0.47 0.13,0.14 0.27,0.28 0.44,0.4 0.17,0.12 0.36,0.24 0.57,0.35 -0.26,0.2 -0.44,0.41 -0.53,0.66 -0.1,0.24 -0.13,0.49 -0.08,0.74 0.06,0.36 0.19,0.66 0.38,0.91 0.19,0.25 0.41,0.47 0.67,0.65 -0.15,0.24 -0.24,0.51 -0.3,0.8 -0.06,0.28 -0.05,0.62 0.01,1 0.08,0.44 0.23,0.83 0.44,1.15 0.21,0.33 0.47,0.59 0.78,0.78 0.31,0.2 0.66,0.33 1.05,0.4 0.4,0.06 0.81,0.05 1.25,-0.02 0.24,-0.05 0.46,-0.1 0.66,-0.16 0.2,-0.06 0.38,-0.13 0.56,-0.21 l 2.35,-0.41 c 0.1,-0.02 0.16,-0.08 0.2,-0.18 0.03,-0.11 0.03,-0.26 -0.01,-0.45 z m -2.59,-1.66 c 0.09,0.53 0.02,0.97 -0.22,1.32 -0.24,0.34 -0.63,0.57 -1.16,0.66 -0.28,0.05 -0.53,0.04 -0.75,-0.01 -0.22,-0.06 -0.41,-0.15 -0.58,-0.29 -0.16,-0.14 -0.3,-0.31 -0.4,-0.51 -0.1,-0.2 -0.18,-0.41 -0.22,-0.64 -0.09,-0.52 -0.01,-0.95 0.23,-1.29 0.24,-0.35 0.62,-0.57 1.15,-0.66 0.28,-0.05 0.53,-0.05 0.76,0.01 0.22,0.05 0.41,0.14 0.58,0.28 0.16,0.13 0.29,0.3 0.4,0.5 0.1,0.19 0.17,0.4 0.21,0.63 z m -0.37,-6.3 c 0.06,0.33 -0.03,0.62 -0.27,0.85 -0.24,0.23 -0.6,0.39 -1.06,0.48 l -2.01,0.42 c -0.21,-0.11 -0.38,-0.22 -0.52,-0.33 -0.15,-0.11 -0.26,-0.21 -0.35,-0.32 -0.09,-0.11 -0.16,-0.21 -0.21,-0.33 -0.04,-0.11 -0.08,-0.22 -0.1,-0.34 -0.06,-0.38 0.08,-0.7 0.42,-0.96 0.35,-0.26 0.87,-0.45 1.55,-0.57 0.43,-0.07 0.8,-0.09 1.11,-0.06 0.3,0.03 0.56,0.1 0.76,0.21 0.2,0.11 0.36,0.24 0.47,0.41 0.11,0.16 0.18,0.34 0.21,0.54 z"
           style="fill:#005ccd;fill-opacity:1;fill-rule:nonzero;stroke:none"
           id="path306"
           inkscape:connector-curvature="0" /></g></g><path
       d="m 318.54,359.4 c 0,3.74 3.04,6.78 6.78,6.78 h 100.2 c 3.74,0 6.78,-3.04 6.78,-6.78 v -27.12 c 0,-3.74 -3.04,-6.78 -6.78,-6.78 h -100.2 c -3.74,0 -6.78,3.04 -6.78,6.78 z"
       style="fill:none;stroke:#00b050;stroke-width:3;stroke-linecap:butt;stroke-linejoin:round;stroke-miterlimit:10;stroke-dasharray:none;stroke-opacity:1"
       id="path308"
       inkscape:connector-curvature="0" /><g
       id="g310"><g
         id="g312"
         clip-path="url(#clipPath316)"><text
           transform="matrix(1,0,0,-1,334.25,339.02)"
           style="font-variant:normal;font-weight:normal;font-size:20.04000092px;font-family:Arial;-inkscape-font-specification:ArialMT;writing-mode:lr-tb;fill:#000000;fill-opacity:1;fill-rule:nonzero;stroke:none"
           id="text320"><tspan
             x="0 13.36668 24.508921 31.18224 36.753361 47.895599 53.406601 60.079922 71.262238"
             y="0"
             sodipodi:role="line"
             id="tspan318">Part_tree</tspan></text>
</g></g><path
       d="m 323.7,354.86 c 0,3.73 3.03,6.76 6.76,6.76 H 430.7 c 3.73,0 6.76,-3.03 6.76,-6.76 v -27.04 c 0,-3.73 -3.03,-6.76 -6.76,-6.76 H 330.46 c -3.73,0 -6.76,3.03 -6.76,6.76 z"
       style="fill:#ffffff;fill-opacity:1;fill-rule:evenodd;stroke:none"
       id="path322"
       inkscape:connector-curvature="0" /><path
       d="m 323.7,354.86 c 0,3.73 3.03,6.76 6.76,6.76 H 430.7 c 3.73,0 6.76,-3.03 6.76,-6.76 v -27.04 c 0,-3.73 -3.03,-6.76 -6.76,-6.76 H 330.46 c -3.73,0 -6.76,3.03 -6.76,6.76 z"
       style="fill:none;stroke:#00b050;stroke-width:3;stroke-linecap:butt;stroke-linejoin:round;stroke-miterlimit:10;stroke-dasharray:none;stroke-opacity:1"
       id="path324"
       inkscape:connector-curvature="0" /><g
       id="g326"><g
         id="g328"
         clip-path="url(#clipPath332)"><text
           transform="matrix(1,0,0,-1,339.38,334.51)"
           style="font-variant:normal;font-weight:normal;font-size:20.04000092px;font-family:Arial;-inkscape-font-specification:ArialMT;writing-mode:lr-tb;fill:#000000;fill-opacity:1;fill-rule:nonzero;stroke:none"
           id="text336"><tspan
             x="0 13.36668 24.508921 31.18224 36.753361 47.895599 53.406601 60.079922 71.262238"
             y="0"
             sodipodi:role="line"
             id="tspan334">Part_tree</tspan></text>
</g></g><path
       d="m 328.86,350.42 c 0,3.73 3.03,6.76 6.76,6.76 h 100.24 c 3.73,0 6.76,-3.03 6.76,-6.76 v -27.04 c 0,-3.73 -3.03,-6.76 -6.76,-6.76 H 335.62 c -3.73,0 -6.76,3.03 -6.76,6.76 z"
       style="fill:#ffffff;fill-opacity:1;fill-rule:evenodd;stroke:none"
       id="path338"
       inkscape:connector-curvature="0" /><path
       d="m 328.86,350.42 c 0,3.73 3.03,6.76 6.76,6.76 h 100.24 c 3.73,0 6.76,-3.03 6.76,-6.76 v -27.04 c 0,-3.73 -3.03,-6.76 -6.76,-6.76 H 335.62 c -3.73,0 -6.76,3.03 -6.76,6.76 z"
       style="fill:none;stroke:#00b050;stroke-width:3;stroke-linecap:butt;stroke-linejoin:round;stroke-miterlimit:10;stroke-dasharray:none;stroke-opacity:1"
       id="path340"
       inkscape:connector-curvature="0" /><g
       id="g342"><g
         id="g344"
         clip-path="url(#clipPath348)"><text
           transform="matrix(1,0,0,-1,345.58,330.05)"
           style="font-variant:normal;font-weight:normal;font-size:20.04000092px;font-family:Arial;-inkscape-font-specification:ArialMT;writing-mode:lr-tb;fill:#000000;fill-opacity:1;fill-rule:nonzero;stroke:none"
           id="text352"><tspan
             x="0 11.14224 22.344601 29.01792 34.589039 45.731281 51.302399 57.975719 69.178078"
             y="0"
             sodipodi:role="line"
             id="tspan350">part_tree</tspan></text>
</g></g><g
       id="g354"><g
         id="g356"
         clip-path="url(#clipPath360)"><path
           d="m 174.05,479.22 c -0.11,-0.56 -0.29,-1.05 -0.56,-1.46 -0.27,-0.42 -0.6,-0.75 -1,-1.01 -0.41,-0.25 -0.87,-0.41 -1.4,-0.5 -0.53,-0.08 -1.14,-0.05 -1.83,0.08 l -1.27,0.23 -0.75,-4.02 c -0.01,-0.05 -0.03,-0.09 -0.06,-0.12 -0.04,-0.03 -0.08,-0.05 -0.14,-0.06 -0.06,-0.01 -0.14,-0.01 -0.23,-0.01 -0.1,0.01 -0.22,0.02 -0.37,0.05 -0.14,0.02 -0.26,0.05 -0.35,0.09 -0.09,0.03 -0.17,0.06 -0.22,0.09 -0.06,0.03 -0.09,0.07 -0.11,0.11 -0.01,0.03 -0.02,0.08 -0.01,0.12 l 1.92,10.32 c 0.04,0.23 0.13,0.38 0.27,0.46 0.14,0.07 0.28,0.1 0.43,0.07 l 2.4,-0.44 c 0.24,-0.05 0.47,-0.1 0.69,-0.16 0.22,-0.07 0.47,-0.16 0.76,-0.28 0.29,-0.12 0.58,-0.3 0.86,-0.54 0.28,-0.24 0.5,-0.52 0.67,-0.82 0.17,-0.31 0.28,-0.64 0.33,-1.02 0.06,-0.37 0.05,-0.76 -0.03,-1.18 z m -1.59,0.17 c 0.09,0.45 0.07,0.85 -0.04,1.19 -0.11,0.33 -0.28,0.6 -0.51,0.8 -0.22,0.19 -0.46,0.34 -0.72,0.43 -0.26,0.09 -0.52,0.15 -0.77,0.2 l -1.38,0.26 -0.83,-4.49 1.34,-0.25 c 0.45,-0.08 0.83,-0.09 1.15,-0.03 0.32,0.06 0.6,0.17 0.84,0.34 0.24,0.17 0.44,0.38 0.59,0.65 0.16,0.26 0.27,0.56 0.33,0.9 z m 7.71,-9.27 c -0.01,-0.07 -0.04,-0.12 -0.1,-0.15 -0.05,-0.02 -0.12,-0.04 -0.2,-0.04 -0.08,0 -0.2,0.01 -0.36,0.04 -0.15,0.03 -0.27,0.06 -0.35,0.09 -0.09,0.04 -0.15,0.07 -0.18,0.12 -0.04,0.04 -0.05,0.09 -0.03,0.16 l 0.14,0.78 c -0.41,-0.3 -0.84,-0.51 -1.29,-0.63 -0.46,-0.13 -0.92,-0.15 -1.39,-0.06 -0.41,0.08 -0.77,0.2 -1.08,0.37 -0.31,0.16 -0.56,0.37 -0.76,0.61 -0.19,0.25 -0.33,0.53 -0.4,0.85 -0.08,0.32 -0.08,0.66 -0.01,1.04 0.08,0.44 0.24,0.8 0.48,1.09 0.24,0.29 0.54,0.51 0.92,0.66 0.37,0.15 0.81,0.23 1.31,0.25 0.51,0.02 1.06,-0.03 1.66,-0.14 l 1.08,-0.2 0.11,0.6 c 0.05,0.3 0.07,0.57 0.05,0.82 -0.02,0.24 -0.09,0.45 -0.2,0.63 -0.11,0.18 -0.27,0.33 -0.48,0.44 -0.21,0.12 -0.48,0.21 -0.81,0.28 -0.35,0.06 -0.68,0.08 -0.97,0.05 -0.3,-0.04 -0.56,-0.08 -0.79,-0.14 -0.23,-0.07 -0.42,-0.13 -0.57,-0.18 -0.16,-0.06 -0.27,-0.08 -0.34,-0.07 -0.05,0.01 -0.09,0.03 -0.12,0.06 -0.03,0.03 -0.05,0.07 -0.07,0.12 -0.02,0.05 -0.02,0.11 -0.02,0.19 0,0.07 0.01,0.15 0.02,0.24 0.03,0.14 0.06,0.25 0.1,0.33 0.03,0.08 0.1,0.15 0.19,0.21 0.09,0.06 0.24,0.13 0.45,0.19 0.21,0.07 0.44,0.12 0.71,0.16 0.26,0.03 0.54,0.05 0.85,0.05 0.3,0 0.6,-0.02 0.9,-0.08 0.56,-0.1 1.03,-0.26 1.39,-0.46 0.37,-0.19 0.65,-0.44 0.85,-0.73 0.2,-0.29 0.32,-0.63 0.36,-1.01 0.04,-0.38 0.02,-0.82 -0.07,-1.3 z m -0.75,3.81 -1.22,0.23 c -0.39,0.07 -0.74,0.1 -1.04,0.09 -0.3,-0.02 -0.56,-0.07 -0.77,-0.16 -0.22,-0.1 -0.39,-0.23 -0.51,-0.39 -0.12,-0.17 -0.21,-0.37 -0.25,-0.6 -0.07,-0.41 -0.01,-0.75 0.21,-1.04 0.21,-0.29 0.54,-0.47 1.01,-0.56 0.37,-0.07 0.73,-0.04 1.09,0.09 0.35,0.13 0.74,0.36 1.17,0.69 z m 9.29,2.13 c -0.03,-0.13 -0.05,-0.24 -0.07,-0.32 -0.02,-0.09 -0.05,-0.15 -0.07,-0.2 -0.03,-0.04 -0.06,-0.08 -0.09,-0.1 -0.03,-0.02 -0.07,-0.03 -0.12,-0.02 -0.04,0.01 -0.1,0.03 -0.16,0.07 -0.06,0.04 -0.13,0.08 -0.21,0.12 -0.08,0.04 -0.16,0.09 -0.26,0.13 -0.1,0.04 -0.21,0.07 -0.33,0.1 -0.15,0.02 -0.3,0.02 -0.44,-0.01 -0.15,-0.03 -0.32,-0.1 -0.49,-0.21 -0.18,-0.1 -0.37,-0.25 -0.58,-0.43 -0.21,-0.19 -0.44,-0.43 -0.7,-0.71 l -0.95,-5.11 c -0.01,-0.05 -0.03,-0.08 -0.06,-0.11 -0.03,-0.03 -0.07,-0.05 -0.13,-0.06 -0.05,-0.02 -0.13,-0.02 -0.22,-0.01 -0.1,0 -0.22,0.02 -0.36,0.04 -0.14,0.03 -0.25,0.06 -0.34,0.09 -0.09,0.02 -0.16,0.06 -0.21,0.09 -0.05,0.03 -0.09,0.07 -0.1,0.1 -0.02,0.04 -0.02,0.08 -0.01,0.12 l 1.45,7.78 c 0,0.05 0.02,0.08 0.04,0.11 0.03,0.03 0.07,0.05 0.12,0.07 0.06,0.02 0.13,0.02 0.21,0.01 0.08,0 0.19,-0.02 0.32,-0.04 0.13,-0.03 0.23,-0.05 0.32,-0.07 0.08,-0.03 0.14,-0.06 0.18,-0.09 0.04,-0.04 0.07,-0.07 0.08,-0.11 0.02,-0.03 0.02,-0.07 0.01,-0.12 l -0.21,-1.13 c 0.27,0.27 0.52,0.49 0.74,0.65 0.23,0.16 0.43,0.28 0.62,0.36 0.19,0.08 0.37,0.13 0.54,0.14 0.17,0.02 0.34,0.01 0.51,-0.02 0.08,-0.02 0.16,-0.04 0.25,-0.06 0.1,-0.03 0.19,-0.07 0.29,-0.11 0.1,-0.04 0.19,-0.08 0.27,-0.13 0.08,-0.04 0.13,-0.08 0.16,-0.12 0.03,-0.03 0.05,-0.06 0.05,-0.09 0.01,-0.03 0.01,-0.06 0.02,-0.11 0,-0.04 -0.01,-0.1 -0.02,-0.18 -0.01,-0.08 -0.03,-0.18 -0.05,-0.31 z m 5.74,-8.6 c -0.01,-0.07 -0.05,-0.11 -0.1,-0.14 -0.05,-0.03 -0.12,-0.04 -0.2,-0.04 -0.09,0 -0.21,0.01 -0.36,0.04 -0.15,0.03 -0.27,0.06 -0.36,0.09 -0.08,0.03 -0.14,0.07 -0.18,0.11 -0.03,0.05 -0.04,0.1 -0.03,0.17 l 0.15,0.78 c -0.41,-0.3 -0.84,-0.51 -1.3,-0.64 -0.45,-0.12 -0.91,-0.14 -1.38,-0.05 -0.41,0.07 -0.77,0.19 -1.08,0.36 -0.31,0.17 -0.57,0.38 -0.76,0.62 -0.2,0.25 -0.33,0.53 -0.41,0.85 -0.07,0.31 -0.08,0.66 -0.01,1.04 0.08,0.43 0.24,0.8 0.48,1.09 0.24,0.29 0.55,0.51 0.92,0.66 0.38,0.15 0.81,0.23 1.32,0.25 0.5,0.02 1.06,-0.03 1.66,-0.15 l 1.07,-0.19 0.11,0.6 c 0.06,0.3 0.08,0.57 0.06,0.81 -0.02,0.25 -0.09,0.46 -0.2,0.63 -0.12,0.18 -0.28,0.33 -0.49,0.45 -0.21,0.12 -0.48,0.21 -0.81,0.27 -0.35,0.07 -0.67,0.09 -0.96,0.05 -0.3,-0.03 -0.56,-0.07 -0.79,-0.14 -0.23,-0.06 -0.42,-0.12 -0.58,-0.17 -0.16,-0.06 -0.27,-0.08 -0.34,-0.07 -0.04,0.01 -0.08,0.03 -0.11,0.06 -0.03,0.02 -0.06,0.07 -0.07,0.12 -0.02,0.05 -0.03,0.11 -0.03,0.18 0,0.08 0.01,0.16 0.03,0.24 0.03,0.15 0.06,0.26 0.09,0.34 0.04,0.08 0.1,0.15 0.19,0.21 0.1,0.06 0.25,0.12 0.46,0.19 0.2,0.06 0.44,0.12 0.7,0.15 0.27,0.04 0.55,0.06 0.85,0.06 0.31,0 0.61,-0.03 0.91,-0.08 0.56,-0.11 1.02,-0.26 1.39,-0.46 0.37,-0.2 0.65,-0.44 0.85,-0.73 0.19,-0.29 0.31,-0.63 0.35,-1.01 0.05,-0.38 0.02,-0.82 -0.07,-1.3 z m -0.76,3.82 -1.22,0.22 c -0.39,0.08 -0.74,0.11 -1.04,0.09 -0.3,-0.01 -0.55,-0.06 -0.77,-0.16 -0.21,-0.09 -0.38,-0.22 -0.5,-0.39 -0.13,-0.16 -0.21,-0.36 -0.25,-0.6 -0.08,-0.4 -0.01,-0.75 0.2,-1.03 0.21,-0.29 0.55,-0.47 1.01,-0.56 0.38,-0.07 0.74,-0.04 1.1,0.09 0.35,0.13 0.74,0.36 1.16,0.69 z m 4.82,-4.56 c -0.01,-0.05 -0.03,-0.09 -0.05,-0.11 -0.03,-0.03 -0.08,-0.05 -0.13,-0.06 -0.06,-0.02 -0.13,-0.02 -0.23,-0.02 -0.09,0.01 -0.21,0.03 -0.36,0.05 -0.13,0.03 -0.25,0.05 -0.34,0.08 -0.09,0.03 -0.16,0.06 -0.21,0.1 -0.05,0.03 -0.08,0.06 -0.1,0.1 -0.01,0.03 -0.01,0.08 0,0.12 l 2.14,11.55 c 0.01,0.04 0.03,0.08 0.05,0.11 0.03,0.03 0.07,0.05 0.13,0.07 0.06,0.01 0.14,0.01 0.23,0.01 0.1,-0.01 0.21,-0.02 0.35,-0.05 0.14,-0.03 0.26,-0.05 0.35,-0.08 0.09,-0.03 0.16,-0.06 0.21,-0.09 0.05,-0.04 0.08,-0.07 0.09,-0.11 0.02,-0.04 0.03,-0.08 0.02,-0.13 z m 4.01,-0.75 c -0.01,-0.04 -0.02,-0.08 -0.05,-0.11 -0.03,-0.03 -0.07,-0.05 -0.13,-0.06 -0.06,-0.01 -0.13,-0.02 -0.23,-0.01 -0.09,0 -0.21,0.02 -0.35,0.05 -0.14,0.02 -0.26,0.05 -0.35,0.08 -0.09,0.03 -0.16,0.06 -0.21,0.09 -0.05,0.03 -0.08,0.07 -0.09,0.1 -0.02,0.04 -0.02,0.08 -0.01,0.13 l 2.14,11.54 c 0.01,0.05 0.03,0.09 0.05,0.12 0.03,0.03 0.07,0.05 0.13,0.06 0.06,0.01 0.14,0.02 0.23,0.01 0.1,0 0.21,-0.02 0.35,-0.04 0.15,-0.03 0.26,-0.06 0.35,-0.09 0.09,-0.03 0.16,-0.06 0.21,-0.09 0.05,-0.03 0.08,-0.07 0.1,-0.11 0.01,-0.04 0.02,-0.08 0.01,-0.12 z m 10.01,2.51 c -0.04,-0.22 -0.13,-0.37 -0.26,-0.44 -0.13,-0.08 -0.27,-0.1 -0.41,-0.08 l -5.12,0.96 c -0.08,-0.44 -0.11,-0.83 -0.09,-1.19 0.02,-0.37 0.11,-0.69 0.27,-0.98 0.16,-0.28 0.38,-0.52 0.68,-0.71 0.3,-0.2 0.69,-0.34 1.16,-0.42 0.37,-0.07 0.7,-0.1 1,-0.1 0.3,0.01 0.57,0.03 0.79,0.07 0.23,0.03 0.41,0.07 0.56,0.1 0.15,0.04 0.26,0.05 0.33,0.04 0.04,-0.01 0.07,-0.03 0.1,-0.05 0.03,-0.03 0.05,-0.06 0.06,-0.11 0.01,-0.04 0.01,-0.1 0,-0.17 0,-0.08 -0.01,-0.17 -0.03,-0.27 -0.02,-0.07 -0.03,-0.14 -0.05,-0.19 -0.01,-0.06 -0.03,-0.1 -0.05,-0.14 -0.01,-0.05 -0.03,-0.08 -0.06,-0.11 -0.03,-0.03 -0.06,-0.06 -0.1,-0.09 -0.03,-0.02 -0.14,-0.06 -0.31,-0.1 -0.17,-0.04 -0.38,-0.08 -0.64,-0.1 -0.26,-0.02 -0.56,-0.03 -0.9,-0.03 -0.33,0.01 -0.68,0.05 -1.05,0.11 -0.64,0.12 -1.19,0.32 -1.63,0.58 -0.45,0.27 -0.81,0.61 -1.07,1.03 -0.26,0.41 -0.43,0.89 -0.5,1.46 -0.07,0.56 -0.03,1.19 0.1,1.89 0.12,0.67 0.32,1.25 0.59,1.75 0.27,0.51 0.61,0.91 1,1.22 0.39,0.31 0.84,0.53 1.34,0.64 0.5,0.11 1.03,0.12 1.6,0.01 0.61,-0.11 1.11,-0.31 1.51,-0.58 0.39,-0.28 0.69,-0.61 0.91,-0.99 0.21,-0.38 0.34,-0.81 0.39,-1.28 0.05,-0.47 0.02,-0.96 -0.07,-1.47 z m -1.36,0.69 c 0.16,0.75 0.1,1.37 -0.17,1.86 -0.27,0.49 -0.75,0.8 -1.44,0.93 -0.35,0.06 -0.68,0.06 -0.97,-0.03 -0.29,-0.08 -0.54,-0.21 -0.76,-0.4 -0.22,-0.19 -0.41,-0.41 -0.56,-0.69 -0.16,-0.27 -0.27,-0.56 -0.34,-0.88 z m 4.21,-5.59 c -0.01,-0.04 -0.02,-0.08 -0.05,-0.11 -0.03,-0.03 -0.07,-0.05 -0.13,-0.06 -0.06,-0.01 -0.13,-0.02 -0.23,-0.01 -0.09,0 -0.21,0.02 -0.35,0.05 -0.14,0.02 -0.26,0.05 -0.35,0.08 -0.09,0.03 -0.16,0.06 -0.21,0.09 -0.05,0.03 -0.08,0.07 -0.09,0.1 -0.02,0.04 -0.02,0.08 -0.01,0.13 l 2.14,11.54 c 0.01,0.05 0.03,0.09 0.05,0.12 0.03,0.03 0.07,0.05 0.13,0.06 0.06,0.02 0.14,0.02 0.23,0.01 0.1,0 0.21,-0.02 0.35,-0.04 0.15,-0.03 0.26,-0.06 0.35,-0.09 0.09,-0.03 0.16,-0.06 0.21,-0.09 0.05,-0.03 0.08,-0.07 0.1,-0.11 0.01,-0.04 0.02,-0.08 0.01,-0.12 z"
           style="fill:#ff0000;fill-opacity:1;fill-rule:nonzero;stroke:none"
           id="path362"
           inkscape:connector-curvature="0" /></g></g><g
       id="g364"><g
         id="g366"
         clip-path="url(#clipPath370)"><path
           d="m 228.4,472.52 c -0.02,-0.11 -0.05,-0.2 -0.07,-0.26 -0.02,-0.07 -0.05,-0.12 -0.07,-0.16 -0.02,-0.03 -0.04,-0.06 -0.07,-0.07 -0.03,-0.01 -0.06,-0.01 -0.09,0 -0.04,0 -0.09,0.03 -0.14,0.06 -0.06,0.04 -0.13,0.08 -0.21,0.13 -0.08,0.05 -0.18,0.1 -0.29,0.14 -0.11,0.05 -0.25,0.09 -0.4,0.12 -0.22,0.04 -0.4,0.04 -0.57,0 -0.16,-0.04 -0.3,-0.13 -0.42,-0.26 -0.12,-0.13 -0.22,-0.31 -0.3,-0.53 -0.09,-0.23 -0.16,-0.51 -0.22,-0.84 l -0.16,-0.85 1.74,-0.32 c 0.04,-0.01 0.08,-0.03 0.11,-0.05 0.03,-0.03 0.05,-0.07 0.07,-0.12 0.01,-0.06 0.02,-0.12 0.02,-0.2 0,-0.08 -0.01,-0.17 -0.03,-0.28 -0.04,-0.21 -0.09,-0.35 -0.16,-0.44 -0.07,-0.08 -0.15,-0.11 -0.23,-0.1 l -1.74,0.33 -1.27,-6.82 c 0,-0.05 -0.02,-0.08 -0.05,-0.11 -0.03,-0.03 -0.08,-0.05 -0.13,-0.06 -0.06,-0.01 -0.14,-0.02 -0.23,-0.01 -0.1,0 -0.22,0.02 -0.35,0.04 -0.14,0.03 -0.26,0.06 -0.35,0.09 -0.09,0.02 -0.16,0.06 -0.21,0.09 -0.05,0.03 -0.08,0.07 -0.1,0.1 -0.01,0.04 -0.02,0.08 -0.01,0.13 l 1.27,6.81 -1.1,0.21 c -0.09,0.01 -0.15,0.07 -0.18,0.17 -0.03,0.1 -0.03,0.26 0.01,0.47 0.02,0.11 0.04,0.2 0.07,0.27 0.03,0.07 0.05,0.13 0.09,0.18 0.03,0.04 0.06,0.07 0.1,0.08 0.04,0.02 0.08,0.02 0.13,0.01 l 1.1,-0.2 0.15,0.8 c 0.1,0.54 0.23,1 0.41,1.37 0.17,0.37 0.38,0.66 0.64,0.87 0.25,0.21 0.54,0.34 0.88,0.4 0.34,0.06 0.72,0.05 1.14,-0.03 0.2,-0.04 0.4,-0.09 0.58,-0.16 0.18,-0.08 0.32,-0.14 0.42,-0.21 0.09,-0.06 0.16,-0.11 0.18,-0.15 0.03,-0.04 0.05,-0.09 0.07,-0.15 0.01,-0.06 0.01,-0.13 0.01,-0.21 -0.01,-0.08 -0.02,-0.17 -0.04,-0.28 z m 0.55,-11.46 c -0.01,-0.05 -0.03,-0.08 -0.06,-0.11 -0.02,-0.03 -0.07,-0.05 -0.12,-0.06 -0.06,-0.01 -0.13,-0.02 -0.23,-0.01 -0.09,0 -0.21,0.02 -0.36,0.05 -0.13,0.02 -0.25,0.05 -0.34,0.08 -0.09,0.03 -0.16,0.06 -0.21,0.09 -0.05,0.03 -0.08,0.07 -0.1,0.1 -0.01,0.04 -0.01,0.08 -0.01,0.13 l 1.45,7.77 c 0.01,0.04 0.02,0.08 0.05,0.11 0.03,0.03 0.07,0.05 0.13,0.07 0.06,0.01 0.14,0.01 0.23,0.01 0.09,-0.01 0.21,-0.03 0.35,-0.05 0.14,-0.03 0.26,-0.06 0.35,-0.08 0.09,-0.03 0.16,-0.06 0.21,-0.1 0.04,-0.03 0.08,-0.06 0.09,-0.1 0.02,-0.04 0.02,-0.08 0.02,-0.12 z m 2.1,10.37 c -0.06,-0.33 -0.17,-0.55 -0.32,-0.64 -0.15,-0.1 -0.39,-0.12 -0.73,-0.05 -0.34,0.06 -0.55,0.16 -0.66,0.3 -0.1,0.14 -0.12,0.38 -0.06,0.7 0.06,0.34 0.17,0.55 0.32,0.65 0.15,0.1 0.39,0.12 0.73,0.05 0.34,-0.06 0.55,-0.16 0.66,-0.3 0.1,-0.14 0.12,-0.38 0.06,-0.71 z m 1.91,-11.11 c -0.01,-0.05 -0.03,-0.09 -0.05,-0.11 -0.03,-0.03 -0.08,-0.05 -0.13,-0.07 -0.06,-0.01 -0.13,-0.01 -0.23,-0.01 -0.09,0.01 -0.21,0.02 -0.36,0.05 -0.13,0.03 -0.25,0.05 -0.34,0.08 -0.09,0.03 -0.16,0.06 -0.21,0.1 -0.05,0.03 -0.08,0.06 -0.1,0.1 -0.01,0.03 -0.01,0.07 0,0.12 l 2.14,11.55 c 0.01,0.04 0.03,0.08 0.05,0.11 0.03,0.03 0.07,0.05 0.13,0.07 0.06,0.01 0.14,0.01 0.23,0.01 0.1,-0.01 0.21,-0.02 0.35,-0.05 0.15,-0.03 0.26,-0.05 0.35,-0.08 0.09,-0.03 0.16,-0.06 0.21,-0.1 0.05,-0.03 0.08,-0.06 0.09,-0.1 0.02,-0.04 0.03,-0.08 0.02,-0.13 z m 10.01,2.51 c -0.04,-0.23 -0.13,-0.38 -0.26,-0.45 -0.13,-0.07 -0.27,-0.1 -0.41,-0.07 l -5.12,0.95 c -0.08,-0.43 -0.11,-0.83 -0.09,-1.19 0.02,-0.36 0.11,-0.69 0.27,-0.97 0.16,-0.29 0.38,-0.53 0.68,-0.72 0.3,-0.19 0.69,-0.33 1.16,-0.42 0.37,-0.07 0.7,-0.1 1,-0.09 0.3,0.01 0.57,0.03 0.79,0.06 0.23,0.04 0.41,0.07 0.56,0.11 0.15,0.03 0.26,0.04 0.32,0.03 0.05,-0.01 0.08,-0.02 0.11,-0.05 0.03,-0.02 0.04,-0.06 0.05,-0.1 0.01,-0.05 0.02,-0.11 0.01,-0.18 0,-0.07 -0.01,-0.16 -0.03,-0.26 -0.02,-0.08 -0.03,-0.14 -0.05,-0.2 -0.01,-0.05 -0.03,-0.1 -0.05,-0.14 -0.01,-0.04 -0.04,-0.08 -0.06,-0.11 -0.03,-0.03 -0.06,-0.06 -0.1,-0.08 -0.04,-0.03 -0.14,-0.06 -0.31,-0.11 -0.17,-0.04 -0.38,-0.07 -0.64,-0.1 -0.26,-0.02 -0.56,-0.03 -0.9,-0.02 -0.33,0 -0.68,0.04 -1.05,0.11 -0.64,0.12 -1.19,0.31 -1.63,0.58 -0.45,0.27 -0.81,0.61 -1.07,1.02 -0.26,0.41 -0.43,0.9 -0.5,1.46 -0.07,0.56 -0.04,1.19 0.1,1.9 0.12,0.66 0.32,1.25 0.59,1.75 0.27,0.5 0.6,0.91 1,1.22 0.39,0.31 0.84,0.52 1.34,0.63 0.49,0.12 1.03,0.12 1.6,0.01 0.61,-0.11 1.11,-0.3 1.5,-0.58 0.4,-0.28 0.7,-0.6 0.92,-0.99 0.21,-0.38 0.34,-0.81 0.39,-1.28 0.05,-0.47 0.02,-0.96 -0.07,-1.46 z m -1.36,0.69 c 0.16,0.74 0.1,1.36 -0.17,1.85 -0.27,0.49 -0.75,0.8 -1.44,0.93 -0.35,0.07 -0.68,0.06 -0.97,-0.02 -0.29,-0.09 -0.55,-0.22 -0.77,-0.41 -0.22,-0.18 -0.4,-0.41 -0.55,-0.68 -0.16,-0.28 -0.27,-0.57 -0.34,-0.88 z"
           style="fill:#ff0000;fill-opacity:1;fill-rule:nonzero;stroke:none"
           id="path372"
           inkscape:connector-curvature="0" /></g></g><g
       id="g374"><g
         id="g376"
         clip-path="url(#clipPath380)"><path
           d="m 249.95,457.16 c -0.01,-0.05 -0.03,-0.08 -0.06,-0.11 -0.02,-0.03 -0.07,-0.05 -0.12,-0.06 -0.06,-0.02 -0.13,-0.02 -0.23,-0.01 -0.09,0 -0.21,0.02 -0.36,0.04 -0.13,0.03 -0.25,0.06 -0.34,0.09 -0.09,0.02 -0.16,0.06 -0.21,0.09 -0.05,0.03 -0.08,0.07 -0.1,0.1 -0.01,0.04 -0.01,0.08 0,0.12 l 2.14,11.55 c 0.01,0.04 0.03,0.08 0.05,0.11 0.03,0.03 0.07,0.06 0.13,0.07 0.06,0.01 0.14,0.02 0.23,0.01 0.1,-0.01 0.21,-0.02 0.35,-0.05 0.14,-0.02 0.26,-0.05 0.35,-0.08 0.09,-0.03 0.16,-0.06 0.21,-0.09 0.05,-0.03 0.08,-0.07 0.09,-0.11 0.02,-0.04 0.02,-0.08 0.02,-0.13 z m 10.56,2.15 c -0.12,-0.63 -0.31,-1.2 -0.58,-1.7 -0.26,-0.51 -0.6,-0.92 -1,-1.24 -0.4,-0.33 -0.87,-0.55 -1.41,-0.67 -0.54,-0.13 -1.14,-0.13 -1.8,-0.01 -0.64,0.12 -1.18,0.32 -1.62,0.6 -0.44,0.28 -0.78,0.63 -1.03,1.05 -0.25,0.42 -0.4,0.91 -0.46,1.45 -0.06,0.55 -0.03,1.15 0.09,1.81 0.12,0.63 0.31,1.2 0.57,1.7 0.27,0.51 0.6,0.92 1,1.24 0.41,0.33 0.87,0.55 1.41,0.67 0.53,0.12 1.13,0.12 1.8,0 0.64,-0.12 1.18,-0.32 1.61,-0.6 0.44,-0.28 0.79,-0.63 1.04,-1.05 0.25,-0.42 0.4,-0.9 0.47,-1.45 0.06,-0.55 0.03,-1.15 -0.09,-1.8 z m -1.5,0.18 c 0.08,0.42 0.12,0.82 0.11,1.21 -0.01,0.39 -0.08,0.74 -0.21,1.06 -0.13,0.32 -0.33,0.58 -0.61,0.81 -0.27,0.22 -0.64,0.37 -1.1,0.46 -0.43,0.08 -0.8,0.07 -1.14,-0.02 -0.33,-0.1 -0.62,-0.26 -0.87,-0.5 -0.25,-0.24 -0.46,-0.53 -0.62,-0.89 -0.17,-0.36 -0.29,-0.76 -0.37,-1.2 -0.08,-0.43 -0.12,-0.83 -0.11,-1.22 0.01,-0.39 0.08,-0.74 0.21,-1.06 0.13,-0.31 0.34,-0.58 0.62,-0.8 0.27,-0.22 0.64,-0.37 1.1,-0.46 0.42,-0.08 0.8,-0.07 1.13,0.02 0.34,0.1 0.63,0.26 0.88,0.49 0.25,0.24 0.45,0.53 0.61,0.89 0.17,0.36 0.29,0.76 0.37,1.21 z m 8.7,-5.64 c -0.01,-0.07 -0.04,-0.12 -0.09,-0.14 -0.06,-0.03 -0.12,-0.04 -0.21,-0.05 -0.08,0 -0.2,0.02 -0.36,0.04 -0.15,0.03 -0.27,0.06 -0.35,0.1 -0.09,0.03 -0.15,0.07 -0.18,0.11 -0.04,0.04 -0.05,0.1 -0.03,0.17 l 0.14,0.78 c -0.41,-0.3 -0.84,-0.52 -1.29,-0.64 -0.46,-0.12 -0.92,-0.14 -1.38,-0.06 -0.41,0.08 -0.77,0.2 -1.09,0.37 -0.31,0.17 -0.56,0.37 -0.76,0.62 -0.19,0.24 -0.33,0.53 -0.4,0.84 -0.08,0.32 -0.08,0.67 -0.01,1.04 0.08,0.44 0.24,0.8 0.48,1.09 0.24,0.29 0.54,0.51 0.92,0.66 0.37,0.15 0.81,0.24 1.31,0.26 0.51,0.01 1.06,-0.04 1.67,-0.15 l 1.07,-0.2 0.11,0.61 c 0.06,0.3 0.07,0.57 0.05,0.81 -0.02,0.24 -0.08,0.45 -0.2,0.63 -0.11,0.18 -0.27,0.33 -0.48,0.45 -0.21,0.12 -0.48,0.21 -0.81,0.27 -0.35,0.07 -0.67,0.08 -0.97,0.05 -0.29,-0.03 -0.56,-0.08 -0.78,-0.14 -0.23,-0.06 -0.43,-0.12 -0.58,-0.18 -0.16,-0.06 -0.27,-0.08 -0.34,-0.06 -0.05,0 -0.09,0.02 -0.12,0.05 -0.03,0.03 -0.05,0.07 -0.07,0.12 -0.02,0.05 -0.02,0.12 -0.02,0.19 0,0.07 0.01,0.15 0.03,0.24 0.02,0.15 0.05,0.26 0.09,0.34 0.04,0.08 0.1,0.15 0.19,0.21 0.09,0.06 0.24,0.12 0.45,0.19 0.21,0.06 0.45,0.11 0.71,0.15 0.26,0.04 0.55,0.06 0.85,0.06 0.3,0 0.61,-0.03 0.91,-0.09 0.55,-0.1 1.02,-0.25 1.39,-0.45 0.36,-0.2 0.65,-0.45 0.84,-0.73 0.2,-0.29 0.32,-0.63 0.36,-1.01 0.04,-0.39 0.02,-0.82 -0.07,-1.31 z m -0.75,3.81 -1.22,0.23 c -0.39,0.07 -0.74,0.1 -1.04,0.09 -0.3,-0.01 -0.56,-0.07 -0.77,-0.16 -0.22,-0.09 -0.38,-0.22 -0.51,-0.39 -0.12,-0.16 -0.2,-0.36 -0.25,-0.6 -0.07,-0.4 0,-0.75 0.21,-1.04 0.21,-0.28 0.55,-0.47 1.01,-0.55 0.37,-0.07 0.74,-0.04 1.09,0.09 0.36,0.13 0.75,0.36 1.17,0.68 z m 10.05,-5.53 c 0,-0.05 -0.02,-0.08 -0.05,-0.11 -0.03,-0.04 -0.06,-0.06 -0.12,-0.07 -0.05,-0.01 -0.12,-0.01 -0.2,-0.01 -0.08,0 -0.18,0.02 -0.3,0.04 -0.12,0.02 -0.22,0.05 -0.3,0.07 -0.08,0.03 -0.14,0.06 -0.19,0.09 -0.05,0.03 -0.08,0.06 -0.09,0.1 -0.02,0.04 -0.02,0.08 -0.02,0.13 l 0.2,1.02 c -0.5,-0.36 -0.99,-0.63 -1.47,-0.8 -0.49,-0.16 -0.99,-0.2 -1.52,-0.1 -0.57,0.11 -1.04,0.31 -1.4,0.61 -0.36,0.29 -0.63,0.65 -0.81,1.08 -0.18,0.42 -0.28,0.9 -0.3,1.43 -0.02,0.53 0.02,1.08 0.12,1.64 0.13,0.67 0.31,1.26 0.56,1.77 0.24,0.52 0.54,0.94 0.89,1.26 0.35,0.33 0.76,0.56 1.21,0.69 0.46,0.12 0.96,0.13 1.51,0.03 0.45,-0.08 0.85,-0.26 1.19,-0.53 0.34,-0.27 0.66,-0.63 0.96,-1.08 l 0.84,4.52 c 0.01,0.04 0.02,0.07 0.05,0.11 0.03,0.03 0.07,0.05 0.13,0.06 0.06,0.01 0.14,0.02 0.23,0.01 0.09,0 0.21,-0.01 0.35,-0.04 0.14,-0.02 0.26,-0.05 0.35,-0.09 0.09,-0.03 0.16,-0.06 0.2,-0.09 0.05,-0.03 0.09,-0.06 0.11,-0.11 0.01,-0.04 0.02,-0.08 0.01,-0.12 z m -0.41,5.74 c -0.3,0.55 -0.61,0.98 -0.92,1.3 -0.31,0.32 -0.67,0.51 -1.06,0.58 -0.36,0.07 -0.68,0.04 -0.97,-0.08 -0.29,-0.13 -0.53,-0.32 -0.75,-0.57 -0.21,-0.25 -0.38,-0.55 -0.52,-0.9 -0.14,-0.34 -0.24,-0.7 -0.31,-1.07 -0.07,-0.39 -0.11,-0.78 -0.12,-1.16 -0.01,-0.39 0.03,-0.74 0.13,-1.06 0.09,-0.32 0.25,-0.59 0.46,-0.81 0.22,-0.22 0.51,-0.37 0.89,-0.44 0.19,-0.03 0.38,-0.04 0.56,-0.02 0.19,0.02 0.38,0.07 0.59,0.16 0.21,0.09 0.43,0.21 0.67,0.36 0.23,0.16 0.49,0.36 0.77,0.6 z m 4.5,-6.5 c -0.01,-0.04 -0.03,-0.08 -0.06,-0.11 -0.03,-0.03 -0.07,-0.05 -0.13,-0.06 -0.05,-0.01 -0.13,-0.02 -0.22,-0.01 -0.1,0 -0.21,0.02 -0.36,0.05 -0.14,0.02 -0.25,0.05 -0.34,0.08 -0.09,0.03 -0.16,0.06 -0.21,0.09 -0.05,0.03 -0.08,0.07 -0.1,0.1 -0.01,0.04 -0.02,0.08 -0.01,0.13 l 1.45,7.77 c 0,0.04 0.02,0.08 0.05,0.11 0.03,0.03 0.07,0.05 0.13,0.07 0.06,0.01 0.13,0.01 0.23,0.01 0.09,-0.01 0.21,-0.02 0.35,-0.05 0.14,-0.03 0.26,-0.05 0.35,-0.08 0.09,-0.03 0.16,-0.06 0.2,-0.1 0.05,-0.03 0.08,-0.06 0.1,-0.1 0.02,-0.04 0.02,-0.08 0.01,-0.12 z m 2.1,10.38 c -0.07,-0.34 -0.17,-0.55 -0.32,-0.65 -0.15,-0.1 -0.4,-0.12 -0.74,-0.05 -0.33,0.06 -0.55,0.16 -0.65,0.3 -0.1,0.14 -0.12,0.38 -0.06,0.71 0.06,0.33 0.17,0.55 0.32,0.64 0.15,0.1 0.39,0.12 0.73,0.05 0.33,-0.06 0.55,-0.16 0.65,-0.3 0.11,-0.14 0.13,-0.38 0.07,-0.7 z m 7.18,-12.1 c -0.01,-0.05 -0.03,-0.09 -0.06,-0.11 -0.02,-0.03 -0.07,-0.05 -0.12,-0.06 -0.06,-0.02 -0.13,-0.02 -0.23,-0.02 -0.09,0.01 -0.21,0.03 -0.35,0.05 -0.14,0.03 -0.26,0.06 -0.35,0.08 -0.09,0.03 -0.16,0.06 -0.21,0.1 -0.04,0.03 -0.08,0.06 -0.09,0.1 -0.02,0.03 -0.02,0.08 -0.02,0.12 l 0.85,4.56 c 0.08,0.44 0.12,0.8 0.1,1.09 -0.02,0.28 -0.08,0.53 -0.18,0.75 -0.09,0.22 -0.24,0.4 -0.43,0.55 -0.19,0.14 -0.42,0.24 -0.7,0.29 -0.36,0.07 -0.74,0 -1.14,-0.18 -0.4,-0.19 -0.85,-0.49 -1.33,-0.91 l -1.01,-5.43 c -0.01,-0.05 -0.03,-0.09 -0.06,-0.11 -0.03,-0.03 -0.07,-0.05 -0.12,-0.07 -0.06,-0.01 -0.14,-0.01 -0.23,-0.01 -0.09,0.01 -0.21,0.03 -0.36,0.05 -0.14,0.03 -0.25,0.05 -0.34,0.08 -0.09,0.03 -0.16,0.06 -0.21,0.1 -0.05,0.03 -0.08,0.06 -0.1,0.1 -0.01,0.03 -0.01,0.08 -0.01,0.12 l 1.45,7.78 c 0.01,0.04 0.02,0.08 0.05,0.11 0.02,0.03 0.06,0.05 0.12,0.07 0.05,0.01 0.12,0.02 0.2,0.01 0.09,0 0.19,-0.02 0.33,-0.04 0.12,-0.03 0.23,-0.05 0.31,-0.08 0.08,-0.02 0.14,-0.05 0.18,-0.08 0.05,-0.04 0.07,-0.07 0.09,-0.11 0.01,-0.03 0.01,-0.07 0.01,-0.12 l -0.19,-1.03 c 0.52,0.41 1.03,0.69 1.5,0.83 0.48,0.15 0.94,0.18 1.39,0.1 0.51,-0.1 0.93,-0.27 1.26,-0.51 0.32,-0.24 0.56,-0.53 0.72,-0.86 0.17,-0.34 0.26,-0.71 0.28,-1.12 0.03,-0.41 -0.02,-0.9 -0.12,-1.45 z m 10.5,5.72 c -0.04,-0.2 -0.09,-0.34 -0.16,-0.42 -0.07,-0.08 -0.15,-0.11 -0.24,-0.09 l -1.11,0.21 c 0.16,-0.25 0.26,-0.5 0.29,-0.77 0.04,-0.26 0.03,-0.53 -0.02,-0.8 -0.09,-0.45 -0.23,-0.84 -0.44,-1.16 -0.21,-0.32 -0.47,-0.57 -0.78,-0.76 -0.31,-0.19 -0.66,-0.31 -1.06,-0.37 -0.39,-0.06 -0.81,-0.05 -1.26,0.04 -0.32,0.06 -0.61,0.15 -0.88,0.29 -0.27,0.14 -0.47,0.28 -0.6,0.44 -0.12,-0.09 -0.23,-0.19 -0.32,-0.31 -0.09,-0.12 -0.15,-0.26 -0.19,-0.44 -0.03,-0.2 0.03,-0.38 0.19,-0.55 0.16,-0.17 0.4,-0.29 0.71,-0.36 l 2.01,-0.46 c 0.39,-0.08 0.73,-0.2 1.04,-0.36 0.3,-0.15 0.56,-0.34 0.76,-0.56 0.2,-0.22 0.35,-0.47 0.43,-0.75 0.09,-0.28 0.1,-0.59 0.03,-0.93 -0.06,-0.36 -0.2,-0.68 -0.41,-0.98 -0.21,-0.29 -0.49,-0.53 -0.85,-0.72 -0.35,-0.19 -0.78,-0.31 -1.28,-0.36 -0.51,-0.05 -1.08,-0.02 -1.74,0.1 -0.62,0.12 -1.15,0.27 -1.57,0.46 -0.42,0.19 -0.75,0.4 -1,0.64 -0.25,0.23 -0.41,0.49 -0.49,0.77 -0.08,0.28 -0.09,0.57 -0.04,0.87 0.04,0.19 0.1,0.37 0.17,0.54 0.08,0.17 0.19,0.33 0.31,0.47 0.13,0.15 0.27,0.28 0.44,0.4 0.17,0.12 0.36,0.23 0.57,0.34 -0.26,0.2 -0.43,0.42 -0.53,0.66 -0.09,0.25 -0.11,0.5 -0.07,0.75 0.07,0.35 0.2,0.65 0.39,0.9 0.2,0.25 0.42,0.47 0.68,0.65 -0.14,0.24 -0.24,0.51 -0.29,0.8 -0.05,0.28 -0.05,0.62 0.02,1 0.09,0.44 0.24,0.82 0.45,1.15 0.22,0.32 0.48,0.58 0.79,0.77 0.31,0.2 0.66,0.32 1.06,0.38 0.39,0.06 0.81,0.05 1.25,-0.03 0.23,-0.04 0.45,-0.1 0.65,-0.16 0.2,-0.06 0.38,-0.14 0.55,-0.21 l 2.36,-0.44 c 0.09,-0.02 0.16,-0.08 0.19,-0.19 0.03,-0.1 0.03,-0.25 -0.01,-0.45 z m -2.61,-1.63 c 0.1,0.53 0.03,0.97 -0.2,1.32 -0.24,0.35 -0.63,0.58 -1.16,0.68 -0.28,0.05 -0.53,0.05 -0.75,-0.01 -0.22,-0.05 -0.41,-0.15 -0.58,-0.28 -0.16,-0.14 -0.3,-0.31 -0.41,-0.5 -0.1,-0.2 -0.17,-0.42 -0.22,-0.65 -0.09,-0.51 -0.02,-0.94 0.21,-1.29 0.24,-0.34 0.62,-0.57 1.14,-0.66 0.29,-0.06 0.54,-0.06 0.76,-0.01 0.23,0.05 0.42,0.15 0.59,0.28 0.16,0.13 0.3,0.3 0.4,0.49 0.11,0.2 0.18,0.41 0.22,0.63 z m -0.43,-6.29 c 0.07,0.33 -0.02,0.61 -0.26,0.85 -0.24,0.23 -0.59,0.39 -1.06,0.49 l -2,0.45 c -0.21,-0.11 -0.39,-0.22 -0.53,-0.33 -0.14,-0.11 -0.26,-0.21 -0.35,-0.32 -0.09,-0.11 -0.16,-0.21 -0.21,-0.32 -0.04,-0.11 -0.08,-0.23 -0.1,-0.35 -0.07,-0.38 0.07,-0.69 0.41,-0.96 0.34,-0.26 0.86,-0.46 1.54,-0.58 0.43,-0.08 0.8,-0.11 1.1,-0.08 0.31,0.03 0.57,0.1 0.77,0.2 0.2,0.11 0.36,0.24 0.47,0.41 0.11,0.16 0.19,0.34 0.22,0.54 z"
           style="fill:#ff0000;fill-opacity:1;fill-rule:nonzero;stroke:none"
           id="path382"
           inkscape:connector-curvature="0" /></g></g><g
       id="g384"><g
         id="g386"
         clip-path="url(#clipPath390)"><text
           transform="matrix(1,0,0,-1,292.8,388.37)"
           style="font-variant:normal;font-weight:normal;font-size:18px;font-family:Calibri;-inkscape-font-specification:Calibri;writing-mode:lr-tb;fill:#ff0000;fill-opacity:1;fill-rule:nonzero;stroke:none"
           id="text394"><tspan
             x="0 9.5939999 15.606 24.57 33.119999 39.150002 43.200001 52.686001"
             y="0"
             sodipodi:role="line"
             id="tspan392">Creation</tspan></text>
</g></g><g
       id="g396"><g
         id="g398"
         clip-path="url(#clipPath402)"><text
           transform="matrix(1,0,0,-1,259.44,368.57)"
           style="font-variant:normal;font-weight:normal;font-size:15.96000004px;font-family:Calibri;-inkscape-font-specification:Calibri;writing-mode:lr-tb;fill:#ff0000;fill-opacity:1;fill-rule:nonzero;stroke:none"
           id="text406"><tspan
             x="0 8.2832403 15.51312"
             y="0"
             sodipodi:role="line"
             id="tspan404">by </tspan></text>
</g></g><g
       id="g408"><g
         id="g410"
         clip-path="url(#clipPath414)"><text
           transform="matrix(1,0,0,-1,278.64,368.57)"
           style="font-variant:normal;font-weight:normal;font-size:15.96000004px;font-family:Calibri;-inkscape-font-specification:Calibri;writing-mode:lr-tb;fill:#ff0000;fill-opacity:1;fill-rule:nonzero;stroke:none"
           id="text418"><tspan
             x="0 8.3789997 16.07172 21.59388 26.972401 30.675119 36.053638 39.756359 48.167278 56.54628 60.264961 68.643959"
             y="0"
             sodipodi:role="line"
             id="tspan416">partitioning</tspan></text>
</g></g><path
       d="m 398.4,393.72 v -17.98 h -3 v 17.98 z m -6,-1.5 4.5,9 4.5,-9 z m 9,-14.98 -4.5,-9 -4.5,9 z"
       style="fill:#b3a2c7;fill-opacity:1;fill-rule:nonzero;stroke:none"
       id="path420"
       inkscape:connector-curvature="0" /><path
       d="m 48.18,484.18 c 0,6.67 22.269,12.08 49.74,12.08 27.47,0 49.74,-5.41 49.74,-12.08 v -48.32 c 0,-6.67 -22.27,-12.08 -49.74,-12.08 -27.471,0 -49.74,5.41 -49.74,12.08 z"
       style="fill:#ffffff;fill-opacity:1;fill-rule:evenodd;stroke:none"
       id="path422"
       inkscape:connector-curvature="0" /><path
       d="m 147.66,484.18 c 0,-6.67 -22.27,-12.08 -49.74,-12.08 -27.471,0 -49.74,5.41 -49.74,12.08"
       style="fill:none;stroke:#00509a;stroke-width:3;stroke-linecap:butt;stroke-linejoin:round;stroke-miterlimit:10;stroke-dasharray:none;stroke-opacity:1"
       id="path424"
       inkscape:connector-curvature="0" /><path
       d="m 48.18,484.18 c 0,6.67 22.269,12.08 49.74,12.08 27.47,0 49.74,-5.41 49.74,-12.08 v -48.32 c 0,-6.67 -22.27,-12.08 -49.74,-12.08 -27.471,0 -49.74,5.41 -49.74,12.08 z"
       style="fill:none;stroke:#00509a;stroke-width:3;stroke-linecap:butt;stroke-linejoin:round;stroke-miterlimit:10;stroke-dasharray:none;stroke-opacity:1"
       id="path426"
       inkscape:connector-curvature="0" /><g
       id="g428"><g
         id="g430"
         clip-path="url(#clipPath434)"><text
           transform="matrix(1,0,0,-1,71.832,451.01)"
           style="font-variant:normal;font-weight:normal;font-size:18px;font-family:Arial;-inkscape-font-specification:ArialMT;writing-mode:lr-tb;fill:#000000;fill-opacity:1;fill-rule:nonzero;stroke:none"
           id="text438"><tspan
             x="0 12.996 27 39.995998"
             y="0"
             sodipodi:role="line"
             id="tspan436">CGNS</tspan></text>
</g></g><g
       id="g440"><g
         id="g442"
         clip-path="url(#clipPath446)"><text
           transform="matrix(1,0,0,-1,83.352,429.41)"
           style="font-variant:normal;font-weight:normal;font-size:18px;font-family:Arial;-inkscape-font-specification:ArialMT;writing-mode:lr-tb;fill:#000000;fill-opacity:1;fill-rule:nonzero;stroke:none"
           id="text450"><tspan
             x="0 10.998 14.994 18.99"
             y="0"
             sodipodi:role="line"
             id="tspan448">File</tspan></text>
</g></g></g></svg>