<?xml version="1.0" encoding="UTF-8" standalone="no"?>
<!-- Created with Inkscape (http://www.inkscape.org/) -->

<svg
   version="1.1"
   id="svg31"
   xml:space="preserve"
   width="423.573"
   height="102.16"
   viewBox="0 0 423.573 102.16"
   sodipodi:docname="data_dist.svg"
   inkscape:version="1.1 (c68e22c387, 2021-05-23)"
   xmlns:inkscape="http://www.inkscape.org/namespaces/inkscape"
   xmlns:sodipodi="http://sodipodi.sourceforge.net/DTD/sodipodi-0.dtd"
   xmlns="http://www.w3.org/2000/svg"
   xmlns:svg="http://www.w3.org/2000/svg"><defs
     id="defs35"><clipPath
       clipPathUnits="userSpaceOnUse"
       id="clipPath45"><path
         d="M 0,1.2207e-4 H 720 V 540.00012 H 0 Z"
         clip-rule="evenodd"
         id="path43" /></clipPath><clipPath
       clipPathUnits="userSpaceOnUse"
       id="clipPath55"><path
         d="M 1.0729e-5,0 H 720.00001 V 540 H 1.0729e-5 Z"
         clip-rule="evenodd"
         id="path53" /></clipPath><clipPath
       clipPathUnits="userSpaceOnUse"
       id="clipPath91"><path
         d="M 1.0729e-5,0 H 720.00001 V 540 H 1.0729e-5 Z"
         clip-rule="evenodd"
         id="path89" /></clipPath><clipPath
       clipPathUnits="userSpaceOnUse"
       id="clipPath103"><path
         d="M 1.0729e-5,0 H 720.00001 V 540 H 1.0729e-5 Z"
         clip-rule="evenodd"
         id="path101" /></clipPath><clipPath
       clipPathUnits="userSpaceOnUse"
       id="clipPath115"><path
         d="M 1.0729e-5,0 H 720.00001 V 540 H 1.0729e-5 Z"
         clip-rule="evenodd"
         id="path113" /></clipPath><clipPath
       clipPathUnits="userSpaceOnUse"
       id="clipPath127"><path
         d="M 1.0729e-5,0 H 720.00001 V 540 H 1.0729e-5 Z"
         clip-rule="evenodd"
         id="path125" /></clipPath><clipPath
       clipPathUnits="userSpaceOnUse"
       id="clipPath139"><path
         d="M 1.0729e-5,0 H 720.00001 V 540 H 1.0729e-5 Z"
         clip-rule="evenodd"
         id="path137" /></clipPath><clipPath
       clipPathUnits="userSpaceOnUse"
       id="clipPath151"><path
         d="M 1.0729e-5,0 H 720.00001 V 540 H 1.0729e-5 Z"
         clip-rule="evenodd"
         id="path149" /></clipPath><clipPath
       clipPathUnits="userSpaceOnUse"
       id="clipPath163"><path
         d="M 1.0729e-5,0 H 720.00001 V 540 H 1.0729e-5 Z"
         clip-rule="evenodd"
         id="path161" /></clipPath><clipPath
       clipPathUnits="userSpaceOnUse"
       id="clipPath175"><path
         d="M 1.0729e-5,0 H 720.00001 V 540 H 1.0729e-5 Z"
         clip-rule="evenodd"
         id="path173" /></clipPath><clipPath
       clipPathUnits="userSpaceOnUse"
       id="clipPath187"><path
         d="M 1.0729e-5,0 H 720.00001 V 540 H 1.0729e-5 Z"
         clip-rule="evenodd"
         id="path185" /></clipPath><clipPath
       clipPathUnits="userSpaceOnUse"
       id="clipPath233"><path
         d="M 1.0729e-5,0 H 720.00001 V 540 H 1.0729e-5 Z"
         clip-rule="evenodd"
         id="path231" /></clipPath><clipPath
       clipPathUnits="userSpaceOnUse"
       id="clipPath245"><path
         d="M 1.0729e-5,0 H 720.00001 V 540 H 1.0729e-5 Z"
         clip-rule="evenodd"
         id="path243" /></clipPath><clipPath
       clipPathUnits="userSpaceOnUse"
       id="clipPath279"><path
         d="M 1.0729e-5,0 H 720.00001 V 540 H 1.0729e-5 Z"
         clip-rule="evenodd"
         id="path277" /></clipPath><clipPath
       clipPathUnits="userSpaceOnUse"
       id="clipPath291"><path
         d="M 1.0729e-5,0 H 720.00001 V 540 H 1.0729e-5 Z"
         clip-rule="evenodd"
         id="path289" /></clipPath><clipPath
       clipPathUnits="userSpaceOnUse"
       id="clipPath303"><path
         d="M 1.0729e-5,0 H 720.00001 V 540 H 1.0729e-5 Z"
         clip-rule="evenodd"
         id="path301" /></clipPath><clipPath
       clipPathUnits="userSpaceOnUse"
       id="clipPath315"><path
         d="M 1.0729e-5,0 H 720.00001 V 540 H 1.0729e-5 Z"
         clip-rule="evenodd"
         id="path313" /></clipPath><clipPath
       clipPathUnits="userSpaceOnUse"
       id="clipPath353"><path
         d="M 1.0729e-5,0 H 720.00001 V 540 H 1.0729e-5 Z"
         clip-rule="evenodd"
         id="path351" /></clipPath><clipPath
       clipPathUnits="userSpaceOnUse"
       id="clipPath365"><path
         d="M 1.0729e-5,0 H 720.00001 V 540 H 1.0729e-5 Z"
         clip-rule="evenodd"
         id="path363" /></clipPath><clipPath
       clipPathUnits="userSpaceOnUse"
       id="clipPath377"><path
         d="M 1.0729e-5,0 H 720.00001 V 540 H 1.0729e-5 Z"
         clip-rule="evenodd"
         id="path375" /></clipPath><clipPath
       clipPathUnits="userSpaceOnUse"
       id="clipPath389"><path
         d="M 1.0729e-5,0 H 720.00001 V 540 H 1.0729e-5 Z"
         clip-rule="evenodd"
         id="path387" /></clipPath><clipPath
       clipPathUnits="userSpaceOnUse"
       id="clipPath401"><path
         d="M 1.0729e-5,0 H 720.00001 V 540 H 1.0729e-5 Z"
         clip-rule="evenodd"
         id="path399" /></clipPath><clipPath
       clipPathUnits="userSpaceOnUse"
       id="clipPath413"><path
         d="M 1.0729e-5,0 H 720.00001 V 540 H 1.0729e-5 Z"
         clip-rule="evenodd"
         id="path411" /></clipPath><clipPath
       clipPathUnits="userSpaceOnUse"
       id="clipPath425"><path
         d="M 1.0729e-5,0 H 720.00001 V 540 H 1.0729e-5 Z"
         clip-rule="evenodd"
         id="path423" /></clipPath><clipPath
       clipPathUnits="userSpaceOnUse"
       id="clipPath505"><path
         d="M 1.0729e-5,0 H 720.00001 V 540 H 1.0729e-5 Z"
         clip-rule="evenodd"
         id="path503" /></clipPath><clipPath
       clipPathUnits="userSpaceOnUse"
       id="clipPath517"><path
         d="M 1.0729e-5,0 H 720.00001 V 540 H 1.0729e-5 Z"
         clip-rule="evenodd"
         id="path515" /></clipPath><clipPath
       clipPathUnits="userSpaceOnUse"
       id="clipPath529"><path
         d="M 1.0729e-5,0 H 720.00001 V 540 H 1.0729e-5 Z"
         clip-rule="evenodd"
         id="path527" /></clipPath><clipPath
       clipPathUnits="userSpaceOnUse"
       id="clipPath541"><path
         d="M 1.0729e-5,0 H 720.00001 V 540 H 1.0729e-5 Z"
         clip-rule="evenodd"
         id="path539" /></clipPath><clipPath
       clipPathUnits="userSpaceOnUse"
       id="clipPath553"><path
         d="M 1.0729e-5,0 H 720.00001 V 540 H 1.0729e-5 Z"
         clip-rule="evenodd"
         id="path551" /></clipPath></defs><sodipodi:namedview
     id="namedview33"
     pagecolor="#ffffff"
     bordercolor="#666666"
     borderopacity="1.0"
     inkscape:pageshadow="2"
     inkscape:pageopacity="0.0"
     inkscape:pagecheckerboard="0"
     showgrid="false"
     fit-margin-top="0"
     fit-margin-left="0"
     fit-margin-right="0"
     fit-margin-bottom="0"
     inkscape:zoom="1.0697917"
     inkscape:cx="281.83057"
     inkscape:cy="190.22395"
     inkscape:window-width="1920"
     inkscape:window-height="1017"
     inkscape:window-x="-8"
     inkscape:window-y="-8"
     inkscape:window-maximized="1"
     inkscape:current-layer="g37" /><g
     id="g37"
     inkscape:groupmode="layer"
     inkscape:label="dist_part"
     transform="matrix(1.3333333,0,0,-1.3333333,-198.4,605.75998)"><path
       d="m 148.8,428.76 h 16.92 V 445.8 H 148.8 Z"
       style="fill:#c0392b;fill-opacity:1;fill-rule:evenodd;stroke:none"
       id="path193" /><path
       d="m 271.68,428.76 h 17.04 v 17.04 h -17.04 z"
       style="fill:#27ae60;fill-opacity:1;fill-rule:evenodd;stroke:none"
       id="path195" /><path
       d="m 362.4,428.76 h 17.04 V 445.8 H 362.4 Z"
       style="fill:#8e44ad;fill-opacity:1;fill-rule:evenodd;stroke:none"
       id="path197" /><path
       d="m 211.98,428.7 h 17.04 v 17.04 h -17.04 z"
       style="fill:none;stroke:#f1c40f;stroke-width:1.56;stroke-linecap:butt;stroke-linejoin:round;stroke-miterlimit:10;stroke-dasharray:none;stroke-opacity:1"
       id="path199" /><path
       d="m 303.42,437.22 c 0,4.71 3.79,8.52 8.46,8.52 4.67,0 8.46,-3.81 8.46,-8.52 0,-4.71 -3.79,-8.52 -8.46,-8.52 -4.67,0 -8.46,3.81 -8.46,8.52 z"
       style="fill:none;stroke:#3498db;stroke-width:1.56;stroke-linecap:butt;stroke-linejoin:round;stroke-miterlimit:10;stroke-dasharray:none;stroke-opacity:1"
       id="path201" /><path
       d="m 393.96,437.28 c 0,4.71 3.81,8.52 8.52,8.52 4.71,0 8.52,-3.81 8.52,-8.52 0,-4.71 -3.81,-8.52 -8.52,-8.52 -4.71,0 -8.52,3.81 -8.52,8.52 z"
       style="fill:#343e50;fill-opacity:1;fill-rule:evenodd;stroke:none"
       id="path203" /><path
       d="m 180.36,437.28 c 0,4.71 3.79,8.52 8.46,8.52 4.67,0 8.46,-3.81 8.46,-8.52 0,-4.71 -3.79,-8.52 -8.46,-8.52 -4.67,0 -8.46,3.81 -8.46,8.52 z"
       style="fill:#e67e22;fill-opacity:1;fill-rule:evenodd;stroke:none"
       id="path205" /><g
       id="g207"><path
         d="M 251.16,454.32 V 420.3"
         style="fill:none;stroke:#95a5a6;stroke-width:0.72;stroke-linecap:butt;stroke-linejoin:round;stroke-miterlimit:10;stroke-dasharray:2.16, 0.72;stroke-dashoffset:0;stroke-opacity:1"
         id="path209" /></g><g
       id="g211"><path
         d="M 341.64,454.32 V 420.3"
         style="fill:none;stroke:#95a5a6;stroke-width:0.72;stroke-linecap:butt;stroke-linejoin:round;stroke-miterlimit:10;stroke-dasharray:2.16, 0.72;stroke-dashoffset:0;stroke-opacity:1"
         id="path213" /></g><path
       d="m 148.8,386.28 h 16.92 V 403.2 H 148.8 Z"
       style="fill:#c0392b;fill-opacity:1;fill-rule:evenodd;stroke:none"
       id="path431" /><path
       d="M 291.96,386.28 H 309 v 16.92 h -17.04 z"
       style="fill:#27ae60;fill-opacity:1;fill-rule:evenodd;stroke:none"
       id="path433" /><path
       d="m 360,386.28 h 17.04 V 403.2 H 360 Z"
       style="fill:#8e44ad;fill-opacity:1;fill-rule:evenodd;stroke:none"
       id="path435" /><path
       d="m 258.06,386.22 h 16.92 v 16.92 h -16.92 z"
       style="fill:none;stroke:#f1c40f;stroke-width:1.56;stroke-linecap:butt;stroke-linejoin:round;stroke-miterlimit:10;stroke-dasharray:none;stroke-opacity:1"
       id="path437" /><path
       d="m 326.1,394.68 c 0,4.67 3.79,8.46 8.46,8.46 4.67,0 8.46,-3.79 8.46,-8.46 0,-4.67 -3.79,-8.46 -8.46,-8.46 -4.67,0 -8.46,3.79 -8.46,8.46 z"
       style="fill:none;stroke:#3498db;stroke-width:1.56;stroke-linecap:butt;stroke-linejoin:round;stroke-miterlimit:10;stroke-dasharray:none;stroke-opacity:1"
       id="path439" /><path
       d="m 393.96,394.74 c 0,4.67 3.81,8.46 8.52,8.46 4.71,0 8.52,-3.79 8.52,-8.46 0,-4.67 -3.81,-8.46 -8.52,-8.46 -4.71,0 -8.52,3.79 -8.52,8.46 z"
       style="fill:#343e50;fill-opacity:1;fill-rule:evenodd;stroke:none"
       id="path441" /><path
       d="m 180.36,394.74 c 0,4.67 3.79,8.46 8.46,8.46 4.67,0 8.46,-3.79 8.46,-8.46 0,-4.67 -3.79,-8.46 -8.46,-8.46 -4.67,0 -8.46,3.79 -8.46,8.46 z"
       style="fill:#e67e22;fill-opacity:1;fill-rule:evenodd;stroke:none"
       id="path443" /><g
       id="g445"><path
         d="M 216.24,411.72 V 377.7"
         style="fill:none;stroke:#95a5a6;stroke-width:0.72;stroke-linecap:butt;stroke-linejoin:round;stroke-miterlimit:10;stroke-dasharray:2.16, 0.72;stroke-dashoffset:0;stroke-opacity:1"
         id="path447" /></g><g
       id="g449"><path
         d="M 235.32,411.72 V 377.7"
         style="fill:none;stroke:#95a5a6;stroke-width:0.72;stroke-linecap:butt;stroke-linejoin:round;stroke-miterlimit:10;stroke-dasharray:2.16, 0.72;stroke-dashoffset:0;stroke-opacity:1"
         id="path451" /></g><g
       id="g499"><g
         id="g501"
         clip-path="url(#clipPath505)"><text
           transform="matrix(1,0,0,-1,439.54,431.98)"
           style="font-variant:normal;font-weight:normal;font-size:18px;font-family:Consolas;-inkscape-font-specification:Consolas;writing-mode:lr-tb;fill:#000000;fill-opacity:1;fill-rule:nonzero;stroke:none"
           id="text509"><tspan
             x="0 9.8400002 19.68"
             y="0"
             sodipodi:role="line"
             id="tspan507">(a)</tspan></text></g></g><g
       id="g511"><g
         id="g513"
         clip-path="url(#clipPath517)"><text
           transform="matrix(1,0,0,-1,439.54,390.22)"
           style="font-variant:normal;font-weight:normal;font-size:18px;font-family:Consolas;-inkscape-font-specification:Consolas;writing-mode:lr-tb;fill:#000000;fill-opacity:1;fill-rule:nonzero;stroke:none"
           id="text521"><tspan
             x="0 9.8400002 19.68"
             y="0"
             sodipodi:role="line"
             id="tspan519">(b)</tspan></text></g></g></g></svg>
