<?xml version="1.0" encoding="UTF-8" standalone="no"?>
<!-- Created with Inkscape (http://www.inkscape.org/) -->

<svg
   xmlns:dc="http://purl.org/dc/elements/1.1/"
   xmlns:cc="http://creativecommons.org/ns#"
   xmlns:rdf="http://www.w3.org/1999/02/22-rdf-syntax-ns#"
   xmlns:svg="http://www.w3.org/2000/svg"
   xmlns="http://www.w3.org/2000/svg"
   xmlns:sodipodi="http://sodipodi.sourceforge.net/DTD/sodipodi-0.dtd"
   xmlns:inkscape="http://www.inkscape.org/namespaces/inkscape"
   version="1.1"
   id="svg2"
   xml:space="preserve"
   width="365.70718"
   height="237.18265"
   viewBox="0 0 365.70718 237.18265"
   sodipodi:docname="part_mesh.svg"
   inkscape:version="0.92.3 (2405546, 2018-03-11)"><metadata
     id="metadata8"><rdf:RDF><cc:Work
         rdf:about=""><dc:format>image/svg+xml</dc:format><dc:type
           rdf:resource="http://purl.org/dc/dcmitype/StillImage" /><dc:title></dc:title></cc:Work></rdf:RDF></metadata><defs
     id="defs6"><clipPath
       clipPathUnits="userSpaceOnUse"
       id="clipPath132"><path
         d="M 1.0729e-5,0 H 720.00001 V 540 H 1.0729e-5 Z"
         id="path130"
         inkscape:connector-curvature="0"
         style="clip-rule:evenodd" /></clipPath><clipPath
       clipPathUnits="userSpaceOnUse"
       id="clipPath144"><path
         d="M 1.0729e-5,0 H 720.00001 V 540 H 1.0729e-5 Z"
         id="path142"
         inkscape:connector-curvature="0"
         style="clip-rule:evenodd" /></clipPath><clipPath
       clipPathUnits="userSpaceOnUse"
       id="clipPath156"><path
         d="M 1.0729e-5,0 H 720.00001 V 540 H 1.0729e-5 Z"
         id="path154"
         inkscape:connector-curvature="0"
         style="clip-rule:evenodd" /></clipPath><clipPath
       clipPathUnits="userSpaceOnUse"
       id="clipPath168"><path
         d="M 1.0729e-5,0 H 720.00001 V 540 H 1.0729e-5 Z"
         id="path166"
         inkscape:connector-curvature="0"
         style="clip-rule:evenodd" /></clipPath><clipPath
       clipPathUnits="userSpaceOnUse"
       id="clipPath180"><path
         d="M 1.0729e-5,0 H 720.00001 V 540 H 1.0729e-5 Z"
         id="path178"
         inkscape:connector-curvature="0"
         style="clip-rule:evenodd" /></clipPath><clipPath
       clipPathUnits="userSpaceOnUse"
       id="clipPath192"><path
         d="M 1.0729e-5,0 H 720.00001 V 540 H 1.0729e-5 Z"
         id="path190"
         inkscape:connector-curvature="0"
         style="clip-rule:evenodd" /></clipPath><clipPath
       clipPathUnits="userSpaceOnUse"
       id="clipPath204"><path
         d="M 1.0729e-5,0 H 720.00001 V 540 H 1.0729e-5 Z"
         id="path202"
         inkscape:connector-curvature="0"
         style="clip-rule:evenodd" /></clipPath><clipPath
       clipPathUnits="userSpaceOnUse"
       id="clipPath216"><path
         d="M 1.0729e-5,0 H 720.00001 V 540 H 1.0729e-5 Z"
         id="path214"
         inkscape:connector-curvature="0"
         style="clip-rule:evenodd" /></clipPath><clipPath
       clipPathUnits="userSpaceOnUse"
       id="clipPath228"><path
         d="M 1.0729e-5,0 H 720.00001 V 540 H 1.0729e-5 Z"
         id="path226"
         inkscape:connector-curvature="0"
         style="clip-rule:evenodd" /></clipPath><clipPath
       clipPathUnits="userSpaceOnUse"
       id="clipPath240"><path
         d="M 1.0729e-5,0 H 720.00001 V 540 H 1.0729e-5 Z"
         id="path238"
         inkscape:connector-curvature="0"
         style="clip-rule:evenodd" /></clipPath><clipPath
       clipPathUnits="userSpaceOnUse"
       id="clipPath252"><path
         d="M 1.0729e-5,0 H 720.00001 V 540 H 1.0729e-5 Z"
         id="path250"
         inkscape:connector-curvature="0"
         style="clip-rule:evenodd" /></clipPath><clipPath
       clipPathUnits="userSpaceOnUse"
       id="clipPath264"><path
         d="M 1.0729e-5,0 H 720.00001 V 540 H 1.0729e-5 Z"
         id="path262"
         inkscape:connector-curvature="0"
         style="clip-rule:evenodd" /></clipPath><clipPath
       clipPathUnits="userSpaceOnUse"
       id="clipPath276"><path
         d="M 1.0729e-5,0 H 720.00001 V 540 H 1.0729e-5 Z"
         id="path274"
         inkscape:connector-curvature="0"
         style="clip-rule:evenodd" /></clipPath><clipPath
       clipPathUnits="userSpaceOnUse"
       id="clipPath288"><path
         d="M 1.0729e-5,0 H 720.00001 V 540 H 1.0729e-5 Z"
         id="path286"
         inkscape:connector-curvature="0"
         style="clip-rule:evenodd" /></clipPath><clipPath
       clipPathUnits="userSpaceOnUse"
       id="clipPath300"><path
         d="M 1.0729e-5,0 H 720.00001 V 540 H 1.0729e-5 Z"
         id="path298"
         inkscape:connector-curvature="0"
         style="clip-rule:evenodd" /></clipPath><clipPath
       clipPathUnits="userSpaceOnUse"
       id="clipPath312"><path
         d="M 1.0729e-5,0 H 720.00001 V 540 H 1.0729e-5 Z"
         id="path310"
         inkscape:connector-curvature="0"
         style="clip-rule:evenodd" /></clipPath><clipPath
       clipPathUnits="userSpaceOnUse"
       id="clipPath324"><path
         d="M 1.0729e-5,0 H 720.00001 V 540 H 1.0729e-5 Z"
         id="path322"
         inkscape:connector-curvature="0"
         style="clip-rule:evenodd" /></clipPath><clipPath
       clipPathUnits="userSpaceOnUse"
       id="clipPath336"><path
         d="M 1.0729e-5,0 H 720.00001 V 540 H 1.0729e-5 Z"
         id="path334"
         inkscape:connector-curvature="0"
         style="clip-rule:evenodd" /></clipPath><clipPath
       clipPathUnits="userSpaceOnUse"
       id="clipPath348"><path
         d="M 1.0729e-5,0 H 720.00001 V 540 H 1.0729e-5 Z"
         id="path346"
         inkscape:connector-curvature="0"
         style="clip-rule:evenodd" /></clipPath><clipPath
       clipPathUnits="userSpaceOnUse"
       id="clipPath360"><path
         d="M 1.0729e-5,0 H 720.00001 V 540 H 1.0729e-5 Z"
         id="path358"
         inkscape:connector-curvature="0"
         style="clip-rule:evenodd" /></clipPath><clipPath
       clipPathUnits="userSpaceOnUse"
       id="clipPath372"><path
         d="M 1.0729e-5,0 H 720.00001 V 540 H 1.0729e-5 Z"
         id="path370"
         inkscape:connector-curvature="0"
         style="clip-rule:evenodd" /></clipPath><clipPath
       clipPathUnits="userSpaceOnUse"
       id="clipPath384"><path
         d="M 1.0729e-5,0 H 720.00001 V 540 H 1.0729e-5 Z"
         id="path382"
         inkscape:connector-curvature="0"
         style="clip-rule:evenodd" /></clipPath></defs><sodipodi:namedview
     pagecolor="#ffffff"
     bordercolor="#666666"
     borderopacity="1"
     objecttolerance="10"
     gridtolerance="10"
     guidetolerance="10"
     inkscape:pageopacity="0"
     inkscape:pageshadow="2"
     inkscape:window-width="725"
     inkscape:window-height="480"
     id="namedview4"
     showgrid="false"
     fit-margin-top="0"
     fit-margin-left="0"
     fit-margin-right="0"
     fit-margin-bottom="0"
     inkscape:zoom="0.32777778"
     inkscape:cx="223.74574"
     inkscape:cy="-48.097334"
     inkscape:window-x="0"
     inkscape:window-y="0"
     inkscape:window-maximized="0"
     inkscape:current-layer="g10" /><g
     id="g10"
     inkscape:groupmode="layer"
     inkscape:label="dist_part_2"
     transform="matrix(1.3333333,0,0,-1.3333333,-256.25426,645.27998)"><path
       d="m 204.3,406.02 h 75.6 v 73.68 h -75.6 z"
       style="fill:#f2f2f2;fill-opacity:1;fill-rule:evenodd;stroke:none"
       id="path22"
       inkscape:connector-curvature="0" /><path
       d="m 204.3,406.02 h 75.6 v 73.68 h -75.6 z"
       style="fill:none;stroke:#000000;stroke-width:2.03999996;stroke-linecap:butt;stroke-linejoin:round;stroke-miterlimit:10;stroke-dasharray:none;stroke-opacity:1"
       id="path24"
       inkscape:connector-curvature="0" /><path
       d="m 279.9,406.02 h 75.6 v 73.68 h -75.6 z"
       style="fill:#f2f2f2;fill-opacity:1;fill-rule:evenodd;stroke:none"
       id="path26"
       inkscape:connector-curvature="0" /><path
       d="m 279.9,406.02 h 75.6 v 73.68 h -75.6 z"
       style="fill:none;stroke:#000000;stroke-width:2.03999996;stroke-linecap:butt;stroke-linejoin:round;stroke-miterlimit:10;stroke-dasharray:none;stroke-opacity:1"
       id="path28"
       inkscape:connector-curvature="0" /><path
       d="m 378.9,394.62 h 75.6 v 73.8 h -75.6 z"
       style="fill:#f2f2f2;fill-opacity:1;fill-rule:evenodd;stroke:none"
       id="path30"
       inkscape:connector-curvature="0" /><path
       d="m 378.9,394.62 h 75.6 v 73.8 h -75.6 z"
       style="fill:none;stroke:#000000;stroke-width:2.03999996;stroke-linecap:butt;stroke-linejoin:round;stroke-miterlimit:10;stroke-dasharray:none;stroke-opacity:1"
       id="path32"
       inkscape:connector-curvature="0" /><path
       d="m 204.3,332.34 h 75.6 v 73.68 h -75.6 z"
       style="fill:#f2f2f2;fill-opacity:1;fill-rule:evenodd;stroke:none"
       id="path34"
       inkscape:connector-curvature="0" /><path
       d="m 204.3,332.34 h 75.6 v 73.68 h -75.6 z"
       style="fill:none;stroke:#000000;stroke-width:2.03999996;stroke-linecap:butt;stroke-linejoin:round;stroke-miterlimit:10;stroke-dasharray:none;stroke-opacity:1"
       id="path36"
       inkscape:connector-curvature="0" /><path
       d="m 303.42,320.94 h 75.48 v 73.68 h -75.48 z"
       style="fill:#f2f2f2;fill-opacity:1;fill-rule:evenodd;stroke:none"
       id="path38"
       inkscape:connector-curvature="0" /><path
       d="m 303.42,320.94 h 75.48 v 73.68 h -75.48 z"
       style="fill:none;stroke:#000000;stroke-width:2.03999996;stroke-linecap:butt;stroke-linejoin:round;stroke-miterlimit:10;stroke-dasharray:none;stroke-opacity:1"
       id="path40"
       inkscape:connector-curvature="0" /><path
       d="m 378.9,320.94 h 75.6 v 73.68 h -75.6 z"
       style="fill:#f2f2f2;fill-opacity:1;fill-rule:evenodd;stroke:none"
       id="path42"
       inkscape:connector-curvature="0" /><path
       d="m 378.9,320.94 h 75.6 v 73.68 h -75.6 z"
       style="fill:none;stroke:#000000;stroke-width:2.03999996;stroke-linecap:butt;stroke-linejoin:round;stroke-miterlimit:10;stroke-dasharray:none;stroke-opacity:1"
       id="path44"
       inkscape:connector-curvature="0" /><path
       d="m 201.06,406.02 c 0,1.79 1.45,3.24 3.24,3.24 1.79,0 3.24,-1.45 3.24,-3.24 0,-1.79 -1.45,-3.24 -3.24,-3.24 -1.79,0 -3.24,1.45 -3.24,3.24 z"
       style="fill:#000000;fill-opacity:1;fill-rule:evenodd;stroke:none"
       id="path46"
       inkscape:connector-curvature="0" /><path
       d="m 201.06,406.02 c 0,1.79 1.45,3.24 3.24,3.24 1.79,0 3.24,-1.45 3.24,-3.24 0,-1.79 -1.45,-3.24 -3.24,-3.24 -1.79,0 -3.24,1.45 -3.24,3.24 z"
       style="fill:none;stroke:#000000;stroke-width:2.03999996;stroke-linecap:butt;stroke-linejoin:round;stroke-miterlimit:10;stroke-dasharray:none;stroke-opacity:1"
       id="path48"
       inkscape:connector-curvature="0" /><path
       d="m 201.78,331.38 c 0,1.79 1.45,3.24 3.24,3.24 1.79,0 3.24,-1.45 3.24,-3.24 0,-1.79 -1.45,-3.24 -3.24,-3.24 -1.79,0 -3.24,1.45 -3.24,3.24 z"
       style="fill:#000000;fill-opacity:1;fill-rule:evenodd;stroke:none"
       id="path50"
       inkscape:connector-curvature="0" /><path
       d="m 201.78,331.38 c 0,1.79 1.45,3.24 3.24,3.24 1.79,0 3.24,-1.45 3.24,-3.24 0,-1.79 -1.45,-3.24 -3.24,-3.24 -1.79,0 -3.24,1.45 -3.24,3.24 z"
       style="fill:none;stroke:#000000;stroke-width:2.03999996;stroke-linecap:butt;stroke-linejoin:round;stroke-miterlimit:10;stroke-dasharray:none;stroke-opacity:1"
       id="path52"
       inkscape:connector-curvature="0" /><path
       d="m 276.66,332.34 c 0,1.79 1.45,3.24 3.24,3.24 1.79,0 3.24,-1.45 3.24,-3.24 0,-1.79 -1.45,-3.24 -3.24,-3.24 -1.79,0 -3.24,1.45 -3.24,3.24 z"
       style="fill:#000000;fill-opacity:1;fill-rule:evenodd;stroke:none"
       id="path54"
       inkscape:connector-curvature="0" /><path
       d="m 276.66,332.34 c 0,1.79 1.45,3.24 3.24,3.24 1.79,0 3.24,-1.45 3.24,-3.24 0,-1.79 -1.45,-3.24 -3.24,-3.24 -1.79,0 -3.24,1.45 -3.24,3.24 z"
       style="fill:none;stroke:#000000;stroke-width:2.03999996;stroke-linecap:butt;stroke-linejoin:round;stroke-miterlimit:10;stroke-dasharray:none;stroke-opacity:1"
       id="path56"
       inkscape:connector-curvature="0" /><path
       d="m 375.3,320.7 c 0,1.79 1.48,3.24 3.3,3.24 1.82,0 3.3,-1.45 3.3,-3.24 0,-1.79 -1.48,-3.24 -3.3,-3.24 -1.82,0 -3.3,1.45 -3.3,3.24 z"
       style="fill:#000000;fill-opacity:1;fill-rule:evenodd;stroke:none"
       id="path58"
       inkscape:connector-curvature="0" /><path
       d="m 375.3,320.7 c 0,1.79 1.48,3.24 3.3,3.24 1.82,0 3.3,-1.45 3.3,-3.24 0,-1.79 -1.48,-3.24 -3.3,-3.24 -1.82,0 -3.3,1.45 -3.3,3.24 z"
       style="fill:none;stroke:#000000;stroke-width:2.03999996;stroke-linecap:butt;stroke-linejoin:round;stroke-miterlimit:10;stroke-dasharray:none;stroke-opacity:1"
       id="path60"
       inkscape:connector-curvature="0" /><path
       d="m 451.38,320.88 c 0,1.82 1.48,3.3 3.3,3.3 1.82,0 3.3,-1.48 3.3,-3.3 0,-1.82 -1.48,-3.3 -3.3,-3.3 -1.82,0 -3.3,1.48 -3.3,3.3 z"
       style="fill:#000000;fill-opacity:1;fill-rule:evenodd;stroke:none"
       id="path62"
       inkscape:connector-curvature="0" /><path
       d="m 451.38,320.88 c 0,1.82 1.48,3.3 3.3,3.3 1.82,0 3.3,-1.48 3.3,-3.3 0,-1.82 -1.48,-3.3 -3.3,-3.3 -1.82,0 -3.3,1.48 -3.3,3.3 z"
       style="fill:none;stroke:#000000;stroke-width:2.03999996;stroke-linecap:butt;stroke-linejoin:round;stroke-miterlimit:10;stroke-dasharray:none;stroke-opacity:1"
       id="path64"
       inkscape:connector-curvature="0" /><path
       d="m 276.66,406.02 c 0,1.79 1.45,3.24 3.24,3.24 1.79,0 3.24,-1.45 3.24,-3.24 0,-1.79 -1.45,-3.24 -3.24,-3.24 -1.79,0 -3.24,1.45 -3.24,3.24 z"
       style="fill:#000000;fill-opacity:1;fill-rule:evenodd;stroke:none"
       id="path66"
       inkscape:connector-curvature="0" /><path
       d="m 276.66,406.02 c 0,1.79 1.45,3.24 3.24,3.24 1.79,0 3.24,-1.45 3.24,-3.24 0,-1.79 -1.45,-3.24 -3.24,-3.24 -1.79,0 -3.24,1.45 -3.24,3.24 z"
       style="fill:none;stroke:#000000;stroke-width:2.03999996;stroke-linecap:butt;stroke-linejoin:round;stroke-miterlimit:10;stroke-dasharray:none;stroke-opacity:1"
       id="path68"
       inkscape:connector-curvature="0" /><path
       d="m 352.26,406.02 c 0,1.79 1.45,3.24 3.24,3.24 1.79,0 3.24,-1.45 3.24,-3.24 0,-1.79 -1.45,-3.24 -3.24,-3.24 -1.79,0 -3.24,1.45 -3.24,3.24 z"
       style="fill:#000000;fill-opacity:1;fill-rule:evenodd;stroke:none"
       id="path70"
       inkscape:connector-curvature="0" /><path
       d="m 352.26,406.02 c 0,1.79 1.45,3.24 3.24,3.24 1.79,0 3.24,-1.45 3.24,-3.24 0,-1.79 -1.45,-3.24 -3.24,-3.24 -1.79,0 -3.24,1.45 -3.24,3.24 z"
       style="fill:none;stroke:#000000;stroke-width:2.03999996;stroke-linecap:butt;stroke-linejoin:round;stroke-miterlimit:10;stroke-dasharray:none;stroke-opacity:1"
       id="path72"
       inkscape:connector-curvature="0" /><path
       d="m 451.38,394.62 c 0,1.79 1.48,3.24 3.3,3.24 1.82,0 3.3,-1.45 3.3,-3.24 0,-1.79 -1.48,-3.24 -3.3,-3.24 -1.82,0 -3.3,1.45 -3.3,3.24 z"
       style="fill:#000000;fill-opacity:1;fill-rule:evenodd;stroke:none"
       id="path74"
       inkscape:connector-curvature="0" /><path
       d="m 451.38,394.62 c 0,1.79 1.48,3.24 3.3,3.24 1.82,0 3.3,-1.45 3.3,-3.24 0,-1.79 -1.48,-3.24 -3.3,-3.24 -1.82,0 -3.3,1.45 -3.3,3.24 z"
       style="fill:none;stroke:#000000;stroke-width:2.03999996;stroke-linecap:butt;stroke-linejoin:round;stroke-miterlimit:10;stroke-dasharray:none;stroke-opacity:1"
       id="path76"
       inkscape:connector-curvature="0" /><path
       d="m 201.18,479.7 c 0,1.79 1.48,3.24 3.3,3.24 1.82,0 3.3,-1.45 3.3,-3.24 0,-1.79 -1.48,-3.24 -3.3,-3.24 -1.82,0 -3.3,1.45 -3.3,3.24 z"
       style="fill:#000000;fill-opacity:1;fill-rule:evenodd;stroke:none"
       id="path78"
       inkscape:connector-curvature="0" /><path
       d="m 201.18,479.7 c 0,1.79 1.48,3.24 3.3,3.24 1.82,0 3.3,-1.45 3.3,-3.24 0,-1.79 -1.48,-3.24 -3.3,-3.24 -1.82,0 -3.3,1.45 -3.3,3.24 z"
       style="fill:none;stroke:#000000;stroke-width:2.03999996;stroke-linecap:butt;stroke-linejoin:round;stroke-miterlimit:10;stroke-dasharray:none;stroke-opacity:1"
       id="path80"
       inkscape:connector-curvature="0" /><path
       d="m 276.66,479.7 c 0,1.79 1.45,3.24 3.24,3.24 1.79,0 3.24,-1.45 3.24,-3.24 0,-1.79 -1.45,-3.24 -3.24,-3.24 -1.79,0 -3.24,1.45 -3.24,3.24 z"
       style="fill:#000000;fill-opacity:1;fill-rule:evenodd;stroke:none"
       id="path82"
       inkscape:connector-curvature="0" /><path
       d="m 276.66,479.7 c 0,1.79 1.45,3.24 3.24,3.24 1.79,0 3.24,-1.45 3.24,-3.24 0,-1.79 -1.45,-3.24 -3.24,-3.24 -1.79,0 -3.24,1.45 -3.24,3.24 z"
       style="fill:none;stroke:#000000;stroke-width:2.03999996;stroke-linecap:butt;stroke-linejoin:round;stroke-miterlimit:10;stroke-dasharray:none;stroke-opacity:1"
       id="path84"
       inkscape:connector-curvature="0" /><path
       d="m 352.14,479.7 c 0,1.79 1.45,3.24 3.24,3.24 1.79,0 3.24,-1.45 3.24,-3.24 0,-1.79 -1.45,-3.24 -3.24,-3.24 -1.79,0 -3.24,1.45 -3.24,3.24 z"
       style="fill:#000000;fill-opacity:1;fill-rule:evenodd;stroke:none"
       id="path86"
       inkscape:connector-curvature="0" /><path
       d="m 352.14,479.7 c 0,1.79 1.45,3.24 3.24,3.24 1.79,0 3.24,-1.45 3.24,-3.24 0,-1.79 -1.45,-3.24 -3.24,-3.24 -1.79,0 -3.24,1.45 -3.24,3.24 z"
       style="fill:none;stroke:#000000;stroke-width:2.03999996;stroke-linecap:butt;stroke-linejoin:round;stroke-miterlimit:10;stroke-dasharray:none;stroke-opacity:1"
       id="path88"
       inkscape:connector-curvature="0" /><path
       d="m 451.14,468.3 c 0,1.79 1.45,3.24 3.24,3.24 1.79,0 3.24,-1.45 3.24,-3.24 0,-1.79 -1.45,-3.24 -3.24,-3.24 -1.79,0 -3.24,1.45 -3.24,3.24 z"
       style="fill:#000000;fill-opacity:1;fill-rule:evenodd;stroke:none"
       id="path90"
       inkscape:connector-curvature="0" /><path
       d="m 451.14,468.3 c 0,1.79 1.45,3.24 3.24,3.24 1.79,0 3.24,-1.45 3.24,-3.24 0,-1.79 -1.45,-3.24 -3.24,-3.24 -1.79,0 -3.24,1.45 -3.24,3.24 z"
       style="fill:none;stroke:#000000;stroke-width:2.03999996;stroke-linecap:butt;stroke-linejoin:round;stroke-miterlimit:10;stroke-dasharray:none;stroke-opacity:1"
       id="path92"
       inkscape:connector-curvature="0" /><path
       d="m 300.18,320.58 c 0,1.79 1.45,3.24 3.24,3.24 1.79,0 3.24,-1.45 3.24,-3.24 0,-1.79 -1.45,-3.24 -3.24,-3.24 -1.79,0 -3.24,1.45 -3.24,3.24 z"
       style="fill:#000000;fill-opacity:1;fill-rule:evenodd;stroke:none"
       id="path94"
       inkscape:connector-curvature="0" /><path
       d="m 300.18,320.58 c 0,1.79 1.45,3.24 3.24,3.24 1.79,0 3.24,-1.45 3.24,-3.24 0,-1.79 -1.45,-3.24 -3.24,-3.24 -1.79,0 -3.24,1.45 -3.24,3.24 z"
       style="fill:none;stroke:#000000;stroke-width:2.03999996;stroke-linecap:butt;stroke-linejoin:round;stroke-miterlimit:10;stroke-dasharray:none;stroke-opacity:1"
       id="path96"
       inkscape:connector-curvature="0" /><path
       d="m 300.18,394.26 c 0,1.79 1.45,3.24 3.24,3.24 1.79,0 3.24,-1.45 3.24,-3.24 0,-1.79 -1.45,-3.24 -3.24,-3.24 -1.79,0 -3.24,1.45 -3.24,3.24 z"
       style="fill:#000000;fill-opacity:1;fill-rule:evenodd;stroke:none"
       id="path98"
       inkscape:connector-curvature="0" /><path
       d="m 300.18,394.26 c 0,1.79 1.45,3.24 3.24,3.24 1.79,0 3.24,-1.45 3.24,-3.24 0,-1.79 -1.45,-3.24 -3.24,-3.24 -1.79,0 -3.24,1.45 -3.24,3.24 z"
       style="fill:none;stroke:#000000;stroke-width:2.03999996;stroke-linecap:butt;stroke-linejoin:round;stroke-miterlimit:10;stroke-dasharray:none;stroke-opacity:1"
       id="path100"
       inkscape:connector-curvature="0" /><path
       d="m 375.66,394.26 c 0,1.79 1.48,3.24 3.3,3.24 1.82,0 3.3,-1.45 3.3,-3.24 0,-1.79 -1.48,-3.24 -3.3,-3.24 -1.82,0 -3.3,1.45 -3.3,3.24 z"
       style="fill:#000000;fill-opacity:1;fill-rule:evenodd;stroke:none"
       id="path102"
       inkscape:connector-curvature="0" /><path
       d="m 375.66,394.26 c 0,1.79 1.48,3.24 3.3,3.24 1.82,0 3.3,-1.45 3.3,-3.24 0,-1.79 -1.48,-3.24 -3.3,-3.24 -1.82,0 -3.3,1.45 -3.3,3.24 z"
       style="fill:none;stroke:#000000;stroke-width:2.03999996;stroke-linecap:butt;stroke-linejoin:round;stroke-miterlimit:10;stroke-dasharray:none;stroke-opacity:1"
       id="path104"
       inkscape:connector-curvature="0" /><path
       d="m 375.54,468 c 0,1.82 1.48,3.3 3.3,3.3 1.82,0 3.3,-1.48 3.3,-3.3 0,-1.82 -1.48,-3.3 -3.3,-3.3 -1.82,0 -3.3,1.48 -3.3,3.3 z"
       style="fill:#000000;fill-opacity:1;fill-rule:evenodd;stroke:none"
       id="path106"
       inkscape:connector-curvature="0" /><path
       d="m 375.54,468 c 0,1.82 1.48,3.3 3.3,3.3 1.82,0 3.3,-1.48 3.3,-3.3 0,-1.82 -1.48,-3.3 -3.3,-3.3 -1.82,0 -3.3,1.48 -3.3,3.3 z"
       style="fill:none;stroke:#000000;stroke-width:2.03999996;stroke-linecap:butt;stroke-linejoin:round;stroke-miterlimit:10;stroke-dasharray:none;stroke-opacity:1"
       id="path108"
       inkscape:connector-curvature="0" /><g
       id="g110"><path
         d="m 277.56,334.68 28.1,-16.36"
         style="fill:none;stroke:#000000;stroke-width:0.47999999;stroke-linecap:butt;stroke-linejoin:round;stroke-miterlimit:10;stroke-dasharray:1.92, 1.44;stroke-dashoffset:0;stroke-opacity:1"
         id="path112"
         inkscape:connector-curvature="0" /></g><g
       id="g114"><path
         d="m 277.44,408.6 28.1,-16.36"
         style="fill:none;stroke:#000000;stroke-width:0.47999999;stroke-linecap:butt;stroke-linejoin:round;stroke-miterlimit:10;stroke-dasharray:1.92, 1.44;stroke-dashoffset:0;stroke-opacity:1"
         id="path116"
         inkscape:connector-curvature="0" /></g><g
       id="g118"><path
         d="m 353.88,408.48 28.1,-16.36"
         style="fill:none;stroke:#000000;stroke-width:0.47999999;stroke-linecap:butt;stroke-linejoin:round;stroke-miterlimit:10;stroke-dasharray:1.92, 1.44;stroke-dashoffset:0;stroke-opacity:1"
         id="path120"
         inkscape:connector-curvature="0" /></g><g
       id="g122"><path
         d="m 352.8,481.92 28.1,-16.36"
         style="fill:none;stroke:#000000;stroke-width:0.47999999;stroke-linecap:butt;stroke-linejoin:round;stroke-miterlimit:10;stroke-dasharray:1.92, 1.44;stroke-dashoffset:0;stroke-opacity:1"
         id="path124"
         inkscape:connector-curvature="0" /></g><g
       id="g126"><g
         id="g128"
         clip-path="url(#clipPath132)"><text
           transform="matrix(1,0,0,-1,191.47,317.59)"
           style="font-variant:normal;font-weight:normal;font-size:18px;font-family:Calibri;-inkscape-font-specification:Calibri;writing-mode:lr-tb;fill:#00b050;fill-opacity:1;fill-rule:nonzero;stroke:none"
           id="text136"><tspan
             x="0"
             y="0"
             id="tspan134">8</tspan></text>
</g></g><g
       id="g138"><g
         id="g140"
         clip-path="url(#clipPath144)"><text
           transform="matrix(1,0,0,-1,265.2,317.59)"
           style="font-variant:normal;font-weight:normal;font-size:18px;font-family:Calibri;-inkscape-font-specification:Calibri;writing-mode:lr-tb;fill:#00b050;fill-opacity:1;fill-rule:nonzero;stroke:none"
           id="text148"><tspan
             x="0"
             y="0"
             id="tspan146">7</tspan></text>
</g></g><g
       id="g150"><g
         id="g152"
         clip-path="url(#clipPath156)"><text
           transform="matrix(1,0,0,-1,191.47,408.34)"
           style="font-variant:normal;font-weight:normal;font-size:18px;font-family:Calibri;-inkscape-font-specification:Calibri;writing-mode:lr-tb;fill:#00b050;fill-opacity:1;fill-rule:nonzero;stroke:none"
           id="text160"><tspan
             x="0"
             y="0"
             id="tspan158">6</tspan></text>
</g></g><g
       id="g162"><g
         id="g164"
         clip-path="url(#clipPath168)"><text
           transform="matrix(1,0,0,-1,267,409.66)"
           style="font-variant:normal;font-weight:normal;font-size:18px;font-family:Calibri;-inkscape-font-specification:Calibri;writing-mode:lr-tb;fill:#00b050;fill-opacity:1;fill-rule:nonzero;stroke:none"
           id="text172"><tspan
             x="0"
             y="0"
             id="tspan170">5</tspan></text>
</g></g><g
       id="g174"><g
         id="g176"
         clip-path="url(#clipPath180)"><text
           transform="matrix(1,0,0,-1,343.51,408.34)"
           style="font-variant:normal;font-weight:normal;font-size:18px;font-family:Calibri;-inkscape-font-specification:Calibri;writing-mode:lr-tb;fill:#00b050;fill-opacity:1;fill-rule:nonzero;stroke:none"
           id="text184"><tspan
             x="0"
             y="0"
             id="tspan182">4</tspan></text>
</g></g><g
       id="g186"><g
         id="g188"
         clip-path="url(#clipPath192)"><text
           transform="matrix(1,0,0,-1,192.31,465.05)"
           style="font-variant:normal;font-weight:normal;font-size:18px;font-family:Calibri;-inkscape-font-specification:Calibri;writing-mode:lr-tb;fill:#00b050;fill-opacity:1;fill-rule:nonzero;stroke:none"
           id="text196"><tspan
             x="0"
             y="0"
             id="tspan194">1</tspan></text>
</g></g><g
       id="g198"><g
         id="g200"
         clip-path="url(#clipPath204)"><text
           transform="matrix(1,0,0,-1,267.98,465.05)"
           style="font-variant:normal;font-weight:normal;font-size:18px;font-family:Calibri;-inkscape-font-specification:Calibri;writing-mode:lr-tb;fill:#00b050;fill-opacity:1;fill-rule:nonzero;stroke:none"
           id="text208"><tspan
             x="0"
             y="0"
             id="tspan206">2</tspan></text>
</g></g><g
       id="g210"><g
         id="g212"
         clip-path="url(#clipPath216)"><text
           transform="matrix(1,0,0,-1,343.51,464.38)"
           style="font-variant:normal;font-weight:normal;font-size:18.02400017px;font-family:Calibri;-inkscape-font-specification:Calibri;writing-mode:lr-tb;fill:#00b050;fill-opacity:1;fill-rule:nonzero;stroke:none"
           id="text220"><tspan
             x="0"
             y="0"
             id="tspan218">3</tspan></text>
</g></g><g
       id="g222"><g
         id="g224"
         clip-path="url(#clipPath228)"><text
           transform="matrix(1,0,0,-1,307.68,306.91)"
           style="font-variant:normal;font-weight:normal;font-size:18px;font-family:Calibri;-inkscape-font-specification:Calibri;writing-mode:lr-tb;fill:#f79646;fill-opacity:1;fill-rule:nonzero;stroke:none"
           id="text232"><tspan
             x="0"
             y="0"
             id="tspan230">6</tspan></text>
</g></g><g
       id="g234"><g
         id="g236"
         clip-path="url(#clipPath240)"><text
           transform="matrix(1,0,0,-1,382.75,306.24)"
           style="font-variant:normal;font-weight:normal;font-size:18px;font-family:Calibri;-inkscape-font-specification:Calibri;writing-mode:lr-tb;fill:#f79646;fill-opacity:1;fill-rule:nonzero;stroke:none"
           id="text244"><tspan
             x="0"
             y="0"
             id="tspan242">7</tspan></text>
</g></g><g
       id="g246"><g
         id="g248"
         clip-path="url(#clipPath252)"><text
           transform="matrix(1,0,0,-1,457.51,306.24)"
           style="font-variant:normal;font-weight:normal;font-size:18px;font-family:Calibri;-inkscape-font-specification:Calibri;writing-mode:lr-tb;fill:#f79646;fill-opacity:1;fill-rule:nonzero;stroke:none"
           id="text256"><tspan
             x="0"
             y="0"
             id="tspan254">8</tspan></text>
</g></g><g
       id="g258"><g
         id="g260"
         clip-path="url(#clipPath264)"><text
           transform="matrix(1,0,0,-1,308.28,379.97)"
           style="font-variant:normal;font-weight:normal;font-size:18px;font-family:Calibri;-inkscape-font-specification:Calibri;writing-mode:lr-tb;fill:#f79646;fill-opacity:1;fill-rule:nonzero;stroke:none"
           id="text268"><tspan
             x="0"
             y="0"
             id="tspan266">3</tspan></text>
</g></g><g
       id="g270"><g
         id="g272"
         clip-path="url(#clipPath276)"><text
           transform="matrix(1,0,0,-1,382.3,380.04)"
           style="font-variant:normal;font-weight:normal;font-size:18px;font-family:Calibri;-inkscape-font-specification:Calibri;writing-mode:lr-tb;fill:#f79646;fill-opacity:1;fill-rule:nonzero;stroke:none"
           id="text280"><tspan
             x="0"
             y="0"
             id="tspan278">4</tspan></text>
</g></g><g
       id="g282"><g
         id="g284"
         clip-path="url(#clipPath288)"><text
           transform="matrix(1,0,0,-1,458.09,380.64)"
           style="font-variant:normal;font-weight:normal;font-size:18px;font-family:Calibri;-inkscape-font-specification:Calibri;writing-mode:lr-tb;fill:#f79646;fill-opacity:1;fill-rule:nonzero;stroke:none"
           id="text292"><tspan
             x="0"
             y="0"
             id="tspan290">5</tspan></text>
</g></g><g
       id="g294"><g
         id="g296"
         clip-path="url(#clipPath300)"><text
           transform="matrix(1,0,0,-1,382.75,453.7)"
           style="font-variant:normal;font-weight:normal;font-size:18px;font-family:Calibri;-inkscape-font-specification:Calibri;writing-mode:lr-tb;fill:#f79646;fill-opacity:1;fill-rule:nonzero;stroke:none"
           id="text304"><tspan
             x="0"
             y="0"
             id="tspan302">1</tspan></text>
</g></g><g
       id="g306"><g
         id="g308"
         clip-path="url(#clipPath312)"><text
           transform="matrix(1,0,0,-1,458.35,453.7)"
           style="font-variant:normal;font-weight:normal;font-size:18px;font-family:Calibri;-inkscape-font-specification:Calibri;writing-mode:lr-tb;fill:#f79646;fill-opacity:1;fill-rule:nonzero;stroke:none"
           id="text316"><tspan
             x="0"
             y="0"
             id="tspan314">2</tspan></text>
</g></g><g
       id="g318"><g
         id="g320"
         clip-path="url(#clipPath324)"><text
           transform="matrix(1,0,0,-1,237.41,363.31)"
           style="font-variant:normal;font-weight:normal;font-size:18px;font-family:Calibri;-inkscape-font-specification:Calibri;writing-mode:lr-tb;fill:#8064a2;fill-opacity:1;fill-rule:nonzero;stroke:none"
           id="text328"><tspan
             x="0"
             y="0"
             id="tspan326">2</tspan></text>
</g></g><g
       id="g330"><g
         id="g332"
         clip-path="url(#clipPath336)"><text
           transform="matrix(1,0,0,-1,237.41,437.04)"
           style="font-variant:normal;font-weight:normal;font-size:18px;font-family:Calibri;-inkscape-font-specification:Calibri;writing-mode:lr-tb;fill:#8064a2;fill-opacity:1;fill-rule:nonzero;stroke:none"
           id="text340"><tspan
             x="0"
             y="0"
             id="tspan338">1</tspan></text>
</g></g><g
       id="g342"><g
         id="g344"
         clip-path="url(#clipPath348)"><text
           transform="matrix(1,0,0,-1,313.03,437.04)"
           style="font-variant:normal;font-weight:normal;font-size:18px;font-family:Calibri;-inkscape-font-specification:Calibri;writing-mode:lr-tb;fill:#8064a2;fill-opacity:1;fill-rule:nonzero;stroke:none"
           id="text352"><tspan
             x="0"
             y="0"
             id="tspan350">3</tspan></text>
</g></g><g
       id="g354"><g
         id="g356"
         clip-path="url(#clipPath360)"><text
           transform="matrix(1,0,0,-1,335.95,352.34)"
           style="font-variant:normal;font-weight:normal;font-size:18px;font-family:Calibri;-inkscape-font-specification:Calibri;writing-mode:lr-tb;fill:#1f497d;fill-opacity:1;fill-rule:nonzero;stroke:none"
           id="text364"><tspan
             x="0"
             y="0"
             id="tspan362">1</tspan></text>
</g></g><g
       id="g366"><g
         id="g368"
         clip-path="url(#clipPath372)"><text
           transform="matrix(1,0,0,-1,411.55,352.34)"
           style="font-variant:normal;font-weight:normal;font-size:18px;font-family:Calibri;-inkscape-font-specification:Calibri;writing-mode:lr-tb;fill:#1f497d;fill-opacity:1;fill-rule:nonzero;stroke:none"
           id="text376"><tspan
             x="0"
             y="0"
             id="tspan374">2</tspan></text>
</g></g><g
       id="g378"><g
         id="g380"
         clip-path="url(#clipPath384)"><text
           transform="matrix(1,0,0,-1,411.55,426.07)"
           style="font-variant:normal;font-weight:normal;font-size:18px;font-family:Calibri;-inkscape-font-specification:Calibri;writing-mode:lr-tb;fill:#1f497d;fill-opacity:1;fill-rule:nonzero;stroke:none"
           id="text388"><tspan
             x="0"
             y="0"
             id="tspan386">3</tspan></text>
</g></g></g></svg>