<?xml version="1.0" encoding="UTF-8" standalone="no"?>
<!-- Created with Inkscape (http://www.inkscape.org/) -->

<svg
   version="1.1"
   id="svg1315"
   xml:space="preserve"
   width="514.77301"
   height="159.44"
   viewBox="0 0 514.77301 159.44"
   sodipodi:docname="data_part.svg"
   inkscape:version="1.1 (c68e22c387, 2021-05-23)"
   xmlns:inkscape="http://www.inkscape.org/namespaces/inkscape"
   xmlns:sodipodi="http://sodipodi.sourceforge.net/DTD/sodipodi-0.dtd"
   xmlns="http://www.w3.org/2000/svg"
   xmlns:svg="http://www.w3.org/2000/svg"><defs
     id="defs1319"><clipPath
       clipPathUnits="userSpaceOnUse"
       id="clipPath1329"><path
         d="M 0,1.2207e-4 H 720 V 540.00012 H 0 Z"
         clip-rule="evenodd"
         id="path1327" /></clipPath><clipPath
       clipPathUnits="userSpaceOnUse"
       id="clipPath1339"><path
         d="M 1.0729e-5,0 H 720.00001 V 540 H 1.0729e-5 Z"
         clip-rule="evenodd"
         id="path1337" /></clipPath><clipPath
       clipPathUnits="userSpaceOnUse"
       id="clipPath1375"><path
         d="M 1.0729e-5,0 H 720.00001 V 540 H 1.0729e-5 Z"
         clip-rule="evenodd"
         id="path1373" /></clipPath><clipPath
       clipPathUnits="userSpaceOnUse"
       id="clipPath1387"><path
         d="M 1.0729e-5,0 H 720.00001 V 540 H 1.0729e-5 Z"
         clip-rule="evenodd"
         id="path1385" /></clipPath><clipPath
       clipPathUnits="userSpaceOnUse"
       id="clipPath1399"><path
         d="M 1.0729e-5,0 H 720.00001 V 540 H 1.0729e-5 Z"
         clip-rule="evenodd"
         id="path1397" /></clipPath><clipPath
       clipPathUnits="userSpaceOnUse"
       id="clipPath1411"><path
         d="M 1.0729e-5,0 H 720.00001 V 540 H 1.0729e-5 Z"
         clip-rule="evenodd"
         id="path1409" /></clipPath><clipPath
       clipPathUnits="userSpaceOnUse"
       id="clipPath1423"><path
         d="M 1.0729e-5,0 H 720.00001 V 540 H 1.0729e-5 Z"
         clip-rule="evenodd"
         id="path1421" /></clipPath><clipPath
       clipPathUnits="userSpaceOnUse"
       id="clipPath1435"><path
         d="M 1.0729e-5,0 H 720.00001 V 540 H 1.0729e-5 Z"
         clip-rule="evenodd"
         id="path1433" /></clipPath><clipPath
       clipPathUnits="userSpaceOnUse"
       id="clipPath1447"><path
         d="M 1.0729e-5,0 H 720.00001 V 540 H 1.0729e-5 Z"
         clip-rule="evenodd"
         id="path1445" /></clipPath><clipPath
       clipPathUnits="userSpaceOnUse"
       id="clipPath1459"><path
         d="M 1.0729e-5,0 H 720.00001 V 540 H 1.0729e-5 Z"
         clip-rule="evenodd"
         id="path1457" /></clipPath><clipPath
       clipPathUnits="userSpaceOnUse"
       id="clipPath1471"><path
         d="M 1.0729e-5,0 H 720.00001 V 540 H 1.0729e-5 Z"
         clip-rule="evenodd"
         id="path1469" /></clipPath><clipPath
       clipPathUnits="userSpaceOnUse"
       id="clipPath1517"><path
         d="M 1.0729e-5,0 H 720.00001 V 540 H 1.0729e-5 Z"
         clip-rule="evenodd"
         id="path1515" /></clipPath><clipPath
       clipPathUnits="userSpaceOnUse"
       id="clipPath1529"><path
         d="M 1.0729e-5,0 H 720.00001 V 540 H 1.0729e-5 Z"
         clip-rule="evenodd"
         id="path1527" /></clipPath><clipPath
       clipPathUnits="userSpaceOnUse"
       id="clipPath1563"><path
         d="M 1.0729e-5,0 H 720.00001 V 540 H 1.0729e-5 Z"
         clip-rule="evenodd"
         id="path1561" /></clipPath><clipPath
       clipPathUnits="userSpaceOnUse"
       id="clipPath1575"><path
         d="M 1.0729e-5,0 H 720.00001 V 540 H 1.0729e-5 Z"
         clip-rule="evenodd"
         id="path1573" /></clipPath><clipPath
       clipPathUnits="userSpaceOnUse"
       id="clipPath1587"><path
         d="M 1.0729e-5,0 H 720.00001 V 540 H 1.0729e-5 Z"
         clip-rule="evenodd"
         id="path1585" /></clipPath><clipPath
       clipPathUnits="userSpaceOnUse"
       id="clipPath1599"><path
         d="M 1.0729e-5,0 H 720.00001 V 540 H 1.0729e-5 Z"
         clip-rule="evenodd"
         id="path1597" /></clipPath><clipPath
       clipPathUnits="userSpaceOnUse"
       id="clipPath1637"><path
         d="M 1.0729e-5,0 H 720.00001 V 540 H 1.0729e-5 Z"
         clip-rule="evenodd"
         id="path1635" /></clipPath><clipPath
       clipPathUnits="userSpaceOnUse"
       id="clipPath1649"><path
         d="M 1.0729e-5,0 H 720.00001 V 540 H 1.0729e-5 Z"
         clip-rule="evenodd"
         id="path1647" /></clipPath><clipPath
       clipPathUnits="userSpaceOnUse"
       id="clipPath1661"><path
         d="M 1.0729e-5,0 H 720.00001 V 540 H 1.0729e-5 Z"
         clip-rule="evenodd"
         id="path1659" /></clipPath><clipPath
       clipPathUnits="userSpaceOnUse"
       id="clipPath1673"><path
         d="M 1.0729e-5,0 H 720.00001 V 540 H 1.0729e-5 Z"
         clip-rule="evenodd"
         id="path1671" /></clipPath><clipPath
       clipPathUnits="userSpaceOnUse"
       id="clipPath1685"><path
         d="M 1.0729e-5,0 H 720.00001 V 540 H 1.0729e-5 Z"
         clip-rule="evenodd"
         id="path1683" /></clipPath><clipPath
       clipPathUnits="userSpaceOnUse"
       id="clipPath1697"><path
         d="M 1.0729e-5,0 H 720.00001 V 540 H 1.0729e-5 Z"
         clip-rule="evenodd"
         id="path1695" /></clipPath><clipPath
       clipPathUnits="userSpaceOnUse"
       id="clipPath1709"><path
         d="M 1.0729e-5,0 H 720.00001 V 540 H 1.0729e-5 Z"
         clip-rule="evenodd"
         id="path1707" /></clipPath><clipPath
       clipPathUnits="userSpaceOnUse"
       id="clipPath1789"><path
         d="M 1.0729e-5,0 H 720.00001 V 540 H 1.0729e-5 Z"
         clip-rule="evenodd"
         id="path1787" /></clipPath><clipPath
       clipPathUnits="userSpaceOnUse"
       id="clipPath1801"><path
         d="M 1.0729e-5,0 H 720.00001 V 540 H 1.0729e-5 Z"
         clip-rule="evenodd"
         id="path1799" /></clipPath><clipPath
       clipPathUnits="userSpaceOnUse"
       id="clipPath1813"><path
         d="M 1.0729e-5,0 H 720.00001 V 540 H 1.0729e-5 Z"
         clip-rule="evenodd"
         id="path1811" /></clipPath><clipPath
       clipPathUnits="userSpaceOnUse"
       id="clipPath1825"><path
         d="M 1.0729e-5,0 H 720.00001 V 540 H 1.0729e-5 Z"
         clip-rule="evenodd"
         id="path1823" /></clipPath><clipPath
       clipPathUnits="userSpaceOnUse"
       id="clipPath1837"><path
         d="M 1.0729e-5,0 H 720.00001 V 540 H 1.0729e-5 Z"
         clip-rule="evenodd"
         id="path1835" /></clipPath></defs><sodipodi:namedview
     id="namedview1317"
     pagecolor="#ffffff"
     bordercolor="#666666"
     borderopacity="1.0"
     inkscape:pageshadow="2"
     inkscape:pageopacity="0.0"
     inkscape:pagecheckerboard="0"
     showgrid="false"
     fit-margin-top="0"
     fit-margin-left="0"
     fit-margin-right="0"
     fit-margin-bottom="0"
     inkscape:zoom="1.1239583"
     inkscape:cx="55.607044"
     inkscape:cy="113.43837"
     inkscape:window-width="1920"
     inkscape:window-height="1017"
     inkscape:window-x="-8"
     inkscape:window-y="-8"
     inkscape:window-maximized="1"
     inkscape:current-layer="g1321" /><g
     id="g1321"
     inkscape:groupmode="layer"
     inkscape:label="dist_part"
     transform="matrix(1.3333333,0,0,-1.3333333,-220.95999,473.27999)"><path
       d="m 165.72,329.52 h 17.04 v 16.92 h -17.04 z"
       style="fill:#c0392b;fill-opacity:1;fill-rule:evenodd;stroke:none"
       id="path1359" /><path
       d="m 230.4,329.52 h 17.04 v 16.92 H 230.4 Z"
       style="fill:#27ae60;fill-opacity:1;fill-rule:evenodd;stroke:none"
       id="path1361" /><path
       d="m 198.12,329.52 h 16.92 v 16.92 h -16.92 z"
       style="fill:#8e44ad;fill-opacity:1;fill-rule:evenodd;stroke:none"
       id="path1363" /><path
       d="m 355.08,337.98 c 0,4.67 3.81,8.46 8.52,8.46 4.71,0 8.52,-3.79 8.52,-8.46 0,-4.67 -3.81,-8.46 -8.52,-8.46 -4.71,0 -8.52,3.79 -8.52,8.46 z"
       style="fill:#343e50;fill-opacity:1;fill-rule:evenodd;stroke:none"
       id="path1365" /><path
       d="m 326.52,337.98 c 0,4.67 3.81,8.46 8.52,8.46 4.71,0 8.52,-3.79 8.52,-8.46 0,-4.67 -3.81,-8.46 -8.52,-8.46 -4.71,0 -8.52,3.79 -8.52,8.46 z"
       style="fill:#e67e22;fill-opacity:1;fill-rule:evenodd;stroke:none"
       id="path1367" /><g
       id="g1499"><path
         d="M 303.24,354.96 V 320.94"
         style="fill:none;stroke:#95a5a6;stroke-width:0.72;stroke-linecap:butt;stroke-linejoin:round;stroke-miterlimit:10;stroke-dasharray:2.16, 0.72;stroke-dashoffset:0;stroke-opacity:1"
         id="path1501" /></g><g
       id="g1503"><path
         d="M 422.4,354.96 V 320.94"
         style="fill:none;stroke:#95a5a6;stroke-width:0.72;stroke-linecap:butt;stroke-linejoin:round;stroke-miterlimit:10;stroke-dasharray:2.16, 0.72;stroke-dashoffset:0;stroke-opacity:1"
         id="path1505" /></g><path
       d="m 444.18,329.46 h 17.04 v 16.92 h -17.04 z"
       style="fill:none;stroke:#f1c40f;stroke-width:1.56;stroke-linecap:butt;stroke-linejoin:round;stroke-miterlimit:10;stroke-dasharray:none;stroke-opacity:1"
       id="path1507" /><path
       d="m 474.66,337.92 c 0,4.67 3.79,8.46 8.46,8.46 4.67,0 8.46,-3.79 8.46,-8.46 0,-4.67 -3.79,-8.46 -8.46,-8.46 -4.67,0 -8.46,3.79 -8.46,8.46 z"
       style="fill:none;stroke:#3498db;stroke-width:1.56;stroke-linecap:butt;stroke-linejoin:round;stroke-miterlimit:10;stroke-dasharray:none;stroke-opacity:1"
       id="path1509" /><path
       d="m 165.72,287.04 h 17.04 v 16.92 h -17.04 z"
       style="fill:#c0392b;fill-opacity:1;fill-rule:evenodd;stroke:none"
       id="path1737" /><path
       d="m 230.4,287.04 h 17.04 v 16.92 H 230.4 Z"
       style="fill:#27ae60;fill-opacity:1;fill-rule:evenodd;stroke:none"
       id="path1739" /><path
       d="m 198.12,287.04 h 16.92 v 16.92 h -16.92 z"
       style="fill:#8e44ad;fill-opacity:1;fill-rule:evenodd;stroke:none"
       id="path1741" /><path
       d="m 262.86,286.98 h 16.92 v 16.92 h -16.92 z"
       style="fill:none;stroke:#f1c40f;stroke-width:1.56;stroke-linecap:butt;stroke-linejoin:round;stroke-miterlimit:10;stroke-dasharray:none;stroke-opacity:1"
       id="path1743" /><path
       d="m 383.7,295.44 c 0,4.67 3.81,8.46 8.52,8.46 4.71,0 8.52,-3.79 8.52,-8.46 0,-4.67 -3.81,-8.46 -8.52,-8.46 -4.71,0 -8.52,3.79 -8.52,8.46 z"
       style="fill:none;stroke:#3498db;stroke-width:1.56;stroke-linecap:butt;stroke-linejoin:round;stroke-miterlimit:10;stroke-dasharray:none;stroke-opacity:1"
       id="path1745" /><path
       d="m 355.08,295.5 c 0,4.67 3.81,8.46 8.52,8.46 4.71,0 8.52,-3.79 8.52,-8.46 0,-4.67 -3.81,-8.46 -8.52,-8.46 -4.71,0 -8.52,3.79 -8.52,8.46 z"
       style="fill:#343e50;fill-opacity:1;fill-rule:evenodd;stroke:none"
       id="path1747" /><path
       d="m 326.52,295.5 c 0,4.67 3.81,8.46 8.52,8.46 4.71,0 8.52,-3.79 8.52,-8.46 0,-4.67 -3.81,-8.46 -8.52,-8.46 -4.71,0 -8.52,3.79 -8.52,8.46 z"
       style="fill:#e67e22;fill-opacity:1;fill-rule:evenodd;stroke:none"
       id="path1749" /><g
       id="g1751"><path
         d="M 303.24,312.48 V 278.46"
         style="fill:none;stroke:#95a5a6;stroke-width:0.72;stroke-linecap:butt;stroke-linejoin:round;stroke-miterlimit:10;stroke-dasharray:2.16, 0.72;stroke-dashoffset:0;stroke-opacity:1"
         id="path1753" /></g><g
       id="g1755"><path
         d="M 422.4,312.48 V 278.46"
         style="fill:none;stroke:#95a5a6;stroke-width:0.72;stroke-linecap:butt;stroke-linejoin:round;stroke-miterlimit:10;stroke-dasharray:2.16, 0.72;stroke-dashoffset:0;stroke-opacity:1"
         id="path1757" /></g><path
       d="m 444.18,286.98 h 17.04 v 16.92 h -17.04 z"
       style="fill:none;stroke:#f1c40f;stroke-width:1.56;stroke-linecap:butt;stroke-linejoin:round;stroke-miterlimit:10;stroke-dasharray:none;stroke-opacity:1"
       id="path1759" /><path
       d="m 474.66,295.44 c 0,4.67 3.79,8.46 8.46,8.46 4.67,0 8.46,-3.79 8.46,-8.46 0,-4.67 -3.79,-8.46 -8.46,-8.46 -4.67,0 -8.46,3.79 -8.46,8.46 z"
       style="fill:none;stroke:#3498db;stroke-width:1.56;stroke-linecap:butt;stroke-linejoin:round;stroke-miterlimit:10;stroke-dasharray:none;stroke-opacity:1"
       id="path1761" /><path
       d="m 165.72,243.96 h 17.04 v 16.92 h -17.04 z"
       style="fill:#c0392b;fill-opacity:1;fill-rule:evenodd;stroke:none"
       id="path1763" /><path
       d="m 230.4,243.96 h 17.04 v 16.92 H 230.4 Z"
       style="fill:#27ae60;fill-opacity:1;fill-rule:evenodd;stroke:none"
       id="path1765" /><path
       d="m 198.12,243.96 h 16.92 v 16.92 h -16.92 z"
       style="fill:#8e44ad;fill-opacity:1;fill-rule:evenodd;stroke:none"
       id="path1767" /><path
       d="m 473.4,252.42 c 0,4.67 3.81,8.46 8.52,8.46 4.71,0 8.52,-3.79 8.52,-8.46 0,-4.67 -3.81,-8.46 -8.52,-8.46 -4.71,0 -8.52,3.79 -8.52,8.46 z"
       style="fill:#343e50;fill-opacity:1;fill-rule:evenodd;stroke:none"
       id="path1769" /><path
       d="m 444.84,252.42 c 0,4.67 3.81,8.46 8.52,8.46 4.71,0 8.52,-3.79 8.52,-8.46 0,-4.67 -3.81,-8.46 -8.52,-8.46 -4.71,0 -8.52,3.79 -8.52,8.46 z"
       style="fill:#e67e22;fill-opacity:1;fill-rule:evenodd;stroke:none"
       id="path1771" /><g
       id="g1773"><path
         d="M 303.24,269.4 V 235.38"
         style="fill:none;stroke:#95a5a6;stroke-width:0.72;stroke-linecap:butt;stroke-linejoin:round;stroke-miterlimit:10;stroke-dasharray:2.16, 0.72;stroke-dashoffset:0;stroke-opacity:1"
         id="path1775" /></g><g
       id="g1777"><path
         d="M 422.4,269.4 V 235.38"
         style="fill:none;stroke:#95a5a6;stroke-width:0.72;stroke-linecap:butt;stroke-linejoin:round;stroke-miterlimit:10;stroke-dasharray:2.16, 0.72;stroke-dashoffset:0;stroke-opacity:1"
         id="path1779" /></g><path
       d="m 327.42,243.9 h 17.04 v 16.92 h -17.04 z"
       style="fill:none;stroke:#f1c40f;stroke-width:1.56;stroke-linecap:butt;stroke-linejoin:round;stroke-miterlimit:10;stroke-dasharray:none;stroke-opacity:1"
       id="path1781" /><g
       id="g1807"><g
         id="g1809"
         clip-path="url(#clipPath1813)"><text
           transform="matrix(1,0,0,-1,524.86,331.56)"
           style="font-variant:normal;font-weight:normal;font-size:18px;font-family:Consolas;-inkscape-font-specification:Consolas;writing-mode:lr-tb;fill:#000000;fill-opacity:1;fill-rule:nonzero;stroke:none"
           id="text1817"><tspan
             x="0 9.8400002 19.68"
             y="0"
             sodipodi:role="line"
             id="tspan1815">(a)</tspan></text></g></g><g
       id="g1819"><g
         id="g1821"
         clip-path="url(#clipPath1825)"><text
           transform="matrix(1,0,0,-1,524.86,289.85)"
           style="font-variant:normal;font-weight:normal;font-size:18px;font-family:Consolas;-inkscape-font-specification:Consolas;writing-mode:lr-tb;fill:#000000;fill-opacity:1;fill-rule:nonzero;stroke:none"
           id="text1829"><tspan
             x="0 9.8400002 19.68"
             y="0"
             sodipodi:role="line"
             id="tspan1827">(b)</tspan></text></g></g><g
       id="g1831"><g
         id="g1833"
         clip-path="url(#clipPath1837)"><text
           transform="matrix(1,0,0,-1,524.86,246.67)"
           style="font-variant:normal;font-weight:normal;font-size:18px;font-family:Consolas;-inkscape-font-specification:Consolas;writing-mode:lr-tb;fill:#000000;fill-opacity:1;fill-rule:nonzero;stroke:none"
           id="text1841"><tspan
             x="0 9.8400002 19.68"
             y="0"
             sodipodi:role="line"
             id="tspan1839">(c)</tspan></text></g></g></g></svg>
