<?xml version="1.0" encoding="UTF-8" standalone="no"?>
<!DOCTYPE svg PUBLIC "-//W3C//DTD SVG 1.1//EN" "http://www.w3.org/Graphics/SVG/1.1/DTD/svg11.dtd">
<svg width="100%" height="100%" viewBox="0 0 1000 1000" version="1.1" xmlns="http://www.w3.org/2000/svg" xmlns:xlink="http://www.w3.org/1999/xlink" xml:space="preserve" xmlns:serif="http://www.serif.com/" style="fill-rule:evenodd;clip-rule:evenodd;stroke-linecap:round;stroke-linejoin:round;stroke-miterlimit:1.5;">
    <g id="Fond" transform="matrix(0.250056,0,0,0.250056,-1465.63,-1258.56)">
        <g transform="matrix(0.423048,0,0,0.423048,5621.17,4178.99)">
            <path d="M3115.89,4542.86L4203.92,5171.04L4203.92,6427.39L3115.89,7055.56L2027.86,6427.39L2027.86,5171.04L3115.89,4542.86Z" style="fill:white;stroke:rgb(234,227,218);stroke-width:98.47px;"/>
        </g>
        <g transform="matrix(0.423048,0,0,0.423048,6082.76,3376.43)">
            <path d="M3115.89,4542.86L4203.92,5171.04L4203.92,6427.39L3115.89,7055.56L2027.86,6427.39L2027.86,5171.04L3115.89,4542.86Z" style="fill:white;stroke:rgb(234,227,218);stroke-width:98.47px;"/>
        </g>
        <g transform="matrix(0.423048,0,0,0.423048,7003.33,3376.43)">
            <path d="M3115.89,4542.86L4203.92,5171.04L4203.92,6427.39L3115.89,7055.56L2027.86,6427.39L2027.86,5171.04L3115.89,4542.86Z" style="fill:white;stroke:rgb(234,227,218);stroke-width:98.47px;"/>
        </g>
        <g transform="matrix(0.423048,0,0,0.423048,6541.75,4178.99)">
            <path d="M3115.89,4542.86L4203.92,5171.04L4203.92,6427.39L3115.89,7055.56L2027.86,6427.39L2027.86,5171.04L3115.89,4542.86Z" style="fill:rgb(234,227,218);stroke:rgb(234,227,218);stroke-width:98.47px;"/>
        </g>
        <g transform="matrix(0.423048,0,0,0.423048,7463.19,4178.99)">
            <path d="M3115.89,4542.86L4203.92,5171.04L4203.92,6427.39L3115.89,7055.56L2027.86,6427.39L2027.86,5171.04L3115.89,4542.86Z" style="fill:rgb(234,227,218);stroke:rgb(234,227,218);stroke-width:98.47px;"/>
        </g>
        <g transform="matrix(0.423048,0,0,0.423048,5161.31,4978.71)">
            <path d="M3115.89,4542.86L4203.92,5171.04L4203.92,6427.39L3115.89,7055.56L2027.86,6427.39L2027.86,5171.04L3115.89,4542.86Z" style="fill:white;stroke:rgb(234,227,218);stroke-width:98.47px;"/>
        </g>
        <g transform="matrix(0.423048,0,0,0.423048,6081.89,4978.71)">
            <path d="M3115.89,4542.86L4203.92,5171.04L4203.92,6427.39L3115.89,7055.56L2027.86,6427.39L2027.86,5171.04L3115.89,4542.86Z" style="fill:white;stroke:rgb(234,227,218);stroke-width:98.47px;"/>
        </g>
        <g transform="matrix(0.423048,0,0,0.423048,7003.33,4978.71)">
            <path d="M3115.89,4542.86L4203.92,5171.04L4203.92,6427.39L3115.89,7055.56L2027.86,6427.39L2027.86,5171.04L3115.89,4542.86Z" style="fill:rgb(234,227,218);stroke:rgb(234,227,218);stroke-width:98.47px;"/>
        </g>
        <g transform="matrix(0.423048,0,0,0.423048,7923.91,4978.71)">
            <path d="M3115.89,4542.86L4203.92,5171.04L4203.92,6427.39L3115.89,7055.56L2027.86,6427.39L2027.86,5171.04L3115.89,4542.86Z" style="fill:rgb(234,227,218);stroke:rgb(234,227,218);stroke-width:98.47px;"/>
        </g>
        <g transform="matrix(1,0,0,1,3165.65,2625.3)">
            <path d="M6076.43,3735.97L6536.72,3475.54" style="fill:none;stroke:rgb(234,227,218);stroke-width:41.66px;"/>
        </g>
        <g transform="matrix(0.423048,0,0,0.423048,6542.18,5782.19)">
            <path d="M3115.89,4542.86L4203.92,5171.04L4203.92,6427.39L3115.89,7055.56L2027.86,6427.39L2027.86,5171.04L3115.89,4542.86Z" style="fill:white;stroke:rgb(234,227,218);stroke-width:98.47px;"/>
        </g>
        <g transform="matrix(0.423048,0,0,0.423048,7463.62,5782.19)">
            <path d="M3115.89,4542.86L4203.92,5171.04L4203.92,6427.39L3115.89,7055.56L2027.86,6427.39L2027.86,5171.04L3115.89,4542.86Z" style="fill:white;stroke:rgb(234,227,218);stroke-width:98.47px;"/>
        </g>
        <g transform="matrix(0.423018,0,0,0.423048,5621.66,5782.19)">
            <path d="M3115.89,4542.86L4203.92,5171.04L4203.92,6427.39L3115.89,7055.56L2027.86,6427.39L2027.86,5171.04L3115.89,4542.86Z" style="fill:white;stroke:rgb(234,227,218);stroke-width:98.47px;"/>
        </g>
    </g>
    <g transform="matrix(0.250056,0,0,0.250056,-833,-439.47)">
        <g transform="matrix(0.59583,-1.03201,0.628634,0.362942,-106.397,11773.1)">
            <rect x="6863.09" y="1953.8" width="1563.12" height="137.763" style="fill:url(#_Linear1);"/>
        </g>
        <g transform="matrix(0.59583,-1.03201,0.628634,0.362942,-201.66,11718.1)">
            <rect x="6863.09" y="1953.8" width="1563.12" height="137.763" style="fill:url(#_Linear2);"/>
        </g>
        <g transform="matrix(0.59583,-1.03201,0.628634,0.362942,-296.922,11663.1)">
            <rect x="6863.09" y="1953.8" width="1563.12" height="137.763" style="fill:url(#_Linear3);"/>
        </g>
        <g transform="matrix(0.59583,-1.03201,0.628634,0.362942,-392.197,11608)">
            <rect x="6863.09" y="1953.8" width="1563.12" height="137.763" style="fill:url(#_Linear4);"/>
        </g>
    </g>
    <g id="Maia" transform="matrix(0.250056,0,0,0.250056,-833,-439.47)">
        <g id="A2" transform="matrix(-0.965535,36.1553,-36.1553,-0.965535,13954.5,-14519.8)">
            <path d="M534.441,208.696L517.028,191.205L536.313,189.389C523.35,190.888 524.938,193.78 534.441,208.696Z" style="fill:none;fill-rule:nonzero;stroke:black;stroke-width:2.76px;stroke-linecap:butt;stroke-linejoin:bevel;stroke-miterlimit:4;"/>
        </g>
        <g id="A1" transform="matrix(-0.965535,36.1553,-36.1553,-0.965535,12695.6,-14570.8)">
            <path d="M534.441,208.696L517.028,191.205L536.313,189.389C523.35,190.888 524.938,193.78 534.441,208.696Z" style="fill:none;fill-rule:nonzero;stroke:black;stroke-width:2.76px;stroke-linecap:butt;stroke-linejoin:bevel;stroke-miterlimit:4;"/>
        </g>
        <g id="I" transform="matrix(2.34716e-15,38.3842,-38.3842,2.34716e-15,12586.5,-15916.2)">
            <path d="M534.17,189.04C534.035,184.23 531.206,180.537 518.697,174.273C527.537,178.45 531.829,181.803 534.636,179.29C535.194,178.79 536.511,176.863 534.542,174.382" style="fill:none;fill-rule:nonzero;stroke:black;stroke-width:2.61px;stroke-linecap:butt;stroke-linejoin:bevel;stroke-miterlimit:4;"/>
        </g>
        <g id="M" transform="matrix(2.3804e-15,38.9278,-38.9278,2.3804e-15,12806.7,-16206.1)">
            <path d="M534.725,229.939L513.016,217.463L524.434,217.554L515.686,209.098L535.142,209.776" style="fill:none;fill-rule:nonzero;stroke:black;stroke-width:2.57px;stroke-linecap:butt;stroke-linejoin:bevel;stroke-miterlimit:4;"/>
        </g>
    </g>
    <g id="Masque-jonction-MA" serif:id="Masque jonction MA" transform="matrix(0.105778,0,0,0.105786,-59.9067,187.314)">
        <path d="M3115.89,4542.86L4203.92,5171.04L4203.92,6427.39L3115.89,7055.56L2027.86,6427.39L2027.86,5171.04L3115.89,4542.86Z" style="fill:white;stroke:rgb(234,227,218);stroke-width:98.47px;"/>
    </g>
    <g id="Masque-A2" serif:id="Masque A2" transform="matrix(0.216555,0.125028,-0.0604874,0.104767,-400.348,-650.531)">
        <rect x="6851.76" y="4808.31" width="180.71" height="151.61" style="fill:white;"/>
    </g>
    <g id="Abeille" transform="matrix(0.191035,-0.00128211,0.00128211,0.191035,-1279.04,-450.071)">
        <g transform="matrix(0.102341,0,0,0.102341,9745.7,4275.83)">
            <path d="M3115.89,4542.86L4203.92,5171.04L4203.92,6427.39L3115.89,7055.56L2027.86,6427.39L2027.86,5171.04L3115.89,4542.86Z" style="fill:white;stroke:black;stroke-width:319.67px;"/>
        </g>
        <g transform="matrix(0.102341,0,0,0.102341,9968.61,4275.83)">
            <path d="M3115.89,4542.86L4203.92,5171.04L4203.92,6427.39L3115.89,7055.56L2027.86,6427.39L2027.86,5171.04L3115.89,4542.86Z" style="stroke:black;stroke-width:319.67px;"/>
        </g>
        <g transform="matrix(0.102341,0,0,0.102341,9857.37,4469.29)">
            <path d="M3115.89,4542.86L4203.92,5171.04L4203.92,6427.39L3115.89,7055.56L2027.86,6427.39L2027.86,5171.04L3115.89,4542.86Z" style="fill:rgb(236,179,0);stroke:black;stroke-width:319.67px;"/>
        </g>
        <g transform="matrix(0.123295,0.208136,-0.208136,0.123295,10147.6,3396.52)">
            <path d="M5752.02,3804.41L6443.9,3415.03" style="fill:none;stroke:black;stroke-width:135.24px;"/>
        </g>
        <g transform="matrix(0.102341,0,0,0.102341,10080.1,4469.29)">
            <path d="M3115.89,4542.86L4203.92,5171.04L4203.92,6427.39L3115.89,7055.56L2027.86,6427.39L2027.86,5171.04L3115.89,4542.86Z" style="fill:white;stroke:black;stroke-width:319.67px;"/>
        </g>
        <g transform="matrix(0.241914,0,0,0.241914,8928.98,3899.97)">
            <path d="M6076.43,3735.97L6536.72,3475.54" style="fill:none;stroke:black;stroke-width:135.24px;"/>
        </g>
        <g transform="matrix(0.123295,0.208136,-0.208136,0.123295,10173.1,3346.31)">
            <path d="M5645.14,3863.53L6570.75,3342.37" style="fill:none;stroke:black;stroke-width:135.24px;"/>
        </g>
        <g transform="matrix(0.123295,0.208136,-0.208136,0.123295,10203.9,3299.56)">
            <path d="M5752.02,3804.41L6443.9,3415.03" style="fill:none;stroke:black;stroke-width:135.24px;"/>
        </g>
        <g transform="matrix(0.241914,0,0,0.241914,8706.28,3769.51)">
            <path d="M6536.72,4014.82L6536.72,3475.54" style="fill:none;stroke:black;stroke-width:135.24px;"/>
        </g>
    </g>
    <defs>
        <linearGradient id="_Linear1" x1="0" y1="0" x2="1" y2="0" gradientUnits="userSpaceOnUse" gradientTransform="matrix(1563.12,0,-7.10543e-15,137.763,6863.09,2022.68)"><stop offset="0" style="stop-color:white;stop-opacity:1"/><stop offset="0.5" style="stop-color:rgb(237,188,78);stop-opacity:1"/><stop offset="1" style="stop-color:rgb(237,188,78);stop-opacity:1"/></linearGradient>
        <linearGradient id="_Linear2" x1="0" y1="0" x2="1" y2="0" gradientUnits="userSpaceOnUse" gradientTransform="matrix(1563.12,0,0,137.763,6863.09,2022.68)"><stop offset="0" style="stop-color:white;stop-opacity:1"/><stop offset="0.3" style="stop-color:rgb(242,194,120);stop-opacity:1"/><stop offset="0.54" style="stop-color:rgb(237,167,62);stop-opacity:1"/><stop offset="1" style="stop-color:rgb(237,167,62);stop-opacity:1"/></linearGradient>
        <linearGradient id="_Linear3" x1="0" y1="0" x2="1" y2="0" gradientUnits="userSpaceOnUse" gradientTransform="matrix(1563.12,0,-7.10543e-15,137.763,6863.09,2022.68)"><stop offset="0" style="stop-color:white;stop-opacity:1"/><stop offset="0.48" style="stop-color:rgb(205,122,0);stop-opacity:1"/><stop offset="1" style="stop-color:rgb(205,122,0);stop-opacity:1"/></linearGradient>
        <linearGradient id="_Linear4" x1="0" y1="0" x2="1" y2="0" gradientUnits="userSpaceOnUse" gradientTransform="matrix(1563.12,0,-7.10543e-15,137.763,6863.09,2022.68)"><stop offset="0" style="stop-color:white;stop-opacity:1"/><stop offset="0.25" style="stop-color:rgb(209,150,109);stop-opacity:1"/><stop offset="0.43" style="stop-color:rgb(187,101,41);stop-opacity:1"/><stop offset="1" style="stop-color:rgb(187,101,41);stop-opacity:1"/></linearGradient>
    </defs>
</svg>
